<svg width="24" height="24" viewBox="0 0 24 24" fill="none" xmlns="http://www.w3.org/2000/svg">
<path d="M21.0811 6.58746C21.7384 6.13284 22.1701 5.37418 22.1701 4.51623C22.1701 4.11616 22.0789 3.73356 21.8991 3.37897L21.3236 3.67088C21.4571 3.93413 21.5248 4.21851 21.5248 4.51618C21.5248 5.54834 20.6851 6.38801 19.653 6.38801C18.6209 6.38801 17.7811 5.54829 17.7811 4.51618C17.7811 3.48407 18.6209 2.64436 19.653 2.64436C20.1603 2.64436 20.6352 2.84399 20.9902 3.20641L21.4512 2.7548C20.9738 2.26744 20.3352 1.99902 19.653 1.99902C18.265 1.99902 17.1358 3.12824 17.1358 4.51618C17.1358 5.37556 17.569 6.13538 18.2281 6.58978C17.093 6.98473 16.2757 8.06481 16.2757 9.33285V13.9343C16.2757 14.5712 16.7818 15.0923 17.4129 15.1165V22.0001H21.9303V15.1152C22.5488 15.0774 23.0405 14.5622 23.0405 13.9343V9.3329C23.0404 8.06227 22.2199 6.98043 21.0811 6.58746ZM22.3951 13.9343C22.3951 14.2308 22.1539 14.4721 21.8573 14.4721H21.2849V21.3547H19.9808V15.6301H19.3354V21.3547H18.0582V14.4721H17.4588C17.1623 14.4721 16.921 14.2308 16.921 13.9343V9.3329C16.921 8.08744 17.9343 7.07422 19.1797 7.07422H20.1364C21.3818 7.07422 22.395 8.08744 22.395 9.3329L22.3951 13.9343ZM13.4115 9.16881C14.0688 8.71419 14.5005 7.95553 14.5005 7.09758C14.5005 5.70959 13.3713 4.58042 11.9834 4.58042C10.5954 4.58042 9.46623 5.70963 9.46623 7.09758C9.46623 7.95695 9.89938 8.71677 10.5586 9.17118C9.42338 9.56612 8.60616 10.6462 8.60616 11.9142V15.139C8.60616 15.7516 9.07425 16.257 9.67157 16.3163V22.0001H14.1889V16.322C14.8408 16.3214 15.3709 15.7909 15.3709 15.1389V12.3675H14.7256V15.1389C14.7256 15.4355 14.4843 15.6767 14.1878 15.6767H13.5436V21.3547H12.2502V16.9207H11.6049V21.3547H10.3169V15.6767H9.78924C9.49269 15.6767 9.25146 15.4355 9.25146 15.1389V11.9142C9.25146 10.6687 10.2647 9.65552 11.5101 9.65552H12.4668C13.7122 9.65552 14.7255 10.6687 14.7255 11.9142V12.6449H15.3708V11.9142C15.3708 10.6436 14.5503 9.56178 13.4115 9.16881ZM11.9834 8.9694C10.9512 8.9694 10.1116 8.12969 10.1116 7.09758C10.1116 6.06547 10.9513 5.22575 11.9834 5.22575C13.0155 5.22575 13.8552 6.06547 13.8552 7.09758C13.8552 8.12969 13.0155 8.9694 11.9834 8.9694ZM5.76483 11.3199C6.42213 10.8653 6.85386 10.1067 6.85386 9.2487C6.85386 7.86071 5.72465 6.73154 4.3367 6.73154C2.94875 6.73154 1.81954 7.86075 1.81954 9.2487C1.81954 10.108 2.25264 10.8678 2.91175 11.3222C2.25062 11.552 1.68234 12.0172 1.32947 12.6459L1.89224 12.9618C2.2921 12.2493 3.04744 11.8067 3.86349 11.8067H4.82014C6.0656 11.8067 7.07882 12.8199 7.07882 14.0654V16.1285C7.07882 16.425 6.83759 16.6663 6.54104 16.6663H5.80217V21.3548H4.5115V17.8076H3.86616V21.3548H2.57548V16.6662H2.14259C1.84604 16.6662 1.60481 16.425 1.60481 16.1284V14.0653C1.60481 13.8676 1.63032 13.6716 1.68062 13.4826L1.05701 13.3167C0.992136 13.5609 0.959349 13.8126 0.959473 14.0654V16.1285C0.959473 16.7083 1.37886 17.1921 1.93015 17.2925V22.0001H6.44751V17.3116H6.54104C7.19343 17.3116 7.72416 16.7808 7.72416 16.1284V14.0653C7.72416 12.7947 6.90359 11.7129 5.76483 11.3199ZM4.33674 11.1205C3.30459 11.1205 2.46492 10.2808 2.46492 9.2487C2.46492 8.21659 3.30463 7.37688 4.33674 7.37688C5.36885 7.37688 6.20856 8.21659 6.20856 9.2487C6.20856 10.2808 5.36885 11.1205 4.33674 11.1205Z" fill="#FD7E14" stroke="#FD7E14" stroke-width="0.200736"/>
<path d="M3.15918 14.8021H3.8606V15.5064H3.15918V14.8021ZM3.15918 13.4021H3.8606V14.1036H3.15918V13.4021ZM11.5734 11.2979H12.2748V11.9993H11.5734V11.2979ZM11.5734 12.7007H12.2748V13.4021H11.5734V12.7007ZM19.9673 8.49512H20.6687V9.19654H19.9673V8.49512ZM19.9673 9.89796H20.6687V10.5994H19.9673V9.89796ZM19.9673 11.3008H20.6687V11.9993H19.9673V11.3008Z" fill="#FD7E14" stroke="#FD7E14" stroke-width="0.218182"/>
</svg>
