<svg width="24" height="24" viewBox="0 0 24 24" fill="none" xmlns="http://www.w3.org/2000/svg">
<path d="M11.8568 8.43111L8.25812 11.3761C8.17641 11.443 8.12903 11.543 8.12903 11.6486C8.12903 12.3024 8.57947 12.8486 9.18475 13.0059V16.2784C9.18475 16.8307 9.63246 17.2784 10.1847 17.2784H15.2232C15.7755 17.2784 16.2232 16.8307 16.2232 16.2784V13.0055C16.8285 12.8479 17.2786 12.3017 17.2786 11.6479C17.2786 11.5423 17.2312 11.4423 17.1495 11.3755L13.5508 8.43111C13.0744 8.04119 12.3333 8.04119 11.8568 8.43111ZM13.4076 16.5746H12V15.1669C12 14.7782 12.3151 14.4631 12.7038 14.4631C13.0925 14.4631 13.4076 14.7782 13.4076 15.1669V16.5746ZM14.1114 16.5746V14.7593C14.1114 14.207 13.6637 13.7593 13.1114 13.7593H12.2962C11.7439 13.7593 11.2962 14.207 11.2962 14.7593V16.5746H9.88856V13.0555H15.5194V16.5746H14.1114ZM15.8713 12.3517H9.5363C9.20093 12.3517 8.91976 12.1159 8.84973 11.8017L12.3026 8.97621C12.5286 8.79146 12.8798 8.79146 13.1053 8.97621L16.5582 11.8013C16.4882 12.1159 16.207 12.3517 15.8713 12.3517ZM12.7038 20.7974C12.1218 20.7974 11.6481 21.2711 11.6481 21.8532C11.6481 22.4352 12.1218 22.9089 12.7038 22.9089C13.2859 22.9089 13.7595 22.4352 13.7595 21.8532C13.7595 21.2711 13.2859 20.7974 12.7038 20.7974ZM12.7038 22.2051C12.5099 22.2051 12.3519 22.0471 12.3519 21.8532C12.3519 21.6593 12.5099 21.5013 12.7038 21.5013C12.8977 21.5013 13.0557 21.6593 13.0557 21.8532C13.0557 22.0471 12.8977 22.2051 12.7038 22.2051ZM11.2276 19.8808C11.0721 19.9973 11.0733 20.2226 11.2107 20.36C11.3481 20.4974 11.5694 20.4937 11.7313 20.3863C12.3181 19.9971 13.0891 19.9971 13.6759 20.3863C13.8379 20.4937 14.0592 20.4974 14.1966 20.36C14.334 20.2226 14.3352 19.9973 14.1797 19.8808C13.3083 19.2277 12.0992 19.2277 11.2276 19.8808Z" fill="#FD7E14"/>
<path d="M10.2265 18.8787C10.0773 19.0032 10.0781 19.2276 10.2155 19.365C10.3529 19.5024 10.5747 19.5005 10.7264 19.3791C11.8784 18.4571 13.5296 18.4571 14.6816 19.3791C14.8333 19.5005 15.0551 19.5024 15.1925 19.365C15.3299 19.2276 15.3307 19.0032 15.1814 18.8787C13.7512 17.686 11.6565 17.686 10.2265 18.8787ZM11.2962 5.78278V6.36941C11.2962 6.95146 11.7699 7.42513 12.3519 7.42513H13.0557C13.6378 7.42513 14.1114 6.95146 14.1114 6.36941V5.78278L14.6745 5.03217C14.9923 4.60883 15.1672 4.08378 15.1672 3.55416C15.1672 2.19581 14.0622 1.09082 12.7038 1.09082C11.3455 1.09082 10.2405 2.19581 10.2405 3.55416C10.2405 4.08378 10.4154 4.60883 10.7331 5.03217L11.2962 5.78278ZM13.0557 6.72132H12.3519C12.158 6.72132 12 6.56331 12 6.36941V6.01751H13.4076V6.36941C13.4076 6.56331 13.2496 6.72132 13.0557 6.72132ZM12.3519 3.55416C12.3519 3.36026 12.5099 3.20226 12.7038 3.20226C12.8977 3.20226 13.0557 3.36026 13.0557 3.55416C13.0557 3.74806 12.8977 3.90607 12.7038 3.90607C12.5099 3.90607 12.3519 3.74806 12.3519 3.55416ZM12.7038 1.79463C13.674 1.79463 14.4633 2.58396 14.4633 3.55416C14.4633 3.93246 14.3384 4.30759 14.1114 4.60988L13.5836 5.31369H13.0557V4.54513C13.4643 4.39944 13.7595 4.01235 13.7595 3.55416C13.7595 2.97211 13.2859 2.49844 12.7038 2.49844C12.1218 2.49844 11.6481 2.97211 11.6481 3.55416C11.6481 4.01235 11.9433 4.39944 12.3519 4.54513V5.31369H11.824L11.2962 4.60988C11.0692 4.30759 10.9443 3.93246 10.9443 3.55416C10.9443 2.58396 11.7336 1.79463 12.7038 1.79463ZM7.11044 10.5595C7.14604 10.4833 7.13014 10.3929 7.07065 10.3334L5.92458 9.18736C5.86508 9.12786 5.7747 9.11196 5.69847 9.14759L5.5755 9.20507C5.46909 9.2548 5.34294 9.20258 5.30283 9.09219L5.25642 8.96445C5.22769 8.88539 5.15256 8.83276 5.06844 8.83276H3.44769C3.36357 8.83276 3.28844 8.88539 3.25972 8.96445L3.2133 9.09219C3.17319 9.20258 3.04704 9.2548 2.94064 9.20507L2.81767 9.14759C2.74144 9.11196 2.65106 9.12786 2.59156 9.18736L1.44551 10.3334C1.38601 10.3929 1.37012 10.4833 1.40575 10.5595L1.46323 10.6825C1.51296 10.7889 1.46073 10.915 1.35035 10.9551L1.22261 11.0016C1.14355 11.0303 1.09091 11.1054 1.09091 11.1895V12.8099C1.09091 12.8941 1.14355 12.9692 1.22261 12.9979L1.35034 13.0443C1.46073 13.0844 1.51296 13.2106 1.46323 13.317L1.40575 13.44C1.37012 13.5162 1.38601 13.6066 1.44551 13.6661L2.59156 14.8121C2.65106 14.8716 2.74144 14.8875 2.81767 14.8519L2.94059 14.7944C3.04701 14.7447 3.17318 14.7969 3.21327 14.9073L3.25973 15.0353C3.28845 15.1144 3.36359 15.1671 3.44773 15.1671H5.06809C5.15221 15.1671 5.22734 15.1144 5.25607 15.0354L5.30248 14.9076C5.34259 14.7972 5.46874 14.745 5.57514 14.7947L5.69812 14.8522C5.77435 14.8879 5.86472 14.872 5.92422 14.8125L7.07027 13.6664C7.12977 13.6069 7.14566 13.5165 7.11003 13.4403L7.05258 13.3174C7.00284 13.211 7.05509 13.0848 7.16551 13.0447L7.29348 12.9982C7.37256 12.9695 7.42522 12.8944 7.42522 12.8103V11.1899C7.42522 11.1058 7.37259 11.0306 7.29353 11.0019L7.16573 10.9555C7.05536 10.9154 7.00313 10.7893 7.05282 10.6829L7.11044 10.5595ZM6.72141 12.3169C6.72141 12.401 6.66877 12.4762 6.5897 12.5049L6.43179 12.5623L6.34336 12.6045C6.2988 12.6258 6.26368 12.6628 6.24479 12.7084L6.15933 12.9148C6.13786 12.9666 6.13916 13.0251 6.16291 13.076L6.26374 13.2918C6.29935 13.368 6.28345 13.4584 6.22396 13.5179L5.77569 13.9662C5.71621 14.0256 5.62585 14.0415 5.54963 14.0059L5.33377 13.9051C5.28292 13.8814 5.22443 13.8801 5.17258 13.9015L4.95564 13.9914C4.90379 14.0129 4.86335 14.0552 4.84419 14.1079L4.76303 14.3315C4.73431 14.4106 4.65917 14.4633 4.57503 14.4633H3.94107C3.85695 14.4633 3.78182 14.4106 3.75309 14.3315L3.69572 14.1736L3.65348 14.0852C3.63219 14.0406 3.59517 14.0055 3.54954 13.9866L3.34319 13.9012C3.29135 13.8797 3.23287 13.881 3.18202 13.9047L2.96615 14.0056C2.88993 14.0412 2.79958 14.0253 2.74009 13.9658L2.29182 13.5175C2.23234 13.458 2.21644 13.3677 2.25204 13.2915L2.35287 13.0756C2.37662 13.0248 2.37792 12.9663 2.35644 12.9144L2.26656 12.6975C2.24508 12.6456 2.2028 12.6052 2.15004 12.586L1.92647 12.5049C1.84738 12.4762 1.79472 12.401 1.79472 12.3169V11.6826C1.79472 11.5984 1.84736 11.5233 1.92643 11.4946L2.08434 11.4372L2.17277 11.395C2.21734 11.3737 2.25245 11.3367 2.27135 11.291L2.3568 11.0847C2.37827 11.0328 2.37698 10.9744 2.35323 10.9235L2.25239 10.7076C2.21679 10.6314 2.23269 10.5411 2.29218 10.4816L2.7404 10.0334C2.79991 9.97385 2.8903 9.95796 2.96653 9.9936L3.18262 10.0946C3.23352 10.1184 3.29209 10.1197 3.344 10.0982L3.56031 10.0084C3.61207 9.98692 3.65243 9.94471 3.67159 9.89206L3.75305 9.66818C3.7818 9.58916 3.85691 9.53657 3.941 9.53657H4.57542C4.65954 9.53657 4.73467 9.58921 4.76339 9.66827L4.82077 9.82619L4.8624 9.91397C4.88362 9.95872 4.92069 9.994 4.96643 10.013L5.17249 10.0985C5.22439 10.1201 5.28297 10.1188 5.33387 10.095L5.54995 9.99395C5.62619 9.95831 5.71658 9.9742 5.77608 10.0337L6.22431 10.4819C6.2838 10.5414 6.2997 10.6318 6.2641 10.708L6.16327 10.9239C6.13951 10.9747 6.13822 11.0332 6.1597 11.085L6.2496 11.3021C6.27107 11.3539 6.31329 11.3943 6.36599 11.4135L6.5898 11.4949C6.66881 11.5236 6.72141 11.5988 6.72141 11.6828V12.3169Z" fill="#FD7E14"/>
<path d="M4.25807 10.24C3.28786 10.24 2.49854 11.0293 2.49854 11.9995C2.49854 12.9697 3.28786 13.7591 4.25807 13.7591C5.22827 13.7591 6.0176 12.9697 6.0176 11.9995C6.0176 11.0293 5.22827 10.24 4.25807 10.24ZM4.25807 13.0552C3.67601 13.0552 3.20235 12.5816 3.20235 11.9995C3.20235 11.4175 3.67601 10.9438 4.25807 10.9438C4.84012 10.9438 5.31378 11.4175 5.31378 11.9995C5.31378 12.5816 4.84012 13.0552 4.25807 13.0552ZM22.649 11.7483L21.2699 8.99003C21.113 8.67578 20.7973 8.48047 20.4457 8.48047C20.0942 8.48047 19.7785 8.67578 19.6216 8.98968L18.2425 11.7483C18.0718 12.0905 17.9827 12.4676 17.9824 12.8501V13.0552C17.9824 14.4136 19.0874 15.5186 20.4457 15.5186C21.8041 15.5186 22.9091 14.4136 22.9091 13.0552V12.8501C22.9091 12.4693 22.8194 12.0886 22.649 11.7483ZM22.2053 13.0552C22.2053 14.0255 21.416 14.8148 20.4457 14.8148C19.4755 14.8148 18.6862 14.0255 18.6862 13.0552V12.8501C18.6862 12.5784 18.7506 12.3064 18.872 12.0632L20.2511 9.30498C20.2884 9.23038 20.3627 9.18428 20.4457 9.18428C20.5288 9.18428 20.6031 9.23038 20.6404 9.30463L22.0195 12.0629C22.1413 12.3074 22.2049 12.5769 22.2053 12.8501V13.0552Z" fill="#FD7E14"/>
</svg>
