<svg width="20" height="20" viewBox="0 0 20 20" fill="none" xmlns="http://www.w3.org/2000/svg">
<g clip-path="url(#clip0_2831_8275)">
<mask id="mask0_2831_8275" style="mask-type:luminance" maskUnits="userSpaceOnUse" x="0" y="0" width="20" height="20">
<path d="M19.4999 19.5V0.500057H0.5V19.5H19.4999Z" fill="white" stroke="white"/>
</mask>
<g mask="url(#mask0_2831_8275)">
<path d="M9.99997 5.31251C9.99997 7.90133 7.90131 10 5.31249 10C2.72367 10 0.585938 7.90133 0.585938 5.31251C0.585938 2.72369 2.72367 0.585966 5.31249 0.585966C7.90131 0.585966 9.99997 2.72369 9.99997 5.31251Z" stroke="#FD7E14" stroke-width="1.3" stroke-miterlimit="10" stroke-linecap="round" stroke-linejoin="round"/>
<path d="M19.414 14.6875C19.414 17.2763 17.2763 19.4141 14.6875 19.4141C12.0987 19.4141 10 17.2763 10 14.6875C10 12.0987 12.0987 10 14.6875 10C17.2763 10 19.414 12.0987 19.414 14.6875Z" stroke="#FD7E14" stroke-width="1.3" stroke-miterlimit="10" stroke-linecap="round" stroke-linejoin="round"/>
<path d="M5.3125 10V17.0312" stroke="#FD7E14" stroke-width="1.3" stroke-miterlimit="10" stroke-linecap="round" stroke-linejoin="round"/>
<path d="M2.96875 14.6875H7.65624" stroke="#FD7E14" stroke-width="1.3" stroke-miterlimit="10" stroke-linecap="round" stroke-linejoin="round"/>
<path d="M14.6875 3.12506V10" stroke="#FD7E14" stroke-width="1.3" stroke-miterlimit="10" stroke-linecap="round" stroke-linejoin="round"/>
<path d="M12.3438 5.3125L14.6875 2.96876L17.0312 5.3125" stroke="#FD7E14" stroke-width="1.3" stroke-miterlimit="10" stroke-linecap="round" stroke-linejoin="round"/>
</g>
</g>
<defs>
<clipPath id="clip0_2831_8275">
<rect width="20" height="20" fill="white"/>
</clipPath>
</defs>
</svg>
