<svg width="22" height="22" viewBox="0 0 22 22" fill="none" xmlns="http://www.w3.org/2000/svg">
<path d="M17.4718 17.1153L15.5101 13.2012L13.5485 17.1153" stroke="#FD7E14" stroke-width="1.4" stroke-linecap="round" stroke-linejoin="round"/>
<path d="M13.9058 16.418H17.1324" stroke="#FD7E14" stroke-width="1.4" stroke-linecap="round" stroke-linejoin="round"/>
<path d="M15.5101 20.1668C12.9434 20.1668 10.8534 18.086 10.8534 15.5101C10.8534 12.9435 12.9342 10.8535 15.5101 10.8535C18.0767 10.8535 20.1667 12.9343 20.1667 15.5101C20.1667 18.086 18.0859 20.1668 15.5101 20.1668Z" stroke="#FD7E14" stroke-width="1.4" stroke-linecap="round" stroke-linejoin="round"/>
<path d="M4.60171 1.83398H8.19504C10.0925 1.83398 11.0092 2.75067 10.9634 4.60234V8.19565C11.0092 10.0932 10.0925 11.0098 8.19504 10.964H4.60171C2.75004 11.0007 1.83337 10.084 1.83337 8.18648V4.59316C1.83337 2.75066 2.75004 1.83398 4.60171 1.83398Z" stroke="#FD7E14" stroke-width="1.4" stroke-linecap="round" stroke-linejoin="round"/>
<path d="M8.25914 5.36328H4.53748" stroke="#FD7E14" stroke-width="1.4" stroke-linecap="round" stroke-linejoin="round"/>
<path d="M6.38928 4.74023V5.36356" stroke="#FD7E14" stroke-width="1.4" stroke-linecap="round" stroke-linejoin="round"/>
<path d="M7.32416 5.35352C7.32416 6.95768 6.06832 8.25933 4.52832 8.25933" stroke="#FD7E14" stroke-width="1.4" stroke-linecap="round" stroke-linejoin="round"/>
<path d="M8.25906 8.25983C7.58989 8.25983 6.9849 7.90232 6.56323 7.33398" stroke="#FD7E14" stroke-width="1.4" stroke-linecap="round" stroke-linejoin="round"/>
<path d="M1.83313 13.748C1.83313 17.2955 4.7023 20.1647 8.2498 20.1647L7.28729 18.5605" stroke="#FD7E14" stroke-width="1.4" stroke-linecap="round" stroke-linejoin="round"/>
<path d="M20.1664 8.2487C20.1664 4.7012 17.2973 1.83203 13.7498 1.83203L14.7123 3.4362" stroke="#FD7E14" stroke-width="1.4" stroke-linecap="round" stroke-linejoin="round"/>
</svg>
