<svg width="24" height="24" viewBox="0 0 24 24" fill="none" xmlns="http://www.w3.org/2000/svg">
<g clip-path="url(#clip0_2831_8368)">
<path d="M12 23C5.93453 23 1 18.0655 1 12C1 5.93453 5.93453 1 12 1C18.0655 1 23 5.93453 23 12C23 18.0655 18.0655 23 12 23ZM12 1.7333C6.33904 1.7333 1.7333 6.33904 1.7333 12C1.7333 17.661 6.33904 22.2667 12 22.2667C17.661 22.2667 22.2667 17.661 22.2667 12C22.2667 6.33904 17.661 1.7333 12 1.7333Z" fill="#FD7E14" stroke="#FD7E14" stroke-width="0.3"/>
<path d="M13.2451 19.8491C12.7468 19.8491 12.2778 19.5492 12.0834 19.0629L11.6816 18.0583C11.6606 18.006 11.6432 17.9524 11.6296 17.8977L10.9344 15.1165C10.9251 15.08 10.9119 15.0446 10.8951 15.0109L10.5218 14.2648C10.4129 14.0466 10.172 13.9374 9.93488 13.9946L9.57987 14.0832C9.20338 14.1772 8.79818 14.0891 8.49555 13.8467L7.33509 12.9187C7.03698 12.6797 6.86609 12.324 6.86609 11.9427V11.5499C6.86566 11.2895 6.94716 11.0355 7.09907 10.824L8.50363 8.85747C8.6194 8.69569 8.77205 8.56382 8.94894 8.47279C9.12582 8.38175 9.32185 8.33417 9.52079 8.33398H10.2883C10.515 8.3339 10.7375 8.39564 10.9317 8.51256L12.2617 9.31032C12.3716 9.37705 12.5027 9.39984 12.6286 9.37413L13.4241 9.21467C14.0008 9.09917 14.5867 9.40786 14.818 9.94832L15.5231 11.5936C15.5658 11.6926 15.6398 11.7777 15.7318 11.8322L16.4542 12.2661C16.607 12.3578 16.7384 12.4811 16.8396 12.6278C16.9408 12.7745 17.0096 12.9411 17.0411 13.1164C17.0727 13.2919 17.0663 13.4721 17.0225 13.645C16.9787 13.8178 16.8984 13.9792 16.787 14.1185L16.1454 14.9208C16.0723 15.0125 16.0324 15.1262 16.0321 15.2434V16.401C16.0321 16.7302 15.8986 17.0526 15.6658 17.2851L15.2683 17.6825C15.2383 17.7126 15.2123 17.746 15.1906 17.7819L14.3146 19.242C14.1611 19.4975 13.9213 19.6897 13.6386 19.7841C13.5119 19.8274 13.379 19.8494 13.2451 19.8491ZM10.0653 13.2451C10.5295 13.2451 10.9614 13.5037 11.1781 13.9371L11.5514 14.6831C11.5923 14.7647 11.624 14.8506 11.6461 14.9391L12.3413 17.7203C12.3468 17.7427 12.354 17.7643 12.3626 17.7856L12.7648 18.7914C12.8663 19.0443 13.148 19.1752 13.408 19.0894C13.5248 19.05 13.6239 18.9704 13.6876 18.8647L14.5633 17.4049C14.6159 17.3176 14.6789 17.2369 14.751 17.1648L15.1488 16.7666C15.2455 16.6696 15.2999 16.5384 15.3003 16.4014V15.2437C15.3003 14.9611 15.3974 14.6843 15.5742 14.4633L16.2162 13.6609C16.3108 13.5428 16.3478 13.3958 16.3215 13.2469C16.2946 13.098 16.2084 12.9731 16.0787 12.8952L15.3566 12.4619C15.1305 12.3266 14.9556 12.1264 14.8511 11.883L14.1456 10.2374C14.05 10.014 13.8079 9.88726 13.5696 9.9341L12.774 10.0936C12.4681 10.1556 12.1528 10.0999 11.8854 9.93964L10.5549 9.14137C10.4746 9.09309 10.3827 9.06761 10.289 9.06768H9.5216C9.43941 9.06781 9.35843 9.0875 9.28535 9.12512C9.21227 9.16274 9.14919 9.21721 9.10133 9.28402L7.69663 11.2505C7.63382 11.3379 7.6001 11.4428 7.60025 11.5505V11.9431C7.60025 12.1008 7.67094 12.2479 7.79413 12.3467L8.95429 13.2744C9.07933 13.3746 9.24733 13.4119 9.40279 13.3725L9.75729 13.284C9.85791 13.2581 9.96139 13.2451 10.0653 13.2451ZM17.4999 19.3336C17.4517 19.3337 17.4041 19.3242 17.3596 19.3057C17.3151 19.2873 17.2747 19.2603 17.2407 19.2262L16.5072 18.4929C16.4646 18.4502 16.4332 18.3976 16.4157 18.3399C16.3983 18.2821 16.3953 18.2209 16.4072 18.1618L16.7739 16.3284C16.7882 16.2575 16.823 16.1923 16.874 16.141L17.974 15.041C18.0209 14.994 18.0797 14.9606 18.1441 14.9445C18.2085 14.9283 18.2761 14.93 18.3396 14.9493C18.4031 14.9685 18.4603 15.0046 18.5048 15.0538C18.5494 15.103 18.5797 15.1633 18.5926 15.2284L18.9591 17.0617C18.977 17.1512 18.961 17.2441 18.9141 17.3225L17.8141 19.1557C17.7854 19.2035 17.7463 19.244 17.6996 19.2744C17.6529 19.3048 17.5999 19.3241 17.5447 19.3309C17.5296 19.3325 17.5145 19.3336 17.4999 19.3336ZM17.1643 18.1129L17.4269 18.3759L18.2124 17.0669L18.0078 16.0442L17.4705 16.5815L17.1643 18.1129Z" fill="#FD7E14" stroke="#FD7E14" stroke-width="0.3"/>
<path d="M21.5316 11.187C20.9556 11.187 20.4401 10.7918 20.2941 10.2135C20.208 9.87179 20.1002 9.57874 19.9743 9.3419C19.8944 9.19151 19.7508 9.09548 19.5795 9.07786C19.3921 9.05925 19.2095 9.13544 19.0881 9.28213C18.3501 10.1742 17.631 10.5868 16.9491 10.5097C16.1226 10.4151 15.7215 9.63125 15.7047 9.59787C14.0054 6.19912 10.9699 6.49286 10.9398 6.4984C10.9262 6.4999 10.913 6.50055 10.8994 6.50055C10.6956 6.50055 10.4693 6.54975 10.2277 6.64613C9.41726 6.97037 8.52201 6.72717 7.99946 6.04156C7.48753 5.3691 7.49058 4.49498 8.0072 3.81522L8.04965 3.75979C8.30716 3.42897 8.70093 3.21851 9.12907 3.18375C10.5115 3.07147 11.5392 2.40644 12.1842 1.20671C12.2508 1.08232 12.3836 1.00648 12.5245 1.01421C17.8771 1.26579 22.2452 5.30636 22.9107 10.6219C22.9345 10.8134 22.8062 10.9908 22.6166 11.0271C22.3122 11.086 22.0061 11.1357 21.6988 11.1763C21.6427 11.1833 21.5867 11.187 21.5316 11.187ZM19.523 8.34167C19.5667 8.34167 19.6103 8.34425 19.6539 8.34855C20.0727 8.39122 20.4253 8.62806 20.6219 8.99763C20.7756 9.28651 20.9047 9.63529 21.0051 10.0337C21.0741 10.3067 21.3303 10.4856 21.6016 10.4492C21.7795 10.4255 21.957 10.3987 22.134 10.3689C21.3839 5.65179 17.4914 2.08585 12.7136 1.75929C12.1505 2.69936 11.0984 3.75897 9.18884 3.9146C8.96497 3.93286 8.76065 4.04063 8.62823 4.21083L8.59196 4.25767C8.2128 4.75632 8.33935 5.27633 8.58324 5.59704C8.83031 5.92167 9.33772 6.21322 9.95557 5.96529C10.2775 5.8366 10.5888 5.77029 10.8811 5.76724C11.0293 5.75367 11.8627 5.70193 12.8988 6.06287C13.9248 6.42003 15.3584 7.26578 16.3606 9.27006C16.3616 9.27259 16.6058 9.73567 17.0367 9.78199C17.4506 9.83368 17.9632 9.49229 18.5231 8.81502C18.7729 8.51325 19.1391 8.34167 19.523 8.34167ZM2.31603 11.2669H1.42292C1.37164 11.267 1.32092 11.2562 1.27405 11.2354C1.22719 11.2145 1.18522 11.1841 1.15087 11.146C1.11652 11.1079 1.09055 11.063 1.07465 11.0143C1.05874 10.9655 1.05326 10.914 1.05855 10.863C1.2703 8.8017 2.06239 6.84713 3.34973 5.20947C3.40186 5.14308 3.47535 5.09675 3.55772 5.07833C3.6401 5.05992 3.72632 5.07054 3.80176 5.1084L5.17826 5.79659C5.75349 6.08448 6.16053 6.63517 6.2661 7.26978L6.29446 7.43748C6.44064 8.31662 6.00357 9.17535 5.20649 9.57397L4.48926 9.93259C4.28952 10.0329 4.11921 10.1832 3.99495 10.369C3.81087 10.6455 3.56123 10.8722 3.26829 11.0289C2.97535 11.1856 2.6482 11.2674 2.31599 11.267L2.31603 11.2669ZM1.83714 10.5336H2.31603C2.74658 10.5336 3.14619 10.3198 3.38488 9.9616C3.57978 9.66945 3.84744 9.43313 4.16149 9.27594L4.87869 8.91724C5.38628 8.66394 5.66458 8.11695 5.57143 7.55737L5.5432 7.38983V7.38931C5.47574 6.98532 5.21676 6.63521 4.85054 6.45191L3.74539 5.89933C2.73162 7.26849 2.07734 8.85747 1.83714 10.5336ZM5.4848 20.7676C5.40332 20.7677 5.32413 20.7406 5.25973 20.6907C2.85731 18.8242 1.32169 16.0244 1.04742 13.009C1.04037 12.9319 1.05793 12.8545 1.09759 12.7879C1.13724 12.7214 1.19695 12.6691 1.26815 12.6385L1.65203 12.4739C2.42027 12.1448 3.29842 12.3141 3.88942 12.9051L4.56888 13.5845C4.75004 13.7661 4.98101 13.8898 5.23253 13.9399C6.17935 14.1296 6.86599 14.9673 6.86599 15.9327V16.0343C6.86599 16.5869 6.70439 17.1214 6.39789 17.5805C6.21626 17.8525 6.10162 18.1686 6.06523 18.4932L5.84888 20.4416C5.84168 20.5064 5.81738 20.568 5.77847 20.6203C5.73956 20.6726 5.68744 20.7135 5.62746 20.739C5.58227 20.7579 5.53378 20.7676 5.4848 20.7675V20.7676ZM1.80526 13.2062C2.09865 15.6992 3.31488 18.0157 5.19558 19.6844L5.33678 18.4118C5.38654 17.9689 5.54115 17.5443 5.78778 17.1731C6.01312 16.8359 6.13318 16.4394 6.13269 16.0339V15.9324C6.13269 15.3152 5.69376 14.7796 5.08855 14.6586C4.69487 14.5805 4.33335 14.3869 4.05003 14.1027L3.37061 13.4232C2.99262 13.0459 2.43166 12.9375 1.9407 13.1474L1.80526 13.2062Z" fill="#FD7E14" stroke="#FD7E14" stroke-width="0.3"/>
</g>
<defs>
<clipPath id="clip0_2831_8368">
<rect width="24" height="24" fill="white"/>
</clipPath>
</defs>
</svg>
