<svg width="22" height="22" viewBox="0 0 22 22" fill="none" xmlns="http://www.w3.org/2000/svg">
<g clip-path="url(#clip0_2831_8394)">
<path d="M13.4236 1.48578L13.4237 1.48585L21.2474 7.60826L21.2477 7.6085C21.3635 7.69897 21.384 7.86654 21.2932 7.98236L21.2927 7.98304C21.2404 8.04995 21.1631 8.08537 21.0824 8.08537C21.0239 8.08537 20.9671 8.06675 20.9203 8.02993L20.9192 8.02914L13.0957 1.90686C13.0956 1.90682 13.0956 1.90677 13.0955 1.90672C11.8629 0.941602 10.1381 0.941585 8.90549 1.90667C8.90541 1.90674 8.90533 1.9068 8.90525 1.90686L1.08162 8.02755C1.08153 8.02762 1.08143 8.0277 1.08134 8.02777C0.964777 8.11842 0.797555 8.09773 0.706623 7.98213C0.616461 7.86685 0.635971 7.69987 0.752784 7.6081C0.75286 7.60804 0.752936 7.60798 0.753013 7.60792L8.57624 1.48592C8.57627 1.4859 8.5763 1.48587 8.57633 1.48585C10.0041 0.369071 11.9963 0.36851 13.4236 1.48578ZM3.82949 17.205C3.89547 17.2557 3.93425 17.3345 3.93425 17.4171V21.0838C3.93425 21.2317 3.81551 21.3505 3.66758 21.3505H0.916667C0.768735 21.3505 0.65 21.2317 0.65 21.0838C0.65 19.2743 1.90042 17.6234 3.59484 17.1601C3.67761 17.1384 3.76559 17.1565 3.82949 17.205ZM21.3509 21.0838C21.3509 21.2317 21.2322 21.3505 21.0842 21.3505H18.3342C18.1863 21.3505 18.0676 21.2317 18.0676 21.0838V17.4171C18.0676 17.3362 18.105 17.2579 18.1718 17.2054C18.2395 17.1554 18.3281 17.1394 18.4055 17.16C20.1002 17.623 21.3509 19.2741 21.3509 21.0838ZM2.48333 12.3755C2.48333 11.4685 3.21807 10.7338 4.125 10.7338C5.03193 10.7338 5.76667 11.4685 5.76667 12.3755C5.76667 13.2824 5.03193 14.0171 4.125 14.0171C3.21807 14.0171 2.48333 13.2824 2.48333 12.3755ZM17.875 10.7338C18.7819 10.7338 19.5167 11.4685 19.5167 12.3755C19.5167 13.2824 18.7819 14.0171 17.875 14.0171C16.9681 14.0171 16.2333 13.2824 16.2333 12.3755C16.2333 11.4685 16.9681 10.7338 17.875 10.7338ZM9.35833 9.62545C9.35833 8.71852 10.0931 7.98379 11 7.98379C11.9069 7.98379 12.6417 8.71852 12.6417 9.62545C12.6417 10.5324 11.9069 11.2671 11 11.2671C10.0931 11.2671 9.35833 10.5324 9.35833 9.62545ZM14.9333 18.3338V21.0838C14.9333 21.2317 14.8146 21.3505 14.6667 21.3505H7.33333C7.1854 21.3505 7.06667 21.2317 7.06667 21.0838V18.3338C7.06667 16.1655 8.83173 14.4005 11 14.4005C13.1683 14.4005 14.9333 16.1655 14.9333 18.3338Z" stroke="#FD7E14" stroke-width="1.3"/>
</g>
<defs>
<clipPath id="clip0_2831_8394">
<rect width="22" height="22" fill="white"/>
</clipPath>
</defs>
</svg>
