<svg width="22" height="22" viewBox="0 0 22 22" fill="none" xmlns="http://www.w3.org/2000/svg">
<path d="M20.0071 4.83546C20.0059 4.83546 20.0047 4.83531 20.0036 4.83531H14.9227V4.27492C14.9227 3.34792 14.1685 2.59375 13.2416 2.59375H8.75845C7.83145 2.59375 7.07728 3.34796 7.07728 4.27492V4.83531H1.99642C1.6844 4.83531 1.43604 5.09099 1.43604 5.39569V17.7243C1.43604 18.6512 2.19024 19.4054 3.1172 19.4054H18.8828C19.8098 19.4054 20.564 18.6512 20.564 17.7243V5.40533C20.5425 5.03727 20.3162 4.83747 20.0071 4.83546ZM8.19806 4.27492C8.19806 3.96596 8.44949 3.71453 8.75845 3.71453H13.2416C13.5505 3.71453 13.802 3.96596 13.802 4.27492V4.83531H8.19806V4.27492ZM19.2261 5.95608L17.4858 11.1767C17.4487 11.2884 17.3774 11.3855 17.282 11.4543C17.1866 11.5231 17.0719 11.5601 16.9543 11.56H13.802V10.9996C13.802 10.6901 13.5511 10.4392 13.2416 10.4392H8.75845C8.44893 10.4392 8.19806 10.6901 8.19806 10.9996V11.56H5.04572C4.9281 11.5601 4.81343 11.5231 4.71801 11.4543C4.6226 11.3855 4.5513 11.2884 4.51425 11.1767L2.77398 5.95608H19.2261ZM12.6812 11.56V12.6808H9.31884V11.56H12.6812ZM19.4432 17.7243C19.4432 18.0332 19.1918 18.2846 18.8828 18.2846H3.1172C2.80824 18.2846 2.55681 18.0332 2.55681 17.7243V8.84896L3.45097 11.5312C3.56222 11.8661 3.77618 12.1575 4.06246 12.3638C4.34874 12.5702 4.69278 12.6811 5.04569 12.6808H8.19806V13.2411C8.19806 13.5507 8.44893 13.8015 8.75845 13.8015H13.2416C13.5511 13.8015 13.802 13.5507 13.802 13.2411V12.6808H16.9543C17.3072 12.6811 17.6512 12.5702 17.9375 12.3638C18.2238 12.1575 18.4378 11.8661 18.549 11.5312L19.4432 8.84896V17.7243Z" fill="#FD7E14"/>
</svg>
