<svg width="23" height="10" viewBox="0 0 23 10" fill="none" xmlns="http://www.w3.org/2000/svg">
<path d="M4.96484 6.80273C4.96484 6.62695 4.9375 6.4707 4.88281 6.33398C4.83203 6.19727 4.74023 6.07227 4.60742 5.95898C4.47461 5.8457 4.28711 5.73633 4.04492 5.63086C3.80664 5.52148 3.50195 5.41016 3.13086 5.29688C2.72461 5.17188 2.34961 5.0332 2.00586 4.88086C1.66602 4.72461 1.36914 4.54492 1.11523 4.3418C0.861328 4.13477 0.664062 3.89844 0.523438 3.63281C0.382812 3.36328 0.3125 3.05273 0.3125 2.70117C0.3125 2.35352 0.384766 2.03711 0.529297 1.75195C0.677734 1.4668 0.886719 1.2207 1.15625 1.01367C1.42969 0.802734 1.75195 0.640625 2.12305 0.527344C2.49414 0.410156 2.9043 0.351562 3.35352 0.351562C3.98633 0.351562 4.53125 0.46875 4.98828 0.703125C5.44922 0.9375 5.80273 1.25195 6.04883 1.64648C6.29883 2.04102 6.42383 2.47656 6.42383 2.95312H4.96484C4.96484 2.67188 4.9043 2.42383 4.7832 2.20898C4.66602 1.99023 4.48633 1.81836 4.24414 1.69336C4.00586 1.56836 3.70312 1.50586 3.33594 1.50586C2.98828 1.50586 2.69922 1.55859 2.46875 1.66406C2.23828 1.76953 2.06641 1.91211 1.95312 2.0918C1.83984 2.27148 1.7832 2.47461 1.7832 2.70117C1.7832 2.86133 1.82031 3.00781 1.89453 3.14062C1.96875 3.26953 2.08203 3.39062 2.23438 3.50391C2.38672 3.61328 2.57812 3.7168 2.80859 3.81445C3.03906 3.91211 3.31055 4.00586 3.62305 4.0957C4.0957 4.23633 4.50781 4.39258 4.85938 4.56445C5.21094 4.73242 5.50391 4.92383 5.73828 5.13867C5.97266 5.35352 6.14844 5.59766 6.26562 5.87109C6.38281 6.14062 6.44141 6.44727 6.44141 6.79102C6.44141 7.15039 6.36914 7.47461 6.22461 7.76367C6.08008 8.04883 5.87305 8.29297 5.60352 8.49609C5.33789 8.69531 5.01758 8.84961 4.64258 8.95898C4.27148 9.06445 3.85742 9.11719 3.40039 9.11719C2.99023 9.11719 2.58594 9.0625 2.1875 8.95312C1.79297 8.84375 1.43359 8.67773 1.10938 8.45508C0.785156 8.22852 0.527344 7.94727 0.335938 7.61133C0.144531 7.27148 0.0488281 6.875 0.0488281 6.42188H1.51953C1.51953 6.69922 1.56641 6.93555 1.66016 7.13086C1.75781 7.32617 1.89258 7.48633 2.06445 7.61133C2.23633 7.73242 2.43555 7.82227 2.66211 7.88086C2.89258 7.93945 3.13867 7.96875 3.40039 7.96875C3.74414 7.96875 4.03125 7.91992 4.26172 7.82227C4.49609 7.72461 4.67188 7.58789 4.78906 7.41211C4.90625 7.23633 4.96484 7.0332 4.96484 6.80273ZM11.0645 1.60547L8.51562 9H6.97461L10.1855 0.46875H11.1699L11.0645 1.60547ZM13.1973 9L10.6426 1.60547L10.5312 0.46875H11.5215L14.7441 9H13.1973ZM13.0742 5.83594V7.00195H8.43359V5.83594H13.0742ZM15.6992 0.46875H18.7168C19.3652 0.46875 19.918 0.566406 20.375 0.761719C20.832 0.957031 21.1816 1.24609 21.4238 1.62891C21.6699 2.00781 21.793 2.47656 21.793 3.03516C21.793 3.46094 21.7148 3.83594 21.5586 4.16016C21.4023 4.48438 21.1816 4.75781 20.8965 4.98047C20.6113 5.19922 20.2715 5.36914 19.877 5.49023L19.4316 5.70703H16.7188L16.707 4.54102H18.7402C19.0918 4.54102 19.3848 4.47852 19.6191 4.35352C19.8535 4.22852 20.0293 4.05859 20.1465 3.84375C20.2676 3.625 20.3281 3.37891 20.3281 3.10547C20.3281 2.80859 20.2695 2.55078 20.1523 2.33203C20.0391 2.10938 19.8633 1.93945 19.625 1.82227C19.3867 1.70117 19.084 1.64062 18.7168 1.64062H17.1699V9H15.6992V0.46875ZM20.5684 9L18.5645 5.16797L20.1055 5.16211L22.1387 8.92383V9H20.5684Z" fill="#FD7E14"/>
</svg>
