<svg width="24" height="24" viewBox="0 0 24 24" fill="none" xmlns="http://www.w3.org/2000/svg">
<path d="M6.00047 3.99804C7.67047 2.74804 9.75046 1.99805 12.0005 1.99805C17.5204 1.99805 22.0004 6.47803 22.0004 11.998C22.0004 17.518 17.5204 21.998 12.0005 21.998C6.48047 21.998 2.00049 17.518 2.00049 11.998C2.00049 10.188 2.48047 8.48801 3.33047 7.01802L12.0005 11.998" stroke="#FD7E14" stroke-width="1.5" stroke-miterlimit="10" stroke-linecap="round" stroke-linejoin="round"/>
<path d="M6.82974 8.96291C6.29974 9.85291 5.99976 10.8929 5.99976 12.0029C5.99976 15.3129 8.68975 18.0029 11.9997 18.0029C15.3097 18.0029 17.9997 15.3129 17.9997 12.0029C17.9997 8.69292 15.3097 6.00293 11.9997 6.00293C11.0897 6.00293 10.2198 6.20294 9.44976 6.57294" stroke="#FD7E14" stroke-width="1.5" stroke-miterlimit="10" stroke-linecap="round" stroke-linejoin="round"/>
</svg>
