<svg width="22" height="17" viewBox="0 0 22 17" fill="none" xmlns="http://www.w3.org/2000/svg">
<path d="M19.9588 7.00757V2.00156C19.9588 0.89791 19.0801 0 18 0H4.00005C2.91994 0 2.04119 0.89791 2.04119 2.00156V7.00757C0.865734 7.34007 0 8.44209 0 9.74749V13.5512C0 13.9197 0.292445 14.2185 0.653125 14.2185H2.04119V15.4191C2.04119 15.7876 2.33363 16.0864 2.69431 16.0864C3.05499 16.0864 3.34744 15.7876 3.34744 15.4191V14.2185H18.6526V15.4191C18.6526 15.7876 18.945 16.0864 19.3057 16.0864C19.6664 16.0864 19.9588 15.7876 19.9588 15.4191V14.2185H21.3469C21.7076 14.2185 22 13.9197 22 13.5512V9.74749C22 8.44209 21.1342 7.34007 19.9588 7.00757ZM3.34744 2.00156C3.34744 1.6339 3.64023 1.33473 4.00005 1.33473H18C18.3598 1.33473 18.6526 1.6339 18.6526 2.00156V6.90431H17.1223V5.56471C17.1223 4.39985 16.1948 3.4522 15.0548 3.4522H12.4144C11.8676 3.4522 11.3701 3.67054 11 4.02595C10.63 3.67058 10.1325 3.4522 9.58573 3.4522H6.94525C5.80525 3.4522 4.87781 4.3999 4.87781 5.56471V6.90431H3.34744V2.00156ZM15.816 5.56471V6.90431H11.6531V5.56471C11.6531 5.1358 11.9946 4.78692 12.4143 4.78692H15.0548C15.4746 4.78692 15.816 5.13584 15.816 5.56471ZM10.3468 5.56471V6.90431H6.18393V5.56471C6.18393 5.1358 6.52545 4.78692 6.94513 4.78692H9.5856C10.0054 4.78692 10.3468 5.13584 10.3468 5.56471ZM20.6938 12.8838H1.30625V9.74749C1.30625 8.91575 1.96848 8.23903 2.78253 8.23903H19.2175C20.0315 8.23903 20.6938 8.9157 20.6938 9.74749V12.8838Z" fill="#FD7E14"/>
</svg>
