<svg width="22" height="22" viewBox="0 0 22 22" fill="none" xmlns="http://www.w3.org/2000/svg">
<g clip-path="url(#clip0_2823_5130)">
<path d="M11 5.50033C12.2636 5.50033 13.2916 4.47228 13.2916 3.20866C13.2916 1.94503 12.2636 0.916992 11 0.916992C9.73633 0.916992 8.70829 1.94503 8.70829 3.20866C8.70829 4.47228 9.73633 5.50033 11 5.50033ZM11 1.83366C11.758 1.83366 12.375 2.45058 12.375 3.20866C12.375 3.96674 11.758 4.58366 11 4.58366C10.2419 4.58366 9.62496 3.96674 9.62496 3.20866C9.62496 2.45058 10.2419 1.83366 11 1.83366ZM12.8333 6.41699H9.16663C7.65 6.41699 6.41663 7.65037 6.41663 9.16699V13.7503C6.41663 14.5084 7.03354 15.1253 7.79163 15.1253H8.24996V19.4795C8.24996 20.3641 8.96954 21.0837 9.85413 21.0837C10.3033 21.0837 10.7085 20.8971 11 20.5987C11.1488 20.7521 11.3269 20.874 11.5237 20.9573C11.7206 21.0406 11.9321 21.0836 12.1458 21.0837C13.0304 21.0837 13.75 20.3641 13.75 19.4795V15.1253H14.2083C14.9664 15.1253 15.5833 14.5084 15.5833 13.7503V9.16699C15.5833 7.65037 14.3499 6.41699 12.8333 6.41699ZM14.6666 13.7503C14.6666 14.0029 14.4608 14.2087 14.2083 14.2087H13.75V9.62533C13.75 9.50377 13.7017 9.38719 13.6157 9.30123C13.5298 9.21528 13.4132 9.16699 13.2916 9.16699C13.1701 9.16699 13.0535 9.21528 12.9675 9.30123C12.8816 9.38719 12.8333 9.50377 12.8333 9.62533V19.4795C12.8333 19.8585 12.5248 20.167 12.1458 20.167C11.7668 20.167 11.4583 19.8585 11.4583 19.4795V14.667C11.4583 14.5454 11.41 14.4289 11.3241 14.3429C11.2381 14.2569 11.1215 14.2087 11 14.2087C10.8784 14.2087 10.7618 14.2569 10.6759 14.3429C10.5899 14.4289 10.5416 14.5454 10.5416 14.667V19.4795C10.5416 19.8585 10.2332 20.167 9.85413 20.167C9.47508 20.167 9.16663 19.8585 9.16663 19.4795V9.62533C9.16663 9.50377 9.11834 9.38719 9.03238 9.30123C8.94643 9.21528 8.82985 9.16699 8.70829 9.16699C8.58674 9.16699 8.47016 9.21528 8.3842 9.30123C8.29825 9.38719 8.24996 9.50377 8.24996 9.62533V14.2087H7.79163C7.53908 14.2087 7.33329 14.0029 7.33329 13.7503V9.16699C7.33329 8.15591 8.15554 7.33366 9.16663 7.33366H12.8333C13.8444 7.33366 14.6666 8.15591 14.6666 9.16699V13.7503Z" fill="#FD7E14"/>
<path d="M4.58329 6.41667C5.59438 6.41667 6.41663 5.59442 6.41663 4.58333C6.41663 3.57225 5.59438 2.75 4.58329 2.75C3.57221 2.75 2.74996 3.57225 2.74996 4.58333C2.74996 5.59442 3.57221 6.41667 4.58329 6.41667ZM4.58329 3.66667C5.08883 3.66667 5.49996 4.07779 5.49996 4.58333C5.49996 5.08888 5.08883 5.5 4.58329 5.5C4.07775 5.5 3.66663 5.08888 3.66663 4.58333C3.66663 4.07779 4.07775 3.66667 4.58329 3.66667ZM6.87496 16.0797V19.25C6.87496 20.0081 6.25804 20.625 5.49996 20.625C5.14658 20.625 4.82713 20.4875 4.58329 20.2675C4.33946 20.4875 4.02 20.625 3.66663 20.625C2.90854 20.625 2.29163 20.0081 2.29163 19.25V15.125C1.53354 15.125 0.916626 14.5081 0.916626 13.75V10.0833C0.916626 8.56671 2.15 7.33333 3.66663 7.33333H5.49996C5.62152 7.33333 5.7381 7.38162 5.82405 7.46758C5.91 7.55353 5.95829 7.67011 5.95829 7.79167C5.95829 7.91322 5.91 8.0298 5.82405 8.11576C5.7381 8.20171 5.62152 8.25 5.49996 8.25H3.66663C2.65554 8.25 1.83329 9.07225 1.83329 10.0833V13.75C1.83329 14.0025 2.03908 14.2083 2.29163 14.2083V11.9167C2.29163 11.7951 2.33991 11.6785 2.42587 11.5926C2.51182 11.5066 2.6284 11.4583 2.74996 11.4583C2.87152 11.4583 2.9881 11.5066 3.07405 11.5926C3.16 11.6785 3.20829 11.7951 3.20829 11.9167V19.25C3.20829 19.5025 3.41408 19.7083 3.66663 19.7083C3.91917 19.7083 4.12496 19.5025 4.12496 19.25V17.4167C4.12496 17.2951 4.17325 17.1785 4.2592 17.0926C4.34516 17.0066 4.46174 16.9583 4.58329 16.9583C4.70485 16.9583 4.82143 17.0066 4.90738 17.0926C4.99334 17.1785 5.04163 17.2951 5.04163 17.4167V19.25C5.04163 19.5025 5.24742 19.7083 5.49996 19.7083C5.7525 19.7083 5.95829 19.5025 5.95829 19.25V16.0797C5.95829 15.9582 6.00658 15.8416 6.09254 15.7556C6.17849 15.6697 6.29507 15.6214 6.41663 15.6214C6.53818 15.6214 6.65476 15.6697 6.74072 15.7556C6.82667 15.8416 6.87496 15.9582 6.87496 16.0797ZM17.4166 6.41667C18.4277 6.41667 19.25 5.59442 19.25 4.58333C19.25 3.57225 18.4277 2.75 17.4166 2.75C16.4055 2.75 15.5833 3.57225 15.5833 4.58333C15.5833 5.59442 16.4055 6.41667 17.4166 6.41667ZM17.4166 3.66667C17.9222 3.66667 18.3333 4.07779 18.3333 4.58333C18.3333 5.08888 17.9222 5.5 17.4166 5.5C16.9111 5.5 16.5 5.08888 16.5 4.58333C16.5 4.07779 16.9111 3.66667 17.4166 3.66667ZM21.0833 10.0833V13.75C21.0833 14.5081 20.4664 15.125 19.7083 15.125V19.25C19.7083 20.0081 19.0914 20.625 18.3333 20.625C17.9799 20.625 17.6605 20.4875 17.4166 20.2675C17.1728 20.4875 16.8533 20.625 16.5 20.625C15.7419 20.625 15.125 20.0081 15.125 19.25V16.0797C15.125 15.9582 15.1732 15.8416 15.2592 15.7556C15.3452 15.6697 15.4617 15.6214 15.5833 15.6214C15.7048 15.6214 15.8214 15.6697 15.9074 15.7556C15.9933 15.8416 16.0416 15.9582 16.0416 16.0797V19.25C16.0416 19.5025 16.2474 19.7083 16.5 19.7083C16.7525 19.7083 16.9583 19.5025 16.9583 19.25V17.4167C16.9583 17.2951 17.0066 17.1785 17.0925 17.0926C17.1785 17.0066 17.2951 16.9583 17.4166 16.9583C17.5382 16.9583 17.6548 17.0066 17.7407 17.0926C17.8267 17.1785 17.875 17.2951 17.875 17.4167V19.25C17.875 19.5025 18.0807 19.7083 18.3333 19.7083C18.5858 19.7083 18.7916 19.5025 18.7916 19.25V11.9167C18.7916 11.7951 18.8399 11.6785 18.9259 11.5926C19.0118 11.5066 19.1284 11.4583 19.25 11.4583C19.3715 11.4583 19.4881 11.5066 19.574 11.5926C19.66 11.6785 19.7083 11.7951 19.7083 11.9167V14.2083C19.9608 14.2083 20.1666 14.0025 20.1666 13.75V10.0833C20.1666 9.07225 19.3444 8.25 18.3333 8.25H16.5C16.3784 8.25 16.2618 8.20171 16.1759 8.11576C16.0899 8.0298 16.0416 7.91322 16.0416 7.79167C16.0416 7.67011 16.0899 7.55353 16.1759 7.46758C16.2618 7.38162 16.3784 7.33333 16.5 7.33333H18.3333C19.8499 7.33333 21.0833 8.56671 21.0833 10.0833Z" fill="#FD7E14"/>
</g>
<defs>
<clipPath id="clip0_2823_5130">
<rect width="22" height="22" fill="white"/>
</clipPath>
</defs>
</svg>
