<svg width="22" height="22" viewBox="0 0 22 22" fill="none" xmlns="http://www.w3.org/2000/svg">
<path d="M15.1538 6.81931C15.238 6.71887 15.2814 6.59054 15.2756 6.45963C15.2698 6.32872 15.2151 6.20475 15.1224 6.11217C15.0739 6.06361 15.0164 6.02509 14.953 5.9988C14.8896 5.97251 14.8217 5.95898 14.7531 5.95898C14.6845 5.95898 14.6166 5.97251 14.5532 5.9988C14.4898 6.02509 14.4323 6.06361 14.3838 6.11217C14.279 6.21693 13.7867 6.8036 14.2581 8.21788C14.5043 8.96693 14.3681 9.25503 14.3786 9.25503C14.1743 9.45931 14.1795 9.78931 14.3786 9.9936C14.4833 10.0984 14.6143 10.1455 14.7505 10.1455C14.8867 10.1455 15.0176 10.0931 15.1224 9.9936C15.2271 9.88884 15.7195 9.30217 15.2481 7.88788C15.0071 7.15455 15.1329 6.86122 15.1538 6.81931ZM17.3381 6.81931C17.4223 6.71887 17.4657 6.59054 17.4599 6.45963C17.4541 6.32872 17.3994 6.20475 17.3067 6.11217C17.2582 6.06361 17.2006 6.02509 17.1373 5.9988C17.0739 5.97251 17.006 5.95898 16.9374 5.95898C16.8688 5.95898 16.8008 5.97251 16.7375 5.9988C16.6741 6.02509 16.6166 6.06361 16.5681 6.11217C16.4633 6.21693 15.971 6.8036 16.4424 8.21788C16.6886 8.96693 16.5524 9.25503 16.5629 9.25503C16.3586 9.45931 16.3638 9.78931 16.5629 9.9936C16.6676 10.0984 16.7986 10.1455 16.9348 10.1455C17.071 10.1455 17.2019 10.0931 17.3067 9.9936C17.4114 9.88884 17.9038 9.30217 17.4324 7.88788C17.1862 7.15455 17.3171 6.86122 17.3381 6.81931Z" fill="#FD7E14"/>
<path d="M11 -4.37101e-07C7.97762 -4.37101e-07 5.23286 1.22571 3.24238 3.21095C3.23714 3.21619 3.22667 3.21619 3.22143 3.22143C3.21619 3.22667 3.21619 3.23714 3.21095 3.24238C1.22571 5.23286 0 7.97762 0 11C0 17.0657 4.93429 22 11 22C14.0224 22 16.7671 20.7743 18.7576 18.789C18.7629 18.7838 18.7681 18.7838 18.7786 18.7786C18.789 18.7733 18.7838 18.7681 18.789 18.7576C20.7743 16.7671 22 14.0224 22 11C22 4.93429 17.0657 -4.37101e-07 11 -4.37101e-07ZM11 20.9524C5.51048 20.9524 1.04762 16.4895 1.04762 11C1.04762 8.44381 2.76048 5.37952 4.35286 3.61429L10.1671 11.2619H3.66667C3.37857 11.2619 3.14286 11.4976 3.14286 11.7857V14.1429C3.14286 14.431 3.37857 14.6667 3.66667 14.6667H13.5719L18.3857 17.6471C16.6205 19.2395 13.5562 20.9524 11 20.9524ZM11.2148 12.3095L12.5243 13.619L4.19048 13.619V12.3095L11.2148 12.3095ZM11.2148 12.3095L14.4048 12.3095V13.619L12.5243 13.619L11.2148 12.3095ZM18.3857 17.6471L13.5719 14.6667H17.2857C17.5738 14.6667 17.8095 14.431 17.8095 14.1429V11.7857C17.8095 11.4976 17.5738 11.2619 17.2857 11.2619H10.1671L4.35286 3.61429C6.1181 2.0219 8.44381 1.04762 11 1.04762C16.4895 1.04762 20.9524 5.51048 20.9524 11C20.9524 13.5562 19.9781 15.8819 18.3857 17.6471ZM15.4524 13.619V12.3095H16.7619V13.619H15.4524Z" fill="#FD7E14"/>
</svg>
