<svg width="24" height="24" viewBox="0 0 24 24" fill="none" xmlns="http://www.w3.org/2000/svg">
<path d="M12 6.05C13.4061 6.05 14.55 4.90611 14.55 3.5C14.55 2.09389 13.4061 0.95 12 0.95C10.5939 0.95 9.45 2.09389 9.45 3.5C9.45 4.90611 10.5939 6.05 12 6.05ZM12 2.05C12.7994 2.05 13.45 2.70061 13.45 3.5C13.45 4.29939 12.7994 4.95 12 4.95C11.2006 4.95 10.55 4.29939 10.55 3.5C10.55 2.70061 11.2006 2.05 12 2.05ZM14 6.95H10C8.31789 6.95 6.95 8.31789 6.95 10V15C6.95 15.8546 7.64539 16.55 8.5 16.55H8.95V21.25C8.95 22.2426 9.75739 23.05 10.75 23.05C11.236 23.05 11.676 22.8554 11.9999 22.5417C12.1594 22.697 12.3466 22.8213 12.5519 22.9082C12.7728 23.0017 13.0101 23.0499 13.25 23.05C14.2426 23.05 15.05 22.2426 15.05 21.25V16.55H15.5C16.3546 16.55 17.05 15.8546 17.05 15V10C17.05 8.31789 15.6821 6.95 14 6.95ZM15.95 15C15.95 15.2479 15.7479 15.45 15.5 15.45H15.05V10.5C15.05 10.3541 14.9921 10.2142 14.8889 10.1111C14.7858 10.0079 14.6459 9.95 14.5 9.95C14.3541 9.95 14.2142 10.0079 14.1111 10.1111C14.0079 10.2142 13.95 10.3541 13.95 10.5V21.25C13.95 21.6359 13.6359 21.95 13.25 21.95C12.8641 21.95 12.55 21.6359 12.55 21.25V16C12.55 15.8541 12.4921 15.7142 12.3889 15.6111C12.2858 15.5079 12.1459 15.45 12 15.45C11.8541 15.45 11.7142 15.5079 11.6111 15.6111C11.5079 15.7142 11.45 15.8541 11.45 16V21.25C11.45 21.6359 11.1359 21.95 10.75 21.95C10.3641 21.95 10.05 21.6359 10.05 21.25V10.5C10.05 10.3541 9.99205 10.2142 9.88891 10.1111C9.78576 10.0079 9.64587 9.95 9.5 9.95C9.35413 9.95 9.21424 10.0079 9.11109 10.1111C9.00795 10.2142 8.95 10.3541 8.95 10.5V15.45H8.5C8.25211 15.45 8.05 15.2479 8.05 15V10C8.05 8.92461 8.92461 8.05 10 8.05H14C15.0754 8.05 15.95 8.92461 15.95 10V15Z" fill="#FD7E14" stroke="#FD7E14" stroke-width="0.1"/>
</svg>
