<svg width="22" height="22" viewBox="0 0 22 22" fill="none" xmlns="http://www.w3.org/2000/svg">
<mask id="path-1-inside-1_2512_9083" fill="white">
<path fill-rule="evenodd" clip-rule="evenodd" d="M14.3 22H7.7C2.2 22 0 19.8 0 14.3V7.7C0 2.2 2.2 0 7.7 0H14.3C19.8 0 22 2.2 22 7.7V14.3C22 19.8 19.8 22 14.3 22ZM15.7799 8.70091C16.0731 8.40828 16.0735 7.9334 15.7809 7.64025C15.4882 7.3471 15.0133 7.34668 14.7202 7.63931L9.58052 12.7699L7.28039 10.4698C6.98749 10.1769 6.51262 10.1769 6.21973 10.4698C5.92683 10.7627 5.92683 11.2375 6.21973 11.5304L9.04973 14.3604C9.34244 14.6532 9.81695 14.6534 10.1099 14.3609L15.7799 8.70091Z"/>
</mask>
<path fill-rule="evenodd" clip-rule="evenodd" d="M14.3 22H7.7C2.2 22 0 19.8 0 14.3V7.7C0 2.2 2.2 0 7.7 0H14.3C19.8 0 22 2.2 22 7.7V14.3C22 19.8 19.8 22 14.3 22ZM15.7799 8.70091C16.0731 8.40828 16.0735 7.9334 15.7809 7.64025C15.4882 7.3471 15.0133 7.34668 14.7202 7.63931L9.58052 12.7699L7.28039 10.4698C6.98749 10.1769 6.51262 10.1769 6.21973 10.4698C5.92683 10.7627 5.92683 11.2375 6.21973 11.5304L9.04973 14.3604C9.34244 14.6532 9.81695 14.6534 10.1099 14.3609L15.7799 8.70091Z" fill="#FD7E14"/>
<path d="M15.7809 7.64025L16.8424 6.58053L16.8424 6.58053L15.7809 7.64025ZM15.7799 8.70091L16.8396 9.76251L15.7799 8.70091ZM14.7202 7.63931L13.6605 6.57772L13.6605 6.57772L14.7202 7.63931ZM9.58052 12.7699L8.51986 13.8306C9.10528 14.416 10.0543 14.4164 10.6402 13.8315L9.58052 12.7699ZM7.28039 10.4698L8.34105 9.40912L8.34104 9.40912L7.28039 10.4698ZM6.21973 10.4698L5.15907 9.40912L5.15906 9.40912L6.21973 10.4698ZM6.21973 11.5304L5.15906 12.5911L5.15907 12.5911L6.21973 11.5304ZM9.04973 14.3604L7.98907 15.4211L7.98907 15.4211L9.04973 14.3604ZM10.1099 14.3609L11.1696 15.4225H11.1696L10.1099 14.3609ZM7.7 23.5H14.3V20.5H7.7V23.5ZM-1.5 14.3C-1.5 17.1979 -0.929598 19.6167 0.72684 21.2732C2.38328 22.9296 4.80206 23.5 7.7 23.5V20.5C5.09794 20.5 3.66672 19.9704 2.84816 19.1518C2.0296 18.3333 1.5 16.9021 1.5 14.3H-1.5ZM-1.5 7.7V14.3H1.5V7.7H-1.5ZM7.7 -1.5C4.80206 -1.5 2.38328 -0.929598 0.72684 0.72684C-0.929598 2.38328 -1.5 4.80206 -1.5 7.7H1.5C1.5 5.09794 2.0296 3.66672 2.84816 2.84816C3.66672 2.0296 5.09794 1.5 7.7 1.5V-1.5ZM14.3 -1.5H7.7V1.5H14.3V-1.5ZM23.5 7.7C23.5 4.80206 22.9296 2.38328 21.2732 0.72684C19.6167 -0.929598 17.1979 -1.5 14.3 -1.5V1.5C16.9021 1.5 18.3333 2.0296 19.1518 2.84816C19.9704 3.66672 20.5 5.09794 20.5 7.7H23.5ZM23.5 14.3V7.7H20.5V14.3H23.5ZM14.3 23.5C17.1979 23.5 19.6167 22.9296 21.2732 21.2732C22.9296 19.6167 23.5 17.1979 23.5 14.3H20.5C20.5 16.9021 19.9704 18.3333 19.1518 19.1518C18.3333 19.9704 16.9021 20.5 14.3 20.5V23.5ZM14.7193 8.69997C14.4266 8.40682 14.427 7.93195 14.7202 7.63932L16.8396 9.76251C17.7191 8.8846 17.7204 7.45998 16.8424 6.58053L14.7193 8.69997ZM15.7799 8.70091C15.4868 8.99355 15.0119 8.99313 14.7193 8.69998L16.8424 6.58053C15.9645 5.70107 14.5399 5.69982 13.6605 6.57772L15.7799 8.70091ZM10.6402 13.8315L15.7799 8.70091L13.6605 6.57772L8.5208 11.7083L10.6402 13.8315ZM6.21973 11.5304L8.51986 13.8306L10.6412 11.7093L8.34105 9.40912L6.21973 11.5304ZM7.28038 11.5304C6.98749 11.8233 6.51262 11.8233 6.21973 11.5304L8.34104 9.40912C7.46237 8.53044 6.03775 8.53044 5.15907 9.40912L7.28038 11.5304ZM7.28039 10.4698C7.57328 10.7627 7.57328 11.2375 7.28039 11.5304L5.15906 9.40912C4.28039 10.2878 4.28039 11.7124 5.15906 12.5911L7.28039 10.4698ZM10.1104 13.2998L7.28039 10.4698L5.15907 12.5911L7.98907 15.4211L10.1104 13.2998ZM9.05019 13.2993C9.34316 13.0069 9.81767 13.0071 10.1104 13.2998L7.98907 15.4211C8.8672 16.2992 10.2907 16.2999 11.1696 15.4225L9.05019 13.2993ZM14.7202 7.63931L9.05019 13.2993L11.1696 15.4225L16.8396 9.76251L14.7202 7.63931Z" fill="#FD7E14" mask="url(#path-1-inside-1_2512_9083)"/>
</svg>
