<svg width="22" height="24" viewBox="0 0 22 24" fill="none" xmlns="http://www.w3.org/2000/svg">
<g clip-path="url(#clip0_2975_8652)">
<path d="M16.705 16.5767H12.1406V13.0788C12.1406 12.4348 12.6515 11.9128 13.2817 11.9128H15.5639C16.1941 11.9128 16.705 12.4348 16.705 13.0788V16.5767Z" stroke="#FD7E14" stroke-width="1.2" stroke-miterlimit="10"/>
<path d="M10.4999 8.22119C10.776 8.22119 11.0054 7.9948 10.948 7.72467C10.7253 6.67533 9.81139 5.88928 8.71771 5.88928C7.62403 5.88928 6.71008 6.67533 6.48739 7.72467C6.43006 7.9948 6.6594 8.22119 6.93555 8.22119H10.4999Z" stroke="#FD7E14" stroke-width="1.2" stroke-miterlimit="10"/>
<path d="M8.71713 5.88854C8.71713 4.60066 7.69537 3.55662 6.43497 3.55662H5.29388C4.03348 3.55662 3.01172 4.60066 3.01172 5.88854V13.0786" stroke="#FD7E14" stroke-width="1.2" stroke-miterlimit="10"/>
<path d="M3.01172 15.4109V17.7428C3.01172 19.6747 4.54435 21.2407 6.43497 21.2407H15.5636C17.4543 21.2407 18.9869 19.6747 18.9869 17.7428V15.4109" stroke="#FD7E14" stroke-width="1.2" stroke-miterlimit="10"/>
<path d="M18.2752 22.0418C18.5069 22.2786 18.5028 22.6585 18.266 22.8902C18.0292 23.122 17.6493 23.1179 17.4175 22.8811L18.2752 22.0418ZM16.9874 20.7259L18.2752 22.0418L17.4175 22.8811L16.1298 21.5653L16.9874 20.7259Z" fill="#FD7E14"/>
<path d="M4.58213 22.8811C4.35036 23.1179 3.97048 23.122 3.73366 22.8902C3.49683 22.6585 3.49273 22.2786 3.72451 22.0418L4.58213 22.8811ZM5.86988 21.5653L4.58213 22.8811L3.72451 22.0418L5.01226 20.7259L5.86988 21.5653Z" fill="#FD7E14"/>
<path d="M16.7051 13.0787H19.0253C19.6555 13.0787 20.1664 13.6007 20.1664 14.2447C20.1664 14.8886 19.6555 15.4106 19.0253 15.4106H16.7051" stroke="#FD7E14" stroke-width="1.2" stroke-miterlimit="10"/>
<path d="M12.1408 15.4106H2.97409C2.34391 15.4106 1.83301 14.8886 1.83301 14.2447C1.83301 13.6007 2.34391 13.0787 2.97409 13.0787H12.1408" stroke="#FD7E14" stroke-width="1.2" stroke-miterlimit="10"/>
</g>
<defs>
<clipPath id="clip0_2975_8652">
<rect width="22" height="22.4796" fill="white" transform="translate(0 0.760254)"/>
</clipPath>
</defs>
</svg>
