<svg width="20" height="16" viewBox="0 0 20 16" fill="none" xmlns="http://www.w3.org/2000/svg">
<path d="M18.1445 7.05856V2.5076C18.1445 1.50428 17.3456 0.687988 16.3637 0.687988H3.63644C2.65451 0.687988 1.85564 1.50428 1.85564 2.5076V7.05856C0.787038 7.36083 0 8.36268 0 9.54942V13.0073C0 13.3424 0.265862 13.614 0.593755 13.614H1.85564V14.7054C1.85564 15.0405 2.1215 15.3121 2.44939 15.3121C2.77729 15.3121 3.04315 15.0405 3.04315 14.7054V13.614H16.957V14.7054C16.957 15.0405 17.2229 15.3121 17.5508 15.3121C17.8787 15.3121 18.1445 15.0405 18.1445 14.7054V13.614H19.4064C19.7343 13.614 20.0002 13.3424 20.0002 13.0073V9.54942C20.0002 8.36268 19.2131 7.36083 18.1445 7.05856ZM3.04315 2.5076C3.04315 2.17336 3.30932 1.90139 3.63644 1.90139H16.3638C16.6909 1.90139 16.9571 2.17336 16.9571 2.5076V6.96468H15.5658V5.74685C15.5658 4.68789 14.7227 3.82638 13.6863 3.82638H11.2859C10.7888 3.82638 10.3366 4.02487 10.0001 4.34798C9.66367 4.02491 9.2114 3.82638 8.71437 3.82638H6.31392C5.27754 3.82638 4.43441 4.68793 4.43441 5.74685V6.96468H3.04315V2.5076ZM14.3783 5.74685V6.96468H10.5938V5.74685C10.5938 5.35693 10.9043 5.03977 11.2858 5.03977H13.6863C14.0679 5.03977 14.3783 5.35697 14.3783 5.74685ZM9.40629 5.74685V6.96468H5.6218V5.74685C5.6218 5.35693 5.93228 5.03977 6.3138 5.03977H8.71425C9.09586 5.03977 9.40629 5.35697 9.40629 5.74685ZM18.8127 12.4006H1.18751V9.54942C1.18751 8.79328 1.78955 8.17808 2.52959 8.17808H17.4706C18.2106 8.17808 18.8127 8.79324 18.8127 9.54942V12.4006Z" fill="#FD7E14"/>
</svg>
