<svg width="61" height="62" viewBox="0 0 61 62" fill="none" xmlns="http://www.w3.org/2000/svg">
<path d="M41.875 19.25C45.1869 19.25 48 21.9406 48 25.375V30.625H45.375V32.375H43.625V30.625H17.375V32.375H15.625V30.625H13V25.375C13 22.0631 15.7178 19.25 19.125 19.25H41.875ZM40.125 9.625C42.4779 9.625 44.5 11.5167 44.5 14V18.1807C43.6966 17.7357 42.7935 17.5015 41.875 17.5L40.125 17.4991C40.125 16.0003 38.8983 14.875 37.5 14.875H32.25C31.578 14.875 30.9638 15.1279 30.5 15.5435C30.0192 15.1122 29.3959 14.8741 28.75 14.875H23.5C22.804 14.875 22.1364 15.1514 21.6442 15.6435C21.1519 16.1356 20.8752 16.8031 20.875 17.4991L19.125 17.5C18.1852 17.5 17.2962 17.7441 16.5 18.1799V14C16.5 11.6471 18.3874 9.625 20.875 9.625H40.125ZM28.75 16.625C29.2251 16.625 29.625 17.0625 29.625 17.5L22.625 17.4991C22.625 16.9636 23.0511 16.625 23.5 16.625H28.75ZM37.5 16.6311C37.9953 16.6241 38.375 17.0511 38.375 17.4991H31.375C31.375 16.9566 31.8011 16.625 32.25 16.625L37.5 16.6311Z" fill="#FD7E14"/>
<path d="M10.0664 54.1445H7.89258L7.88086 53.0723H9.7793C10.0996 53.0723 10.3711 53.0254 10.5938 52.9316C10.8203 52.834 10.9922 52.6953 11.1094 52.5156C11.2266 52.332 11.2852 52.1113 11.2852 51.8535C11.2852 51.5684 11.2305 51.3359 11.1211 51.1562C11.0117 50.9766 10.8438 50.8457 10.6172 50.7637C10.3945 50.6816 10.1094 50.6406 9.76172 50.6406H8.33789V58H6.86719V49.4688H9.76172C10.2305 49.4688 10.6484 49.5137 11.0156 49.6035C11.3867 49.6934 11.7012 49.834 11.959 50.0254C12.2207 50.2129 12.418 50.4512 12.5508 50.7402C12.6875 51.0293 12.7559 51.373 12.7559 51.7715C12.7559 52.123 12.6719 52.4453 12.5039 52.7383C12.3359 53.0273 12.0879 53.2637 11.7598 53.4473C11.4316 53.6309 11.0234 53.7402 10.5352 53.7754L10.0664 54.1445ZM10.002 58H7.42969L8.0918 56.834H10.002C10.334 56.834 10.6113 56.7793 10.834 56.6699C11.0566 56.5566 11.2227 56.4023 11.332 56.207C11.4453 56.0078 11.502 55.7754 11.502 55.5098C11.502 55.2324 11.4531 54.9922 11.3555 54.7891C11.2578 54.582 11.1035 54.4238 10.8926 54.3145C10.6816 54.2012 10.4062 54.1445 10.0664 54.1445H8.41406L8.42578 53.0723H10.5762L10.9102 53.4766C11.3789 53.4922 11.7637 53.5957 12.0645 53.7871C12.3691 53.9785 12.5957 54.2266 12.7441 54.5312C12.8926 54.8359 12.9668 55.1641 12.9668 55.5156C12.9668 56.0586 12.8477 56.5137 12.6094 56.8809C12.375 57.248 12.0371 57.5273 11.5957 57.7188C11.1543 57.9062 10.623 58 10.002 58ZM17.1035 58.1172C16.6348 58.1172 16.2109 58.041 15.832 57.8887C15.457 57.7324 15.1367 57.5156 14.8711 57.2383C14.6094 56.9609 14.4082 56.6348 14.2676 56.2598C14.127 55.8848 14.0566 55.4805 14.0566 55.0469V54.8125C14.0566 54.3164 14.1289 53.8672 14.2734 53.4648C14.418 53.0625 14.6191 52.7188 14.877 52.4336C15.1348 52.1445 15.4395 51.9238 15.791 51.7715C16.1426 51.6191 16.5234 51.543 16.9336 51.543C17.3867 51.543 17.7832 51.6191 18.123 51.7715C18.4629 51.9238 18.7441 52.1387 18.9668 52.416C19.1934 52.6895 19.3613 53.0156 19.4707 53.3945C19.584 53.7734 19.6406 54.1914 19.6406 54.6484V55.252H14.7422V54.2383H18.2461V54.127C18.2383 53.873 18.1875 53.6348 18.0938 53.4121C18.0039 53.1895 17.8652 53.0098 17.6777 52.873C17.4902 52.7363 17.2402 52.668 16.9277 52.668C16.6934 52.668 16.4844 52.7188 16.3008 52.8203C16.1211 52.918 15.9707 53.0605 15.8496 53.248C15.7285 53.4355 15.6348 53.6621 15.5684 53.9277C15.5059 54.1895 15.4746 54.4844 15.4746 54.8125V55.0469C15.4746 55.3242 15.5117 55.582 15.5859 55.8203C15.6641 56.0547 15.7773 56.2598 15.9258 56.4355C16.0742 56.6113 16.2539 56.75 16.4648 56.8516C16.6758 56.9492 16.916 56.998 17.1855 56.998C17.5254 56.998 17.8281 56.9297 18.0938 56.793C18.3594 56.6562 18.5898 56.4629 18.7852 56.2129L19.5293 56.9336C19.3926 57.1328 19.2148 57.3242 18.9961 57.5078C18.7773 57.6875 18.5098 57.834 18.1934 57.9473C17.8809 58.0605 17.5176 58.1172 17.1035 58.1172ZM24.6094 56.6875V49H26.0273V58H24.7441L24.6094 56.6875ZM20.4844 54.9004V54.7773C20.4844 54.2969 20.541 53.8594 20.6543 53.4648C20.7676 53.0664 20.9316 52.7246 21.1465 52.4395C21.3613 52.1504 21.623 51.9297 21.9316 51.7773C22.2402 51.6211 22.5879 51.543 22.9746 51.543C23.3574 51.543 23.6934 51.6172 23.9824 51.7656C24.2715 51.9141 24.5176 52.127 24.7207 52.4043C24.9238 52.6777 25.0859 53.0059 25.207 53.3887C25.3281 53.7676 25.4141 54.1895 25.4648 54.6543V55.0469C25.4141 55.5 25.3281 55.9141 25.207 56.2891C25.0859 56.6641 24.9238 56.9883 24.7207 57.2617C24.5176 57.5352 24.2695 57.7461 23.9766 57.8945C23.6875 58.043 23.3496 58.1172 22.9629 58.1172C22.5801 58.1172 22.2344 58.0371 21.9258 57.877C21.6211 57.7168 21.3613 57.4922 21.1465 57.2031C20.9316 56.9141 20.7676 56.5742 20.6543 56.1836C20.541 55.7891 20.4844 55.3613 20.4844 54.9004ZM21.8965 54.7773V54.9004C21.8965 55.1895 21.9219 55.459 21.9727 55.709C22.0273 55.959 22.1113 56.1797 22.2246 56.3711C22.3379 56.5586 22.4844 56.707 22.6641 56.8164C22.8477 56.9219 23.0664 56.9746 23.3203 56.9746C23.6406 56.9746 23.9043 56.9043 24.1113 56.7637C24.3184 56.623 24.4805 56.4336 24.5977 56.1953C24.7188 55.9531 24.8008 55.6836 24.8438 55.3867V54.3262C24.8203 54.0957 24.7715 53.8809 24.6973 53.6816C24.627 53.4824 24.5312 53.3086 24.4102 53.1602C24.2891 53.0078 24.1387 52.8906 23.959 52.8086C23.7832 52.7227 23.5742 52.6797 23.332 52.6797C23.0742 52.6797 22.8555 52.7344 22.6758 52.8438C22.4961 52.9531 22.3477 53.1035 22.2305 53.2949C22.1172 53.4863 22.0332 53.709 21.9785 53.9629C21.9238 54.2168 21.8965 54.4883 21.8965 54.7773ZM28.9219 52.8672V58H27.5098V51.6602H28.8574L28.9219 52.8672ZM30.8613 51.6191L30.8496 52.9316C30.7637 52.916 30.6699 52.9043 30.5684 52.8965C30.4707 52.8887 30.373 52.8848 30.2754 52.8848C30.0332 52.8848 29.8203 52.9199 29.6367 52.9902C29.4531 53.0566 29.2988 53.1543 29.1738 53.2832C29.0527 53.4082 28.959 53.5605 28.8926 53.7402C28.8262 53.9199 28.7871 54.1211 28.7754 54.3438L28.4531 54.3672C28.4531 53.9688 28.4922 53.5996 28.5703 53.2598C28.6484 52.9199 28.7656 52.6211 28.9219 52.3633C29.082 52.1055 29.2812 51.9043 29.5195 51.7598C29.7617 51.6152 30.041 51.543 30.3574 51.543C30.4434 51.543 30.5352 51.5508 30.6328 51.5664C30.7344 51.582 30.8105 51.5996 30.8613 51.6191ZM31.3242 54.9004V54.7656C31.3242 54.3086 31.3906 53.8848 31.5234 53.4941C31.6562 53.0996 31.8477 52.7578 32.0977 52.4688C32.3516 52.1758 32.6602 51.9492 33.0234 51.7891C33.3906 51.625 33.8047 51.543 34.2656 51.543C34.7305 51.543 35.1445 51.625 35.5078 51.7891C35.875 51.9492 36.1855 52.1758 36.4395 52.4688C36.6934 52.7578 36.8867 53.0996 37.0195 53.4941C37.1523 53.8848 37.2188 54.3086 37.2188 54.7656V54.9004C37.2188 55.3574 37.1523 55.7812 37.0195 56.1719C36.8867 56.5625 36.6934 56.9043 36.4395 57.1973C36.1855 57.4863 35.877 57.7129 35.5137 57.877C35.1504 58.0371 34.7383 58.1172 34.2773 58.1172C33.8125 58.1172 33.3965 58.0371 33.0293 57.877C32.666 57.7129 32.3574 57.4863 32.1035 57.1973C31.8496 56.9043 31.6562 56.5625 31.5234 56.1719C31.3906 55.7812 31.3242 55.3574 31.3242 54.9004ZM32.7363 54.7656V54.9004C32.7363 55.1855 32.7656 55.4551 32.8242 55.709C32.8828 55.9629 32.9746 56.1855 33.0996 56.377C33.2246 56.5684 33.3848 56.7188 33.5801 56.8281C33.7754 56.9375 34.0078 56.9922 34.2773 56.9922C34.5391 56.9922 34.7656 56.9375 34.957 56.8281C35.1523 56.7188 35.3125 56.5684 35.4375 56.377C35.5625 56.1855 35.6543 55.9629 35.7129 55.709C35.7754 55.4551 35.8066 55.1855 35.8066 54.9004V54.7656C35.8066 54.4844 35.7754 54.2188 35.7129 53.9688C35.6543 53.7148 35.5605 53.4902 35.4316 53.2949C35.3066 53.0996 35.1465 52.9473 34.9512 52.8379C34.7598 52.7246 34.5312 52.668 34.2656 52.668C34 52.668 33.7695 52.7246 33.5742 52.8379C33.3828 52.9473 33.2246 53.0996 33.0996 53.2949C32.9746 53.4902 32.8828 53.7148 32.8242 53.9688C32.7656 54.2188 32.7363 54.4844 32.7363 54.7656ZM38.1328 54.9004V54.7656C38.1328 54.3086 38.1992 53.8848 38.332 53.4941C38.4648 53.0996 38.6562 52.7578 38.9062 52.4688C39.1602 52.1758 39.4688 51.9492 39.832 51.7891C40.1992 51.625 40.6133 51.543 41.0742 51.543C41.5391 51.543 41.9531 51.625 42.3164 51.7891C42.6836 51.9492 42.9941 52.1758 43.248 52.4688C43.502 52.7578 43.6953 53.0996 43.8281 53.4941C43.9609 53.8848 44.0273 54.3086 44.0273 54.7656V54.9004C44.0273 55.3574 43.9609 55.7812 43.8281 56.1719C43.6953 56.5625 43.502 56.9043 43.248 57.1973C42.9941 57.4863 42.6855 57.7129 42.3223 57.877C41.959 58.0371 41.5469 58.1172 41.0859 58.1172C40.6211 58.1172 40.2051 58.0371 39.8379 57.877C39.4746 57.7129 39.166 57.4863 38.9121 57.1973C38.6582 56.9043 38.4648 56.5625 38.332 56.1719C38.1992 55.7812 38.1328 55.3574 38.1328 54.9004ZM39.5449 54.7656V54.9004C39.5449 55.1855 39.5742 55.4551 39.6328 55.709C39.6914 55.9629 39.7832 56.1855 39.9082 56.377C40.0332 56.5684 40.1934 56.7188 40.3887 56.8281C40.584 56.9375 40.8164 56.9922 41.0859 56.9922C41.3477 56.9922 41.5742 56.9375 41.7656 56.8281C41.9609 56.7188 42.1211 56.5684 42.2461 56.377C42.3711 56.1855 42.4629 55.9629 42.5215 55.709C42.584 55.4551 42.6152 55.1855 42.6152 54.9004V54.7656C42.6152 54.4844 42.584 54.2188 42.5215 53.9688C42.4629 53.7148 42.3691 53.4902 42.2402 53.2949C42.1152 53.0996 41.9551 52.9473 41.7598 52.8379C41.5684 52.7246 41.3398 52.668 41.0742 52.668C40.8086 52.668 40.5781 52.7246 40.3828 52.8379C40.1914 52.9473 40.0332 53.0996 39.9082 53.2949C39.7832 53.4902 39.6914 53.7148 39.6328 53.9688C39.5742 54.2188 39.5449 54.4844 39.5449 54.7656ZM46.623 52.9492V58H45.2109V51.6602H46.541L46.623 52.9492ZM46.3945 54.5957L45.9141 54.5898C45.9141 54.1523 45.9688 53.748 46.0781 53.377C46.1875 53.0059 46.3477 52.6836 46.5586 52.4102C46.7695 52.1328 47.0312 51.9199 47.3438 51.7715C47.6602 51.6191 48.0254 51.543 48.4395 51.543C48.7285 51.543 48.9922 51.5859 49.2305 51.6719C49.4727 51.7539 49.6816 51.8848 49.8574 52.0645C50.0371 52.2441 50.1738 52.4746 50.2676 52.7559C50.3652 53.0371 50.4141 53.377 50.4141 53.7754V58H49.002V53.8984C49.002 53.5898 48.9551 53.3477 48.8613 53.1719C48.7715 52.9961 48.6406 52.8711 48.4688 52.7969C48.3008 52.7188 48.0996 52.6797 47.8652 52.6797C47.5996 52.6797 47.373 52.7305 47.1855 52.832C47.002 52.9336 46.8516 53.0723 46.7344 53.248C46.6172 53.4238 46.5312 53.627 46.4766 53.8574C46.4219 54.0879 46.3945 54.334 46.3945 54.5957ZM50.3262 54.2207L49.6641 54.3672C49.6641 53.9844 49.7168 53.623 49.8223 53.2832C49.9316 52.9395 50.0898 52.6387 50.2969 52.3809C50.5078 52.1191 50.7676 51.9141 51.0762 51.7656C51.3848 51.6172 51.7383 51.543 52.1367 51.543C52.4609 51.543 52.75 51.5879 53.0039 51.6777C53.2617 51.7637 53.4805 51.9004 53.6602 52.0879C53.8398 52.2754 53.9766 52.5195 54.0703 52.8203C54.1641 53.1172 54.2109 53.4766 54.2109 53.8984V58H52.793V53.8926C52.793 53.5723 52.7461 53.3242 52.6523 53.1484C52.5625 52.9727 52.4336 52.8516 52.2656 52.7852C52.0977 52.7148 51.8965 52.6797 51.6621 52.6797C51.4434 52.6797 51.25 52.7207 51.082 52.8027C50.918 52.8809 50.7793 52.9922 50.666 53.1367C50.5527 53.2773 50.4668 53.4395 50.4082 53.623C50.3535 53.8066 50.3262 54.0059 50.3262 54.2207Z" fill="#1F1F1F"/>
</svg>
