<svg width="22" height="23" viewBox="0 0 22 23" fill="none" xmlns="http://www.w3.org/2000/svg">
<path d="M20.167 5.61964V7.88633C20.167 9.36624 19.2503 10.3029 17.802 10.3029H14.667V3.75571C14.667 2.71603 15.5012 1.87305 16.5187 1.87305C17.5178 1.88241 18.4345 2.29454 19.0945 2.96892C19.7545 3.65268 20.167 4.58933 20.167 5.61964Z" stroke="#FD7E14" stroke-width="1.5" stroke-miterlimit="10" stroke-linecap="round" stroke-linejoin="round"/>
<path d="M1.83301 6.55629V19.6694C1.83301 20.4468 2.69467 20.887 3.29967 20.4187L4.86717 19.2198C5.23384 18.9388 5.74717 18.9763 6.07717 19.3135L7.59884 20.8777C7.95634 21.243 8.54301 21.243 8.90051 20.8777L10.4405 19.3041C10.7613 18.9763 11.2747 18.9388 11.6322 19.2198L13.1997 20.4187C13.8047 20.8777 14.6663 20.4374 14.6663 19.6694V3.74635C14.6663 2.71603 15.4913 1.87305 16.4997 1.87305H6.41634H5.49967C2.74967 1.87305 1.83301 3.54965 1.83301 5.61964V6.55629Z" stroke="#FD7E14" stroke-width="1.5" stroke-miterlimit="10" stroke-linecap="round" stroke-linejoin="round"/>
<path d="M8.25 12.1855H11" stroke="#FD7E14" stroke-width="1.5" stroke-linecap="round" stroke-linejoin="round"/>
<path d="M8.25 8.43945H11" stroke="#FD7E14" stroke-width="1.5" stroke-linecap="round" stroke-linejoin="round"/>
<path d="M5.49609 12.1758H5.50508" stroke="#FD7E14" stroke-width="2" stroke-linecap="round" stroke-linejoin="round"/>
<path d="M5.49609 8.42969H5.50508" stroke="#FD7E14" stroke-width="2" stroke-linecap="round" stroke-linejoin="round"/>
</svg>
