<svg width="61" height="78" viewBox="0 0 61 78" fill="none" xmlns="http://www.w3.org/2000/svg">
<path d="M37.093 8.3582H23.905C22.0654 8.35839 20.2846 9.00637 18.875 10.1885C17.4654 11.3705 16.517 13.0112 16.1963 14.8227C16.128 15.2112 16.4675 15.5349 16.8613 15.5349C18.5818 15.5349 20.2319 16.2184 21.4485 17.435C22.6651 18.6516 23.3485 20.3017 23.3485 22.0222C23.3485 22.3494 23.6145 22.6172 23.9435 22.6172H37.0545C37.2123 22.6172 37.3637 22.5545 37.4753 22.4429C37.5868 22.3313 37.6495 22.18 37.6495 22.0222C37.6495 21.1703 37.8173 20.3267 38.1434 19.5396C38.4694 18.7526 38.9472 18.0374 39.5496 17.435C40.152 16.8326 40.8672 16.3548 41.6542 16.0288C42.4413 15.7027 43.2849 15.5349 44.1368 15.5349C44.5305 15.5349 44.87 15.2112 44.8018 14.8227C44.4814 13.0109 43.5332 11.3698 42.1236 10.1874C40.714 9.00494 38.9329 8.35847 37.093 8.3582Z" fill="#FD7E14"/>
<path d="M16.8623 18.1602C16.3549 18.1602 15.8525 18.2601 15.3838 18.4543C14.9151 18.6485 14.4893 18.9332 14.1306 19.292C13.7719 19.6508 13.4875 20.0768 13.2935 20.5456C13.0995 21.0144 12.9998 21.5168 13 22.0242V24.3814C13 27.5804 14.9338 30.3314 17.697 31.5214C18.1188 31.7052 18.3795 32.1514 18.2745 32.6012L17.7915 34.6364C17.7517 34.8042 17.7454 34.9781 17.7729 35.1483C17.8004 35.3185 17.8611 35.4817 17.9516 35.6284C18.0421 35.7752 18.1606 35.9026 18.3004 36.0036C18.4402 36.1045 18.5985 36.1769 18.7663 36.2167C18.934 36.2564 19.108 36.2627 19.2782 36.2353C19.4484 36.2078 19.6115 36.1471 19.7583 36.0566C19.905 35.9661 20.0325 35.8475 20.1334 35.7077C20.2343 35.568 20.3067 35.4097 20.3465 35.2419L20.9188 32.8269C20.9644 32.6356 21.0731 32.4653 21.2274 32.3434C21.3817 32.2214 21.5726 32.1551 21.7693 32.1549H39.2308C39.4276 32.1551 39.6187 32.2218 39.773 32.344C39.9274 32.4663 40.036 32.637 40.0813 32.8287L40.6535 35.2437C40.734 35.5825 40.9459 35.8754 41.2424 36.0581C41.5389 36.2407 41.8958 36.2981 42.2346 36.2175C42.5734 36.137 42.8664 35.9252 43.049 35.6287C43.2317 35.3321 43.289 34.9752 43.2085 34.6364L42.7255 32.6012C42.6802 32.3823 42.7132 32.1544 42.8187 31.9574C42.9243 31.7604 43.0957 31.6067 43.303 31.5232C44.6978 30.9216 45.886 29.9246 46.7207 28.6555C47.5554 27.3863 48.0001 25.9005 48 24.3814V22.0242C48 20.9998 47.5931 20.0174 46.8688 19.2931C46.1445 18.5688 45.1621 18.1619 44.1378 18.1619C43.1134 18.1619 42.131 18.5688 41.4067 19.2931C40.6824 20.0174 40.2755 20.9998 40.2755 22.0242V22.8817C40.2755 24.1854 39.2185 25.2424 37.913 25.2424H22.513C22.2782 25.2426 22.0457 25.1966 21.8287 25.1069C21.6117 25.0172 21.4145 24.8856 21.2484 24.7197C21.0823 24.5538 20.9506 24.3567 20.8607 24.1398C20.7708 23.9229 20.7245 23.6904 20.7245 23.4557V22.0242C20.7245 20.9998 20.3176 20.0174 19.5933 19.2931C18.869 18.5688 17.8866 18.1619 16.8623 18.1619V18.1602Z" fill="#FD7E14"/>
<path d="M11.8848 55.2227H13.3496C13.3027 55.7812 13.1465 56.2793 12.8809 56.7168C12.6152 57.1504 12.2422 57.4922 11.7617 57.7422C11.2812 57.9922 10.6973 58.1172 10.0098 58.1172C9.48242 58.1172 9.00781 58.0234 8.58594 57.8359C8.16406 57.6445 7.80273 57.375 7.50195 57.0273C7.20117 56.6758 6.9707 56.252 6.81055 55.7559C6.6543 55.2598 6.57617 54.7051 6.57617 54.0918V53.3828C6.57617 52.7695 6.65625 52.2148 6.81641 51.7188C6.98047 51.2227 7.21484 50.7988 7.51953 50.4473C7.82422 50.0918 8.18945 49.8203 8.61523 49.6328C9.04492 49.4453 9.52734 49.3516 10.0625 49.3516C10.7422 49.3516 11.3164 49.4766 11.7852 49.7266C12.2539 49.9766 12.6172 50.3223 12.875 50.7637C13.1367 51.2051 13.2969 51.7109 13.3555 52.2812H11.8906C11.8516 51.9141 11.7656 51.5996 11.6328 51.3379C11.5039 51.0762 11.3125 50.877 11.0586 50.7402C10.8047 50.5996 10.4727 50.5293 10.0625 50.5293C9.72656 50.5293 9.43359 50.5918 9.18359 50.7168C8.93359 50.8418 8.72461 51.0254 8.55664 51.2676C8.38867 51.5098 8.26172 51.8086 8.17578 52.1641C8.09375 52.5156 8.05273 52.918 8.05273 53.3711V54.0918C8.05273 54.5215 8.08984 54.9121 8.16406 55.2637C8.24219 55.6113 8.35938 55.9102 8.51562 56.1602C8.67578 56.4102 8.87891 56.6035 9.125 56.7402C9.37109 56.877 9.66602 56.9453 10.0098 56.9453C10.4277 56.9453 10.7656 56.8789 11.0234 56.7461C11.2852 56.6133 11.4824 56.4199 11.6152 56.166C11.752 55.9082 11.8418 55.5938 11.8848 55.2227ZM14.2754 54.9004V54.7656C14.2754 54.3086 14.3418 53.8848 14.4746 53.4941C14.6074 53.0996 14.7988 52.7578 15.0488 52.4688C15.3027 52.1758 15.6113 51.9492 15.9746 51.7891C16.3418 51.625 16.7559 51.543 17.2168 51.543C17.6816 51.543 18.0957 51.625 18.459 51.7891C18.8262 51.9492 19.1367 52.1758 19.3906 52.4688C19.6445 52.7578 19.8379 53.0996 19.9707 53.4941C20.1035 53.8848 20.1699 54.3086 20.1699 54.7656V54.9004C20.1699 55.3574 20.1035 55.7812 19.9707 56.1719C19.8379 56.5625 19.6445 56.9043 19.3906 57.1973C19.1367 57.4863 18.8281 57.7129 18.4648 57.877C18.1016 58.0371 17.6895 58.1172 17.2285 58.1172C16.7637 58.1172 16.3477 58.0371 15.9805 57.877C15.6172 57.7129 15.3086 57.4863 15.0547 57.1973C14.8008 56.9043 14.6074 56.5625 14.4746 56.1719C14.3418 55.7812 14.2754 55.3574 14.2754 54.9004ZM15.6875 54.7656V54.9004C15.6875 55.1855 15.7168 55.4551 15.7754 55.709C15.834 55.9629 15.9258 56.1855 16.0508 56.377C16.1758 56.5684 16.3359 56.7188 16.5312 56.8281C16.7266 56.9375 16.959 56.9922 17.2285 56.9922C17.4902 56.9922 17.7168 56.9375 17.9082 56.8281C18.1035 56.7188 18.2637 56.5684 18.3887 56.377C18.5137 56.1855 18.6055 55.9629 18.6641 55.709C18.7266 55.4551 18.7578 55.1855 18.7578 54.9004V54.7656C18.7578 54.4844 18.7266 54.2188 18.6641 53.9688C18.6055 53.7148 18.5117 53.4902 18.3828 53.2949C18.2578 53.0996 18.0977 52.9473 17.9023 52.8379C17.7109 52.7246 17.4824 52.668 17.2168 52.668C16.9512 52.668 16.7207 52.7246 16.5254 52.8379C16.334 52.9473 16.1758 53.0996 16.0508 53.2949C15.9258 53.4902 15.834 53.7148 15.7754 53.9688C15.7168 54.2188 15.6875 54.4844 15.6875 54.7656ZM22.7656 52.9492V58H21.3535V51.6602H22.6836L22.7656 52.9492ZM22.5371 54.5957L22.0566 54.5898C22.0566 54.1523 22.1113 53.748 22.2207 53.377C22.3301 53.0059 22.4902 52.6836 22.7012 52.4102C22.9121 52.1328 23.1738 51.9199 23.4863 51.7715C23.8027 51.6191 24.168 51.543 24.582 51.543C24.8711 51.543 25.1348 51.5859 25.373 51.6719C25.6152 51.7539 25.8242 51.8848 26 52.0645C26.1797 52.2441 26.3164 52.4746 26.4102 52.7559C26.5078 53.0371 26.5566 53.377 26.5566 53.7754V58H25.1445V53.8984C25.1445 53.5898 25.0977 53.3477 25.0039 53.1719C24.9141 52.9961 24.7832 52.8711 24.6113 52.7969C24.4434 52.7188 24.2422 52.6797 24.0078 52.6797C23.7422 52.6797 23.5156 52.7305 23.3281 52.832C23.1445 52.9336 22.9941 53.0723 22.877 53.248C22.7598 53.4238 22.6738 53.627 22.6191 53.8574C22.5645 54.0879 22.5371 54.334 22.5371 54.5957ZM26.4688 54.2207L25.8066 54.3672C25.8066 53.9844 25.8594 53.623 25.9648 53.2832C26.0742 52.9395 26.2324 52.6387 26.4395 52.3809C26.6504 52.1191 26.9102 51.9141 27.2188 51.7656C27.5273 51.6172 27.8809 51.543 28.2793 51.543C28.6035 51.543 28.8926 51.5879 29.1465 51.6777C29.4043 51.7637 29.623 51.9004 29.8027 52.0879C29.9824 52.2754 30.1191 52.5195 30.2129 52.8203C30.3066 53.1172 30.3535 53.4766 30.3535 53.8984V58H28.9355V53.8926C28.9355 53.5723 28.8887 53.3242 28.7949 53.1484C28.7051 52.9727 28.5762 52.8516 28.4082 52.7852C28.2402 52.7148 28.0391 52.6797 27.8047 52.6797C27.5859 52.6797 27.3926 52.7207 27.2246 52.8027C27.0605 52.8809 26.9219 52.9922 26.8086 53.1367C26.6953 53.2773 26.6094 53.4395 26.5508 53.623C26.4961 53.8066 26.4688 54.0059 26.4688 54.2207ZM33.2188 52.9492V58H31.8066V51.6602H33.1367L33.2188 52.9492ZM32.9902 54.5957L32.5098 54.5898C32.5098 54.1523 32.5645 53.748 32.6738 53.377C32.7832 53.0059 32.9434 52.6836 33.1543 52.4102C33.3652 52.1328 33.627 51.9199 33.9395 51.7715C34.2559 51.6191 34.6211 51.543 35.0352 51.543C35.3242 51.543 35.5879 51.5859 35.8262 51.6719C36.0684 51.7539 36.2773 51.8848 36.4531 52.0645C36.6328 52.2441 36.7695 52.4746 36.8633 52.7559C36.9609 53.0371 37.0098 53.377 37.0098 53.7754V58H35.5977V53.8984C35.5977 53.5898 35.5508 53.3477 35.457 53.1719C35.3672 52.9961 35.2363 52.8711 35.0645 52.7969C34.8965 52.7188 34.6953 52.6797 34.4609 52.6797C34.1953 52.6797 33.9688 52.7305 33.7812 52.832C33.5977 52.9336 33.4473 53.0723 33.3301 53.248C33.2129 53.4238 33.127 53.627 33.0723 53.8574C33.0176 54.0879 32.9902 54.334 32.9902 54.5957ZM36.9219 54.2207L36.2598 54.3672C36.2598 53.9844 36.3125 53.623 36.418 53.2832C36.5273 52.9395 36.6855 52.6387 36.8926 52.3809C37.1035 52.1191 37.3633 51.9141 37.6719 51.7656C37.9805 51.6172 38.334 51.543 38.7324 51.543C39.0566 51.543 39.3457 51.5879 39.5996 51.6777C39.8574 51.7637 40.0762 51.9004 40.2559 52.0879C40.4355 52.2754 40.5723 52.5195 40.666 52.8203C40.7598 53.1172 40.8066 53.4766 40.8066 53.8984V58H39.3887V53.8926C39.3887 53.5723 39.3418 53.3242 39.248 53.1484C39.1582 52.9727 39.0293 52.8516 38.8613 52.7852C38.6934 52.7148 38.4922 52.6797 38.2578 52.6797C38.0391 52.6797 37.8457 52.7207 37.6777 52.8027C37.5137 52.8809 37.375 52.9922 37.2617 53.1367C37.1484 53.2773 37.0625 53.4395 37.0039 53.623C36.9492 53.8066 36.9219 54.0059 36.9219 54.2207ZM41.9902 54.9004V54.7656C41.9902 54.3086 42.0566 53.8848 42.1895 53.4941C42.3223 53.0996 42.5137 52.7578 42.7637 52.4688C43.0176 52.1758 43.3262 51.9492 43.6895 51.7891C44.0566 51.625 44.4707 51.543 44.9316 51.543C45.3965 51.543 45.8105 51.625 46.1738 51.7891C46.541 51.9492 46.8516 52.1758 47.1055 52.4688C47.3594 52.7578 47.5527 53.0996 47.6855 53.4941C47.8184 53.8848 47.8848 54.3086 47.8848 54.7656V54.9004C47.8848 55.3574 47.8184 55.7812 47.6855 56.1719C47.5527 56.5625 47.3594 56.9043 47.1055 57.1973C46.8516 57.4863 46.543 57.7129 46.1797 57.877C45.8164 58.0371 45.4043 58.1172 44.9434 58.1172C44.4785 58.1172 44.0625 58.0371 43.6953 57.877C43.332 57.7129 43.0234 57.4863 42.7695 57.1973C42.5156 56.9043 42.3223 56.5625 42.1895 56.1719C42.0566 55.7812 41.9902 55.3574 41.9902 54.9004ZM43.4023 54.7656V54.9004C43.4023 55.1855 43.4316 55.4551 43.4902 55.709C43.5488 55.9629 43.6406 56.1855 43.7656 56.377C43.8906 56.5684 44.0508 56.7188 44.2461 56.8281C44.4414 56.9375 44.6738 56.9922 44.9434 56.9922C45.2051 56.9922 45.4316 56.9375 45.623 56.8281C45.8184 56.7188 45.9785 56.5684 46.1035 56.377C46.2285 56.1855 46.3203 55.9629 46.3789 55.709C46.4414 55.4551 46.4727 55.1855 46.4727 54.9004V54.7656C46.4727 54.4844 46.4414 54.2188 46.3789 53.9688C46.3203 53.7148 46.2266 53.4902 46.0977 53.2949C45.9727 53.0996 45.8125 52.9473 45.6172 52.8379C45.4258 52.7246 45.1973 52.668 44.9316 52.668C44.666 52.668 44.4355 52.7246 44.2402 52.8379C44.0488 52.9473 43.8906 53.0996 43.7656 53.2949C43.6406 53.4902 43.5488 53.7148 43.4902 53.9688C43.4316 54.2188 43.4023 54.4844 43.4023 54.7656ZM50.4688 53.0137V58H49.0566V51.6602H50.3867L50.4688 53.0137ZM50.2168 54.5957L49.7598 54.5898C49.7637 54.1406 49.8262 53.7285 49.9473 53.3535C50.0723 52.9785 50.2441 52.6562 50.4629 52.3867C50.6855 52.1172 50.9512 51.9102 51.2598 51.7656C51.5684 51.6172 51.9121 51.543 52.291 51.543C52.5957 51.543 52.8711 51.5859 53.1172 51.6719C53.3672 51.7539 53.5801 51.8887 53.7559 52.0762C53.9355 52.2637 54.0723 52.5078 54.166 52.8086C54.2598 53.1055 54.3066 53.4707 54.3066 53.9043V58H52.8887V53.8984C52.8887 53.5938 52.8438 53.3535 52.7539 53.1777C52.668 52.998 52.541 52.8711 52.373 52.7969C52.209 52.7188 52.0039 52.6797 51.7578 52.6797C51.5156 52.6797 51.2988 52.7305 51.1074 52.832C50.916 52.9336 50.7539 53.0723 50.6211 53.248C50.4922 53.4238 50.3926 53.627 50.3223 53.8574C50.252 54.0879 50.2168 54.334 50.2168 54.5957ZM19.1094 66.6055L16.5605 74H15.0195L18.2305 65.4688H19.2148L19.1094 66.6055ZM21.2422 74L18.6875 66.6055L18.5762 65.4688H19.5664L22.7891 74H21.2422ZM21.1191 70.8359V72.002H16.4785V70.8359H21.1191ZM25.0215 68.8672V74H23.6094V67.6602H24.957L25.0215 68.8672ZM26.9609 67.6191L26.9492 68.9316C26.8633 68.916 26.7695 68.9043 26.668 68.8965C26.5703 68.8887 26.4727 68.8848 26.375 68.8848C26.1328 68.8848 25.9199 68.9199 25.7363 68.9902C25.5527 69.0566 25.3984 69.1543 25.2734 69.2832C25.1523 69.4082 25.0586 69.5605 24.9922 69.7402C24.9258 69.9199 24.8867 70.1211 24.875 70.3438L24.5527 70.3672C24.5527 69.9688 24.5918 69.5996 24.6699 69.2598C24.748 68.9199 24.8652 68.6211 25.0215 68.3633C25.1816 68.1055 25.3809 67.9043 25.6191 67.7598C25.8613 67.6152 26.1406 67.543 26.457 67.543C26.543 67.543 26.6348 67.5508 26.7324 67.5664C26.834 67.582 26.9102 67.5996 26.9609 67.6191ZM30.5234 74.1172C30.0547 74.1172 29.6309 74.041 29.252 73.8887C28.877 73.7324 28.5566 73.5156 28.291 73.2383C28.0293 72.9609 27.8281 72.6348 27.6875 72.2598C27.5469 71.8848 27.4766 71.4805 27.4766 71.0469V70.8125C27.4766 70.3164 27.5488 69.8672 27.6934 69.4648C27.8379 69.0625 28.0391 68.7188 28.2969 68.4336C28.5547 68.1445 28.8594 67.9238 29.2109 67.7715C29.5625 67.6191 29.9434 67.543 30.3535 67.543C30.8066 67.543 31.2031 67.6191 31.543 67.7715C31.8828 67.9238 32.1641 68.1387 32.3867 68.416C32.6133 68.6895 32.7812 69.0156 32.8906 69.3945C33.0039 69.7734 33.0605 70.1914 33.0605 70.6484V71.252H28.1621V70.2383H31.666V70.127C31.6582 69.873 31.6074 69.6348 31.5137 69.4121C31.4238 69.1895 31.2852 69.0098 31.0977 68.873C30.9102 68.7363 30.6602 68.668 30.3477 68.668C30.1133 68.668 29.9043 68.7188 29.7207 68.8203C29.541 68.918 29.3906 69.0605 29.2695 69.248C29.1484 69.4355 29.0547 69.6621 28.9883 69.9277C28.9258 70.1895 28.8945 70.4844 28.8945 70.8125V71.0469C28.8945 71.3242 28.9316 71.582 29.0059 71.8203C29.084 72.0547 29.1973 72.2598 29.3457 72.4355C29.4941 72.6113 29.6738 72.75 29.8848 72.8516C30.0957 72.9492 30.3359 72.998 30.6055 72.998C30.9453 72.998 31.248 72.9297 31.5137 72.793C31.7793 72.6562 32.0098 72.4629 32.2051 72.2129L32.9492 72.9336C32.8125 73.1328 32.6348 73.3242 32.416 73.5078C32.1973 73.6875 31.9297 73.834 31.6133 73.9473C31.3008 74.0605 30.9375 74.1172 30.5234 74.1172ZM37.7363 72.7285V69.7051C37.7363 69.4785 37.6953 69.2832 37.6133 69.1191C37.5312 68.9551 37.4062 68.8281 37.2383 68.7383C37.0742 68.6484 36.8672 68.6035 36.6172 68.6035C36.3867 68.6035 36.1875 68.6426 36.0195 68.7207C35.8516 68.7988 35.7207 68.9043 35.627 69.0371C35.5332 69.1699 35.4863 69.3203 35.4863 69.4883H34.0801C34.0801 69.2383 34.1406 68.9961 34.2617 68.7617C34.3828 68.5273 34.5586 68.3184 34.7891 68.1348C35.0195 67.9512 35.2949 67.8066 35.6152 67.7012C35.9355 67.5957 36.2949 67.543 36.6934 67.543C37.1699 67.543 37.5918 67.623 37.959 67.7832C38.3301 67.9434 38.6211 68.1855 38.832 68.5098C39.0469 68.8301 39.1543 69.2324 39.1543 69.7168V72.5352C39.1543 72.8242 39.1738 73.084 39.2129 73.3145C39.2559 73.541 39.3164 73.7383 39.3945 73.9062V74H37.9473C37.8809 73.8477 37.8281 73.6543 37.7891 73.4199C37.7539 73.1816 37.7363 72.9512 37.7363 72.7285ZM37.9414 70.1445L37.9531 71.0176H36.9395C36.6777 71.0176 36.4473 71.043 36.248 71.0938C36.0488 71.1406 35.8828 71.2109 35.75 71.3047C35.6172 71.3984 35.5176 71.5117 35.4512 71.6445C35.3848 71.7773 35.3516 71.9277 35.3516 72.0957C35.3516 72.2637 35.3906 72.418 35.4688 72.5586C35.5469 72.6953 35.6602 72.8027 35.8086 72.8809C35.9609 72.959 36.1445 72.998 36.3594 72.998C36.6484 72.998 36.9004 72.9395 37.1152 72.8223C37.334 72.7012 37.5059 72.5547 37.6309 72.3828C37.7559 72.207 37.8223 72.041 37.8301 71.8848L38.2871 72.5117C38.2402 72.6719 38.1602 72.8438 38.0469 73.0273C37.9336 73.2109 37.7852 73.3867 37.6016 73.5547C37.4219 73.7188 37.2051 73.8535 36.9512 73.959C36.7012 74.0645 36.4121 74.1172 36.084 74.1172C35.6699 74.1172 35.3008 74.0352 34.9766 73.8711C34.6523 73.7031 34.3984 73.4785 34.2148 73.1973C34.0312 72.9121 33.9395 72.5898 33.9395 72.2305C33.9395 71.8945 34.002 71.5977 34.127 71.3398C34.2559 71.0781 34.4434 70.8594 34.6895 70.6836C34.9395 70.5078 35.2441 70.375 35.6035 70.2852C35.9629 70.1914 36.373 70.1445 36.834 70.1445H37.9414ZM44.1875 72.2832C44.1875 72.1426 44.1523 72.0156 44.082 71.9023C44.0117 71.7852 43.877 71.6797 43.6777 71.5859C43.4824 71.4922 43.1934 71.4062 42.8105 71.3281C42.4746 71.2539 42.166 71.166 41.8848 71.0645C41.6074 70.959 41.3691 70.832 41.1699 70.6836C40.9707 70.5352 40.8164 70.3594 40.707 70.1562C40.5977 69.9531 40.543 69.7188 40.543 69.4531C40.543 69.1953 40.5996 68.9512 40.7129 68.7207C40.8262 68.4902 40.9883 68.2871 41.1992 68.1113C41.4102 67.9355 41.666 67.7969 41.9668 67.6953C42.2715 67.5938 42.6113 67.543 42.9863 67.543C43.5176 67.543 43.9727 67.6328 44.3516 67.8125C44.7344 67.9883 45.0273 68.2285 45.2305 68.5332C45.4336 68.834 45.5352 69.1738 45.5352 69.5527H44.123C44.123 69.3848 44.0801 69.2285 43.9941 69.084C43.9121 68.9355 43.7871 68.8164 43.6191 68.7266C43.4512 68.6328 43.2402 68.5859 42.9863 68.5859C42.7441 68.5859 42.543 68.625 42.3828 68.7031C42.2266 68.7773 42.1094 68.875 42.0312 68.9961C41.957 69.1172 41.9199 69.25 41.9199 69.3945C41.9199 69.5 41.9395 69.5957 41.9785 69.6816C42.0215 69.7637 42.0918 69.8398 42.1895 69.9102C42.2871 69.9766 42.4199 70.0391 42.5879 70.0977C42.7598 70.1562 42.9746 70.2129 43.2324 70.2676C43.7168 70.3691 44.1328 70.5 44.4805 70.6602C44.832 70.8164 45.1016 71.0195 45.2891 71.2695C45.4766 71.5156 45.5703 71.8281 45.5703 72.207C45.5703 72.4883 45.5098 72.7461 45.3887 72.9805C45.2715 73.2109 45.0996 73.4121 44.873 73.584C44.6465 73.752 44.375 73.8828 44.0586 73.9766C43.7461 74.0703 43.3945 74.1172 43.0039 74.1172C42.4297 74.1172 41.9434 74.0156 41.5449 73.8125C41.1465 73.6055 40.8438 73.3418 40.6367 73.0215C40.4336 72.6973 40.332 72.3613 40.332 72.0137H41.6973C41.7129 72.2754 41.7852 72.4844 41.9141 72.6406C42.0469 72.793 42.2109 72.9043 42.4062 72.9746C42.6055 73.041 42.8105 73.0742 43.0215 73.0742C43.2754 73.0742 43.4883 73.041 43.6602 72.9746C43.832 72.9043 43.9629 72.8105 44.0527 72.6934C44.1426 72.5723 44.1875 72.4355 44.1875 72.2832Z" fill="#1F1F1F"/>
</svg>
