<svg width="24" height="24" viewBox="0 0 24 24" fill="none" xmlns="http://www.w3.org/2000/svg">
<g clip-path="url(#clip0_2734_6400)">
<path d="M6.54413 3.225L7.14413 2.775L8.26987 4.2765L7.66987 4.7265L6.54413 3.225Z" fill="#FD7E14"/>
<path d="M2.25 10.875C2.18633 10.8751 2.1237 10.8589 2.068 10.8281C2.0123 10.7972 1.96537 10.7527 1.93163 10.6988L0.0566255 7.69875C0.0195078 7.63911 -0.000112268 7.57025 4.83234e-07 7.5V0.375C4.83234e-07 0.275544 0.0395093 0.180161 0.109835 0.109835C0.180162 0.0395088 0.275544 0 0.375 0H4.875C4.93322 0 4.99063 0.0135544 5.04271 0.0395898C5.09478 0.0656252 5.14007 0.103426 5.175 0.15L7.14413 2.775L6.54413 3.225L4.6875 0.75H0.75V7.39237L2.37563 9.99375L8.8215 6.2625L7.66987 4.7265L8.26987 4.2765L9.675 6.15C9.70675 6.19242 9.72916 6.24108 9.74074 6.29278C9.75231 6.34449 9.7528 6.39806 9.74218 6.44996C9.73155 6.50187 9.71004 6.55093 9.67907 6.59392C9.6481 6.63692 9.60837 6.67285 9.5625 6.69938L2.4375 10.8244C2.38061 10.8576 2.31589 10.8751 2.25 10.875Z" fill="#FD7E14"/>
<path d="M3.37488 11.6253C3.31309 11.6254 3.25224 11.6102 3.19775 11.5811C3.14325 11.552 3.09679 11.5099 3.0625 11.4585L2.3125 10.3335L2.9365 9.91722L3.48438 10.7396L8.84988 7.38784L8.314 6.58422L8.938 6.16797L9.688 7.29297C9.7157 7.33463 9.73479 7.38142 9.74413 7.43058C9.75348 7.47973 9.75289 7.53026 9.74241 7.57918C9.73193 7.62811 9.71176 7.67444 9.68309 7.71545C9.65443 7.75646 9.61784 7.79131 9.5755 7.81797L3.5755 11.568C3.5154 11.6057 3.44583 11.6256 3.37488 11.6253Z" fill="#FD7E14"/>
<path d="M13.1394 23.9995H12.8116C12.6182 23.999 12.4274 23.9538 12.2544 23.8673C12.0813 23.7809 11.9306 23.6555 11.8141 23.5011L10.9505 22.3495L11.5505 21.8995L12.413 23.0511C12.4594 23.1126 12.5195 23.1626 12.5884 23.197C12.6574 23.2314 12.7334 23.2494 12.8105 23.2495H13.1382C13.27 23.249 13.3963 23.1968 13.49 23.104C13.5702 23.0242 13.6207 22.9194 13.633 22.8069C13.6452 22.6945 13.6186 22.5812 13.5575 22.486L13.397 22.2336L13.391 22.2246L11.3079 18.9509C11.2544 18.8669 11.2366 18.7652 11.2582 18.6681C11.2797 18.571 11.339 18.4864 11.423 18.433C11.5069 18.3796 11.6086 18.3617 11.7058 18.3833C11.8029 18.4049 11.8874 18.4642 11.9409 18.5481L14.0277 21.8279C14.0697 21.8918 14.1243 21.9465 14.1882 21.9886C14.2521 22.0306 14.3239 22.0591 14.3992 22.0723C14.4746 22.0856 14.5518 22.0832 14.6262 22.0654C14.7006 22.0476 14.7705 22.0147 14.8317 21.9689C14.944 21.8839 15.0203 21.7599 15.0456 21.6214C15.0708 21.4829 15.0432 21.3399 14.9682 21.2208L12.8079 17.8259C12.7513 17.744 12.7296 17.643 12.7476 17.5451C12.7655 17.4472 12.8216 17.3604 12.9035 17.3039C12.9854 17.2473 13.0864 17.2256 13.1843 17.2436C13.2822 17.2615 13.3689 17.3176 13.4255 17.3995L15.1175 19.6559C15.1546 19.7053 15.2019 19.7462 15.2562 19.7757C15.3104 19.8053 15.3704 19.8229 15.4321 19.8272C15.4937 19.8316 15.5556 19.8227 15.6135 19.8011C15.6714 19.7795 15.724 19.7457 15.7677 19.702C15.8381 19.6314 15.8819 19.5386 15.8917 19.4394C15.9015 19.3402 15.8768 19.2406 15.8217 19.1575L13.9385 16.3326C13.8828 16.2508 13.8618 16.1502 13.8799 16.0529C13.8981 15.9555 13.9541 15.8693 14.0356 15.8131C14.117 15.7569 14.2175 15.7351 14.3149 15.7527C14.4124 15.7702 14.4989 15.8255 14.5557 15.9066L16.1022 18.0719C16.1328 18.1149 16.1747 18.1486 16.2232 18.1693C16.2717 18.19 16.3251 18.1968 16.3772 18.189C16.4294 18.1813 16.4784 18.1592 16.5189 18.1253C16.5593 18.0914 16.5895 18.0469 16.6062 17.9969L16.8196 17.3568C16.877 17.1847 16.8905 17.001 16.8586 16.8224C16.8268 16.6439 16.7507 16.4761 16.6374 16.3345L15.4576 14.8596L14.7181 13.7526L9.88323 9.661L8.36035 8.13963L8.8906 7.60938L10.3906 9.10938L15.2427 13.213C15.2694 13.2358 15.2929 13.2622 15.3125 13.2914L16.0625 14.4164L17.2231 15.865C17.4832 16.1908 17.625 16.5952 17.6255 17.0121C17.6257 17.2098 17.5938 17.4063 17.531 17.5938L17.318 18.2335C17.2753 18.3629 17.2074 18.4826 17.1182 18.5856C17.029 18.6886 16.9202 18.7728 16.7982 18.8335C16.7176 18.8737 16.6322 18.9035 16.544 18.922C16.6395 19.1402 16.6671 19.382 16.6233 19.6161C16.5795 19.8502 16.4663 20.0656 16.2984 20.2345C16.1881 20.3472 16.0559 20.436 15.9099 20.4955C15.764 20.555 15.6073 20.5838 15.4497 20.5802L15.602 20.8202C15.733 21.0262 15.8038 21.2647 15.8065 21.5087C15.8092 21.7528 15.7436 21.9928 15.6172 22.2015C15.4908 22.4103 15.3086 22.5797 15.0911 22.6904C14.8736 22.8012 14.6294 22.849 14.3862 22.8284C14.366 23.1454 14.2259 23.4429 13.9943 23.6605C13.7628 23.878 13.4571 23.9992 13.1394 23.9995Z" fill="#FD7E14"/>
<path d="M7.34426 21.3757C7.20881 21.3757 7.07432 21.353 6.94638 21.3086L6.85226 21.2763C6.62944 21.1945 6.43326 21.0533 6.28498 20.8679C6.1367 20.6826 6.04198 20.4602 6.01107 20.2248C5.98017 19.9895 6.01426 19.7502 6.10966 19.5328C6.20505 19.3155 6.35812 19.1284 6.55226 18.9918L7.23213 18.5208L8.46551 17.2391C8.5765 17.128 8.70829 17.0399 8.85336 16.9797C8.99842 16.9196 9.15392 16.8887 9.31095 16.8887C9.46798 16.8887 9.62347 16.9196 9.76853 16.9797C9.9136 17.0399 10.0454 17.128 10.1564 17.2391C10.3644 17.4564 10.4864 17.7419 10.4997 18.0424C10.513 18.3429 10.4167 18.6381 10.2288 18.8729L8.86938 20.5679C8.84687 20.5967 8.82021 20.622 8.79026 20.6429L8.04626 21.1582C7.83978 21.3003 7.59492 21.3762 7.34426 21.3757ZM9.00588 17.7592L7.74626 19.0679C7.72886 19.0859 7.70977 19.1021 7.68926 19.1163L6.97863 19.6076C6.90694 19.6585 6.84867 19.726 6.80883 19.8044C6.76899 19.8828 6.74876 19.9697 6.74988 20.0576C6.74775 20.1681 6.78001 20.2766 6.84222 20.3681C6.90443 20.4595 6.9935 20.5293 7.09713 20.5679L7.19126 20.6002C7.26224 20.6248 7.33804 20.6322 7.41242 20.6217C7.48681 20.6113 7.55766 20.5834 7.61913 20.5402L8.31851 20.0561L9.64376 18.4034C9.71685 18.3105 9.75427 18.1944 9.74925 18.0763C9.74423 17.9581 9.6971 17.8456 9.61638 17.7592C9.57656 17.7187 9.52905 17.6864 9.47664 17.6645C9.42423 17.6425 9.36797 17.6312 9.31113 17.6312C9.2543 17.6312 9.19803 17.6425 9.14562 17.6645C9.09321 17.6864 9.04571 17.7187 9.00588 17.7592Z" fill="#FD7E14"/>
<path d="M6.53325 19.806L5.84363 19.3185C5.66132 19.2009 5.51144 19.0395 5.40772 18.849C5.30401 18.6584 5.24978 18.4449 5.25 18.228C5.25486 17.8827 5.39338 17.5527 5.63646 17.3074C5.87954 17.0621 6.20824 16.9205 6.5535 16.9125L6.59475 16.9024L7.4355 16.3286C7.53539 16.2457 7.64984 16.1821 7.773 16.1411C7.80609 16.1311 7.84042 16.1256 7.875 16.125H8.25C8.28045 16.1251 8.31078 16.1287 8.34038 16.1359C8.60194 16.2084 8.82881 16.3723 8.97975 16.5979C9.12823 16.7871 9.20083 17.0248 9.18336 17.2647C9.16588 17.5046 9.05959 17.7293 8.88525 17.895L8.36475 17.355C8.409 17.3122 8.50088 17.2241 8.36288 17.0242C8.32031 16.9599 8.26126 16.9081 8.19188 16.8743H7.9575L7.9035 16.914L7.866 16.9414L6.96038 17.559C6.9233 17.5843 6.88204 17.6028 6.8385 17.6138L6.69038 17.6512C6.66117 17.6585 6.63121 17.6621 6.60113 17.6621C6.44649 17.6579 6.29646 17.715 6.18382 17.821C6.07118 17.9271 6.0051 18.0734 6 18.228C6.00084 18.3218 6.02533 18.414 6.07121 18.4958C6.1171 18.5777 6.18289 18.6467 6.2625 18.6964L6.96638 19.194L6.53325 19.806ZM8.30138 22.875C8.06936 22.8759 7.8429 22.804 7.65388 22.6695C7.46485 22.5349 7.32277 22.3445 7.24763 22.125L7.18238 21.9319C7.11589 21.7372 7.10596 21.5277 7.15375 21.3277C7.20154 21.1276 7.30509 20.9452 7.45238 20.8016L9.17138 19.104C9.40106 18.879 9.70975 18.753 10.0313 18.753C10.3527 18.753 10.6614 18.879 10.8911 19.104C11.1047 19.313 11.2324 19.5944 11.2491 19.8927C11.2658 20.1911 11.1704 20.4849 10.9815 20.7165L9.94575 21.9945C9.92131 22.0236 9.89261 22.0489 9.86063 22.0695L8.916 22.6912C8.73354 22.8114 8.51982 22.8753 8.30138 22.875ZM7.97925 21.3334C7.93264 21.3787 7.8998 21.4362 7.88454 21.4994C7.86928 21.5626 7.87221 21.6288 7.893 21.6904L7.95825 21.8828C7.97834 21.9338 8.00938 21.9798 8.04918 22.0175C8.08898 22.0552 8.13656 22.0838 8.18859 22.1011C8.24061 22.1185 8.29581 22.1242 8.35028 22.1179C8.40476 22.1116 8.45719 22.0934 8.50388 22.0646L9.39975 21.4747L10.3988 20.2421C10.4698 20.155 10.5057 20.0445 10.4994 19.9323C10.4931 19.8201 10.445 19.7143 10.3646 19.6357C10.2757 19.5485 10.156 19.4996 10.0314 19.4996C9.90684 19.4996 9.78721 19.5485 9.69825 19.6357L7.97925 21.3334Z" fill="#FD7E14"/>
<path d="M10.0837 23.625H9.69488C9.50478 23.6285 9.31713 23.5818 9.15083 23.4896C8.98453 23.3974 8.84546 23.2631 8.74762 23.1C8.6405 22.9113 8.60275 22.691 8.64089 22.4773C8.67904 22.2637 8.79068 22.0701 8.9565 21.93L9.414 21.5299L10.2101 20.6014C10.2996 20.4997 10.4082 20.4166 10.5299 20.3569C10.6515 20.2971 10.7837 20.262 10.9189 20.2534C11.0573 20.2425 11.1964 20.259 11.3284 20.302C11.4604 20.345 11.5826 20.4136 11.688 20.5039C11.8442 20.6359 11.9493 20.8184 11.9851 21.0197C12.0209 21.2211 11.9852 21.4286 11.8841 21.6064L11.031 23.1C10.9331 23.263 10.794 23.3973 10.6277 23.4895C10.4615 23.5816 10.2738 23.6284 10.0837 23.625ZM10.9984 21H10.9725C10.8992 21.0028 10.83 21.0343 10.7797 21.0878L9.966 22.0369C9.95434 22.0502 9.94181 22.0627 9.9285 22.0744L9.45 22.4944C9.41414 22.5201 9.38904 22.5581 9.37955 22.6012C9.37007 22.6442 9.37686 22.6893 9.39862 22.7277C9.43142 22.7753 9.47577 22.8138 9.52753 22.8396C9.57928 22.8653 9.63674 22.8775 9.6945 22.875H10.0837C10.1415 22.8775 10.199 22.8653 10.2507 22.8396C10.3025 22.8138 10.3468 22.7753 10.3796 22.7277L11.2331 21.234C11.2479 21.2065 11.2522 21.1745 11.2453 21.144C11.2384 21.1135 11.2208 21.0865 11.1956 21.0679C11.1403 21.0221 11.0702 20.998 10.9984 21ZM6.54225 21.75C6.31233 21.7492 6.08649 21.6892 5.88644 21.5758C5.6864 21.4625 5.51889 21.2996 5.4 21.1028L3.96375 18.7088C3.57874 18.0677 3.37524 17.3341 3.375 16.5863V13.5C3.37496 13.4524 3.38399 13.4052 3.40163 13.3609L4.08938 11.6423L3.78938 11.0423L4.46063 10.707L4.83563 11.457C4.85927 11.5044 4.87263 11.5562 4.87483 11.609C4.87703 11.6619 4.86801 11.7146 4.84838 11.7638L4.125 13.572V16.5863C4.12489 17.198 4.29121 17.7981 4.60613 18.3225L6.04238 20.7169C6.10229 20.8169 6.19082 20.8967 6.29652 20.9458C6.40223 20.995 6.52026 21.0113 6.63534 20.9927C6.75043 20.9741 6.85729 20.9214 6.94211 20.8414C7.02692 20.7614 7.0858 20.6578 7.11112 20.544L7.84387 20.706C7.77671 21.0015 7.6115 21.2655 7.37515 21.455C7.1388 21.6446 6.84523 21.7486 6.54225 21.75Z" fill="#FD7E14"/>
<path d="M4.93848 16.3325L5.56248 15.9163L6.31248 17.0416L5.68848 17.4579L4.93848 16.3325ZM17.1331 16.3974L16.6179 15.8521L23.2505 9.58815V1.4859L18.5457 7.66102C18.1178 8.22181 17.6401 8.7428 17.1185 9.21765L13.7529 12.2773L13.2481 11.7223L16.613 8.66227C17.1009 8.21808 17.5477 7.73073 17.948 7.20615L23.3274 0.147522C23.3749 0.0851768 23.4408 0.0393144 23.5158 0.0163861C23.5908 -0.00654227 23.6711 -0.0053827 23.7454 0.0197016C23.8197 0.044786 23.8843 0.0925328 23.93 0.156225C23.9758 0.219918 24.0004 0.296351 24.0005 0.374772V9.74977C24.0005 9.80081 23.9901 9.85131 23.9699 9.89819C23.9497 9.94507 23.9202 9.98733 23.8831 10.0224L17.1331 16.3974Z" fill="#FD7E14"/>
<path d="M20.1222 16.1209C19.0688 16.1209 17.3558 14.8811 15.9901 13.4996C14.444 11.9355 13.4671 10.35 13.5001 9.46161C13.4994 9.34245 13.5239 9.2245 13.572 9.11548C13.62 9.00645 13.6906 8.90882 13.7791 8.82898C14.3723 8.31636 15.5041 8.87548 16.3475 9.43648L15.9331 10.0612C14.8831 9.36411 14.348 9.32886 14.2711 9.39598C14.2551 9.42479 14.248 9.45764 14.2505 9.49048C14.2291 10.0421 15.0188 11.4499 16.5233 12.9724C18.458 14.9295 20.0157 15.5381 20.2291 15.354C20.2722 15.3165 20.3333 14.8556 19.5751 13.7089L20.2006 13.2964C21.0466 14.5759 21.2262 15.4841 20.7203 15.9214C20.5522 16.059 20.3393 16.13 20.1222 16.1209Z" fill="#FD7E14"/>
</g>
<defs>
<clipPath id="clip0_2734_6400">
<rect width="24" height="24" fill="white"/>
</clipPath>
</defs>
</svg>
