<svg width="42" height="42" viewBox="0 0 42 42" fill="none" xmlns="http://www.w3.org/2000/svg">
<rect width="42" height="42" rx="12" fill="#FD7E14" fill-opacity="0.1"/>
<path d="M20.9999 23.9904C19.3484 23.9904 18.0096 22.6516 18.0096 21.0001C18.0096 19.3486 19.3484 18.0099 20.9999 18.0099C22.6514 18.0099 23.9901 19.3486 23.9901 21.0001C23.9901 22.6516 22.6514 23.9904 20.9999 23.9904ZM27.8347 22.0052V19.995L26.4646 19.6726C26.328 19.109 26.1046 18.5701 25.8023 18.0753L26.5436 16.8779L25.1221 15.4564L23.9247 16.1977C23.4299 15.8954 22.891 15.672 22.3274 15.5354L22.005 14.1653H19.9948L19.6723 15.5354C19.1088 15.672 18.5699 15.8954 18.0751 16.1977L16.8777 15.4564L15.4562 16.8779L16.1975 18.0753C15.8952 18.5701 15.6717 19.109 15.5352 19.6726L14.165 19.995V22.0052L15.5352 22.3277C15.6717 22.8912 15.8952 23.4301 16.1975 23.9249L15.4562 25.1223L16.8777 26.5438L18.0751 25.8025C18.5699 26.1048 19.1088 26.3283 19.6723 26.4648L19.9948 27.835H22.005L22.3274 26.4648C22.891 26.3283 23.4299 26.1048 23.9247 25.8025L25.1221 26.5438L26.5436 25.1223L25.8023 23.9249C26.1046 23.4301 26.3281 22.8912 26.4646 22.3277L27.8347 22.0052Z" stroke="#FD7E14" stroke-width="1.3" stroke-miterlimit="10" stroke-linecap="round" stroke-linejoin="round"/>
<path d="M25.2275 13.5352L27.6172 13.1138L27.1958 10.7241" stroke="#FD7E14" stroke-width="1.3" stroke-miterlimit="10" stroke-linecap="round" stroke-linejoin="round"/>
<path d="M16.7715 28.4653L14.3818 28.8867L14.8032 31.2764" stroke="#FD7E14" stroke-width="1.3" stroke-miterlimit="10" stroke-linecap="round" stroke-linejoin="round"/>
<path d="M27.6166 13.1147C25.8271 11.6116 23.5199 10.705 21.0001 10.705C15.3143 10.705 10.7051 15.3142 10.7051 21" stroke="#FD7E14" stroke-width="1.3" stroke-miterlimit="10" stroke-linecap="round" stroke-linejoin="round"/>
<path d="M14.3828 28.8852C16.1723 30.3883 18.4795 31.2949 20.9994 31.2949C26.6851 31.2949 31.2944 26.6857 31.2944 20.9999" stroke="#FD7E14" stroke-width="1.3" stroke-miterlimit="10" stroke-linecap="round" stroke-linejoin="round"/>
</svg>
