<svg width="42" height="42" viewBox="0 0 42 42" fill="none" xmlns="http://www.w3.org/2000/svg">
<rect width="42" height="42" rx="12" fill="#FD7E14" fill-opacity="0.1"/>
<path d="M30 14.9805C26.67 14.6505 23.32 14.4805 19.98 14.4805C18 14.4805 16.02 14.5805 14.04 14.7805L12 14.9805" stroke="#FD7E14" stroke-width="1.5" stroke-linecap="round" stroke-linejoin="round"/>
<path d="M17.5 13.97L17.72 12.66C17.88 11.71 18 11 19.69 11H22.31C24 11 24.13 11.75 24.28 12.67L24.5 13.97" stroke="#FD7E14" stroke-width="1.5" stroke-linecap="round" stroke-linejoin="round"/>
<path d="M27.8504 18.1396L27.2004 28.2096C27.0904 29.7796 27.0004 30.9996 24.2104 30.9996H17.7904C15.0004 30.9996 14.9104 29.7796 14.8004 28.2096L14.1504 18.1396" stroke="#FD7E14" stroke-width="1.5" stroke-linecap="round" stroke-linejoin="round"/>
<path d="M19.3301 25.5H22.6601" stroke="#FD7E14" stroke-width="1.5" stroke-linecap="round" stroke-linejoin="round"/>
<path d="M18.5 21.5H23.5" stroke="#FD7E14" stroke-width="1.5" stroke-linecap="round" stroke-linejoin="round"/>
</svg>
