<svg width="22" height="22" viewBox="0 0 22 22" fill="none" xmlns="http://www.w3.org/2000/svg">
<path d="M7.94922 13.1358C7.94922 14.3183 8.85672 15.2716 9.98422 15.2716H12.2851C13.2659 15.2716 14.0634 14.4374 14.0634 13.4108C14.0634 12.2924 13.5776 11.8983 12.8534 11.6416L9.15922 10.3583C8.43505 10.1016 7.94922 9.70744 7.94922 8.5891C7.94922 7.56244 8.74672 6.72827 9.72755 6.72827H12.0284C13.1559 6.72827 14.0634 7.6816 14.0634 8.8641" stroke="#FD7E14" stroke-width="1.4" stroke-linecap="round" stroke-linejoin="round"/>
<path d="M11 5.5V16.5" stroke="#FD7E14" stroke-width="1.4" stroke-linecap="round" stroke-linejoin="round"/>
<path d="M13.7497 20.1666H8.24967C3.66634 20.1666 1.83301 18.3333 1.83301 13.7499V8.24992C1.83301 3.66659 3.66634 1.83325 8.24967 1.83325H13.7497C18.333 1.83325 20.1663 3.66659 20.1663 8.24992V13.7499C20.1663 18.3333 18.333 20.1666 13.7497 20.1666Z" stroke="#FD7E14" stroke-width="1.4" stroke-linecap="round" stroke-linejoin="round"/>
</svg>
