<svg width="14" height="15" viewBox="0 0 14 15" fill="none" xmlns="http://www.w3.org/2000/svg">
<g clip-path="url(#clip0_2646_7205)">
<path d="M10.4036 10.3496H7.56104V8.17118C7.56104 7.77013 7.87922 7.44503 8.27169 7.44503H9.69299C10.0855 7.44503 10.4036 7.77013 10.4036 8.17118V10.3496Z" stroke="#FD7E14" stroke-miterlimit="10"/>
<path d="M6.35042 5.14648C6.62656 5.14648 6.85876 4.91633 6.76725 4.65579C6.57033 4.09518 6.04556 3.6942 5.42912 3.6942C4.81267 3.6942 4.28791 4.09518 4.09099 4.65579C3.99947 4.91633 4.23167 5.14648 4.50781 5.14648H6.35042Z" stroke="#FD7E14" stroke-miterlimit="10"/>
<path d="M5.42924 3.69301C5.42924 2.89094 4.79289 2.24073 4.00793 2.24073H3.29728C2.51232 2.24073 1.87598 2.89094 1.87598 3.69301V8.1709" stroke="#FD7E14" stroke-miterlimit="10"/>
<path d="M1.87598 9.62416V11.0765C1.87598 12.2796 2.83048 13.2549 4.00793 13.2549H9.69315C10.8706 13.2549 11.8251 12.2796 11.8251 11.0765V9.62416" stroke="#FD7E14" stroke-miterlimit="10"/>
<path d="M11.4718 13.6649C11.665 13.8623 11.6616 14.1788 11.4642 14.372C11.2669 14.5651 10.9503 14.5617 10.7571 14.3644L11.4718 13.6649ZM10.6698 12.8455L11.4718 13.6649L10.7571 14.3644L9.95516 13.5449L10.6698 12.8455Z" fill="#FD7E14"/>
<path d="M2.94426 14.3644C2.75111 14.5617 2.43455 14.5651 2.23719 14.372C2.03984 14.1788 2.03642 13.8623 2.22957 13.6649L2.94426 14.3644ZM3.74625 13.5449L2.94426 14.3644L2.22957 13.6649L3.03156 12.8455L3.74625 13.5449Z" fill="#FD7E14"/>
<path d="M10.4038 8.17174H11.8488C12.2413 8.17174 12.5595 8.49683 12.5595 8.89788C12.5595 9.29893 12.2413 9.62402 11.8488 9.62402H10.4038" stroke="#FD7E14" stroke-miterlimit="10"/>
<path d="M7.56116 9.62402H1.85225C1.45978 9.62402 1.1416 9.29893 1.1416 8.89788C1.1416 8.49683 1.45978 8.17174 1.85225 8.17174H7.56118" stroke="#FD7E14" stroke-miterlimit="10"/>
</g>
<defs>
<clipPath id="clip0_2646_7205">
<rect width="13.7013" height="14" fill="white" transform="translate(0 0.5)"/>
</clipPath>
</defs>
</svg>
