<svg width="22" height="22" viewBox="0 0 22 22" fill="none" xmlns="http://www.w3.org/2000/svg">
<path d="M20.1669 5.95825H14.6669" stroke="#FD7E14" stroke-width="1.5" stroke-miterlimit="10" stroke-linecap="round" stroke-linejoin="round"/>
<path d="M5.4998 5.95825H1.83313" stroke="#FD7E14" stroke-width="1.5" stroke-miterlimit="10" stroke-linecap="round" stroke-linejoin="round"/>
<path d="M9.16646 9.16667C10.9384 9.16667 12.3748 7.73025 12.3748 5.95833C12.3748 4.18642 10.9384 2.75 9.16646 2.75C7.39455 2.75 5.95813 4.18642 5.95813 5.95833C5.95813 7.73025 7.39455 9.16667 9.16646 9.16667Z" stroke="#FD7E14" stroke-width="1.5" stroke-miterlimit="10" stroke-linecap="round" stroke-linejoin="round"/>
<path d="M20.1667 16.0417H16.5" stroke="#FD7E14" stroke-width="1.5" stroke-miterlimit="10" stroke-linecap="round" stroke-linejoin="round"/>
<path d="M7.33313 16.0417H1.83313" stroke="#FD7E14" stroke-width="1.5" stroke-miterlimit="10" stroke-linecap="round" stroke-linejoin="round"/>
<path d="M12.8333 19.2499C14.6052 19.2499 16.0417 17.8135 16.0417 16.0416C16.0417 14.2697 14.6052 12.8333 12.8333 12.8333C11.0614 12.8333 9.625 14.2697 9.625 16.0416C9.625 17.8135 11.0614 19.2499 12.8333 19.2499Z" stroke="#FD7E14" stroke-width="1.5" stroke-miterlimit="10" stroke-linecap="round" stroke-linejoin="round"/>
</svg>
