<svg width="15" height="13" viewBox="0 0 15 13" fill="none" xmlns="http://www.w3.org/2000/svg">
<path d="M14.5746 5.69111C14.5195 5.35139 14.3564 5.03844 14.1096 4.79857C13.8628 4.55869 13.5454 4.40463 13.2042 4.35918C13.1387 4.35277 13.0729 4.34974 13.0071 4.35012V3.66829C13.0061 2.76748 12.6477 1.90386 12.0108 1.26689C11.3738 0.629913 10.5102 0.271587 9.60935 0.270508H5.98504C5.08422 0.271587 4.22061 0.629913 3.58363 1.26689C2.94666 1.90386 2.58833 2.76748 2.58725 3.66829V4.35012C2.52145 4.34974 2.45567 4.35277 2.39018 4.35918C2.04903 4.40463 1.73156 4.55869 1.48475 4.79857C1.23794 5.03844 1.0749 5.35139 1.01974 5.69111C0.95919 6.06989 1.03902 6.45775 1.24423 6.78184C1.44944 7.10592 1.76592 7.34393 2.13422 7.45116V10.4639C2.13475 10.6439 2.20652 10.8165 2.33385 10.9438C2.46117 11.0711 2.63371 11.1429 2.81377 11.1434V12.5025C2.81377 12.5626 2.83764 12.6202 2.88012 12.6627C2.9226 12.7052 2.98022 12.7291 3.04029 12.7291H3.71985C3.76915 12.7289 3.81707 12.7127 3.85631 12.6829C3.89556 12.653 3.924 12.6112 3.93731 12.5637L4.34278 11.1434H11.2516L11.6571 12.5637C11.6704 12.6112 11.6988 12.653 11.7381 12.6829C11.7773 12.7127 11.8252 12.7289 11.8745 12.7291H12.5541C12.6142 12.7291 12.6718 12.7052 12.7143 12.6627C12.7567 12.6202 12.7806 12.5626 12.7806 12.5025V11.1434C12.9607 11.1429 13.1332 11.0711 13.2605 10.9438C13.3879 10.8165 13.4596 10.6439 13.4602 10.4639V7.45116C13.8285 7.34393 14.1449 7.10592 14.3502 6.78184C14.5554 6.45775 14.6352 6.06989 14.5746 5.69111ZM3.04029 3.66829C3.04101 2.88752 3.35149 2.13893 3.90358 1.58684C4.45568 1.03475 5.20427 0.724266 5.98504 0.723546H9.60935C10.3901 0.724266 11.1387 1.03475 11.6908 1.58684C12.2429 2.13893 12.5534 2.88752 12.5541 3.66829V4.41581C12.2267 4.5125 11.9394 4.71261 11.7353 4.9862C11.5311 5.25978 11.421 5.59212 11.4215 5.93349V6.65382C11.3489 6.62744 11.2723 6.61366 11.195 6.61304H4.39941C4.32213 6.61366 4.24553 6.62744 4.17289 6.65382V5.93349C4.17336 5.59212 4.06328 5.25978 3.85911 4.9862C3.65495 4.71261 3.36768 4.5125 3.04029 4.41581V3.66829ZM11.4215 7.2926V8.4252H4.17289V7.2926C4.17289 7.23252 4.19675 7.17491 4.23923 7.13243C4.28171 7.08995 4.33933 7.06608 4.39941 7.06608H11.195C11.2551 7.06608 11.3127 7.08995 11.3552 7.13243C11.3976 7.17491 11.4215 7.23252 11.4215 7.2926ZM3.54996 12.276H3.26681V11.1434H3.87162L3.54996 12.276ZM12.3276 12.276H12.0444L11.7228 11.1434H12.3276V12.276ZM13.1951 7.04796C13.1425 7.0574 13.0948 7.08503 13.0605 7.12601C13.0261 7.16699 13.0072 7.21873 13.0071 7.27221V10.4639C13.0071 10.5239 12.9833 10.5816 12.9408 10.624C12.8983 10.6665 12.8407 10.6904 12.7806 10.6904H2.81377C2.7537 10.6904 2.69608 10.6665 2.6536 10.624C2.61112 10.5816 2.58725 10.5239 2.58725 10.4639V7.27221C2.58714 7.21873 2.56826 7.16699 2.5339 7.12601C2.49954 7.08503 2.45188 7.0574 2.39924 7.04796C2.13143 7.00308 1.8887 6.86336 1.71538 6.65432C1.54206 6.44529 1.44971 6.18088 1.45521 5.90939C1.46071 5.6379 1.56368 5.37744 1.74531 5.17559C1.92695 4.97374 2.17514 4.84396 2.44455 4.80995C2.49184 4.80355 2.53953 4.80052 2.58725 4.80089H2.58952C2.8654 4.80039 3.13169 4.90206 3.33703 5.0863C3.45707 5.19246 3.55325 5.32284 3.61923 5.46887C3.68521 5.61489 3.71951 5.77324 3.71985 5.93349V8.65172C3.71985 8.71179 3.74372 8.76941 3.7862 8.81189C3.82868 8.85437 3.88629 8.87823 3.94637 8.87823H11.648C11.7081 8.87823 11.7657 8.85437 11.8082 8.81189C11.8507 8.76941 11.8745 8.71179 11.8745 8.65172V5.93349C11.8749 5.77324 11.9092 5.61489 11.9752 5.46887C12.0411 5.32284 12.1373 5.19246 12.2574 5.0863C12.3774 4.97855 12.5193 4.89806 12.6733 4.85035C12.8274 4.80265 12.9899 4.78887 13.1498 4.80995C13.3929 4.84142 13.6193 4.95062 13.7952 5.12125C13.9712 5.29188 14.0872 5.51482 14.1261 5.7568V5.75907C14.1729 6.05335 14.1012 6.35419 13.9268 6.59574C13.7523 6.8373 13.4892 6.9999 13.1951 7.04796Z" fill="#FD7E14" stroke="#FD7E14" stroke-width="0.5"/>
</svg>
