<svg width="22" height="22" viewBox="0 0 22 22" fill="none" xmlns="http://www.w3.org/2000/svg">
<path d="M11 17.875C14.797 17.875 17.875 14.797 17.875 11C17.875 7.20304 14.797 4.125 11 4.125C7.20304 4.125 4.125 7.20304 4.125 11C4.125 14.797 7.20304 17.875 11 17.875Z" stroke="#FD7E14" stroke-width="1.5" stroke-linecap="round" stroke-linejoin="round"/>
<path d="M11 13.75C12.5188 13.75 13.75 12.5188 13.75 11C13.75 9.48122 12.5188 8.25 11 8.25C9.48122 8.25 8.25 9.48122 8.25 11C8.25 12.5188 9.48122 13.75 11 13.75Z" stroke="#FD7E14" stroke-width="1.5" stroke-linecap="round" stroke-linejoin="round"/>
<path d="M11 3.66634V1.83301" stroke="#FD7E14" stroke-width="1.5" stroke-linecap="round" stroke-linejoin="round"/>
<path d="M3.66634 11H1.83301" stroke="#FD7E14" stroke-width="1.5" stroke-linecap="round" stroke-linejoin="round"/>
<path d="M11 18.333V20.1663" stroke="#FD7E14" stroke-width="1.5" stroke-linecap="round" stroke-linejoin="round"/>
<path d="M18.333 11H20.1663" stroke="#FD7E14" stroke-width="1.5" stroke-linecap="round" stroke-linejoin="round"/>
</svg>
