<svg width="20" height="20" viewBox="0 0 20 20" fill="none" xmlns="http://www.w3.org/2000/svg">
<path d="M11.448 8.52015C11.448 9.3202 10.7994 9.96875 9.99938 9.96875C9.19933 9.96875 8.55078 9.3202 8.55078 8.52015C8.55078 7.72014 9.19933 7.07159 9.99938 7.07159C10.7994 7.07159 11.448 7.72014 11.448 8.52015Z" stroke="#FD7E14" stroke-width="0.9" stroke-miterlimit="10" stroke-linecap="round" stroke-linejoin="round"/>
<path d="M9.99959 9.9687C8.73237 9.9687 7.70508 10.996 7.70508 12.2632V12.9282H12.2941V12.2632C12.2941 10.996 11.2668 9.9687 9.99959 9.9687Z" stroke="#FD7E14" stroke-width="0.9" stroke-miterlimit="10" stroke-linecap="round" stroke-linejoin="round"/>
<path d="M18.7856 17.3125C18.6199 17.7196 18.3644 18.082 18.0853 18.4187C17.7851 18.7807 17.4443 19.0527 16.9464 18.9907C16.7126 18.9615 16.4901 18.8625 16.2546 18.8445C16.019 18.8625 15.7966 18.9615 15.5628 18.9907C15.0649 19.0527 14.7241 18.7807 14.4239 18.4187C14.1448 18.082 13.8893 17.7196 13.7236 17.3125C13.4926 16.7447 13.4386 16.105 13.6115 15.5137C13.701 15.2078 13.8496 14.9109 14.0695 14.6775C14.5739 14.1419 15.4153 14.366 15.8934 14.5594C16.0082 14.6058 16.1308 14.6296 16.2546 14.6295C16.3772 14.6295 16.5 14.6062 16.6158 14.5594C17.0939 14.366 17.9353 14.1419 18.4397 14.6775C18.6595 14.9109 18.8082 15.2078 18.8977 15.5137C19.0706 16.105 19.0166 16.7447 18.7856 17.3125Z" stroke="#FD7E14" stroke-width="0.9" stroke-miterlimit="10" stroke-linecap="round" stroke-linejoin="round"/>
<path d="M16.2544 14.6296C16.2544 14.6296 16.2563 13.4792 15.2646 12.9281" stroke="#FD7E14" stroke-width="0.9" stroke-miterlimit="10" stroke-linecap="round" stroke-linejoin="round"/>
<path d="M1 18.577C1 18.577 2.6535 18.3893 3.78001 18.9995V15.0262C2.6535 14.416 1 14.6038 1 14.6038V18.577Z" stroke="#FD7E14" stroke-width="0.9" stroke-miterlimit="10" stroke-linecap="round" stroke-linejoin="round"/>
<path d="M6.55931 18.577C6.55931 18.577 4.90581 18.3893 3.7793 18.9995V15.0262C4.90581 14.416 6.55931 14.6038 6.55931 14.6038V18.577Z" stroke="#FD7E14" stroke-width="0.9" stroke-miterlimit="10" stroke-linecap="round" stroke-linejoin="round"/>
<path d="M6.47942 4.40081L3.97056 6.90967L1.46174 4.40084C0.846088 3.7852 0.846088 2.78696 1.46174 2.17135L1.46177 2.17132C2.07742 1.55567 3.07562 1.55567 3.69127 2.17135L3.97056 2.45065L4.24993 2.17132C4.86557 1.55567 5.86377 1.55567 6.47942 2.17132C7.09507 2.78696 7.09507 3.7852 6.47942 4.40081Z" stroke="#FD7E14" stroke-width="0.9" stroke-miterlimit="10" stroke-linecap="round" stroke-linejoin="round"/>
<path d="M15.0262 5.29356C15.0262 5.92292 14.516 6.43311 13.8866 6.43311C13.2573 6.43311 12.7471 5.92292 12.7471 5.29356C12.7471 4.66417 13.2573 4.15398 13.8866 4.15398C14.516 4.15398 15.0262 4.66417 15.0262 5.29356ZM15.0262 5.29356V1.00005L18.9993 1.74692" stroke="#FD7E14" stroke-width="0.9" stroke-miterlimit="10" stroke-linecap="round" stroke-linejoin="round"/>
<path d="M18.9998 6.04039C18.9998 6.66974 18.4896 7.17993 17.8602 7.17993C17.2309 7.17993 16.7207 6.66974 16.7207 6.04039C16.7207 5.411 17.2309 4.90081 17.8602 4.90081C18.4896 4.90081 18.9998 5.411 18.9998 6.04039ZM18.9998 6.04039V1.74688" stroke="#FD7E14" stroke-width="0.9" stroke-miterlimit="10" stroke-linecap="round" stroke-linejoin="round"/>
<path d="M8.64746 1.73146C9.08774 1.65976 9.53923 1.62279 9.99968 1.62279C11.0464 1.62279 12.0487 1.81474 12.9726 2.16577" stroke="#FD7E14" stroke-width="0.9" stroke-miterlimit="10" stroke-linecap="round" stroke-linejoin="round"/>
<path d="M8.61426 18.2624C9.07226 18.3386 9.53578 18.3768 10.0001 18.3767C10.6383 18.3767 11.2597 18.3053 11.8568 18.1702" stroke="#FD7E14" stroke-width="0.9" stroke-miterlimit="10" stroke-linecap="round" stroke-linejoin="round"/>
<path d="M1.92407 7.76746C1.72765 8.47811 1.62305 9.22685 1.62305 9.99987C1.62305 10.8819 1.75939 11.7319 2.01217 12.5303" stroke="#FD7E14" stroke-width="0.9" stroke-miterlimit="10" stroke-linecap="round" stroke-linejoin="round"/>
<path d="M18.3383 9.19802C18.3639 9.46451 18.3766 9.73208 18.3765 9.99979C18.3765 10.8045 18.2629 11.5828 18.0508 12.3196" stroke="#FD7E14" stroke-width="0.9" stroke-miterlimit="10" stroke-linecap="round" stroke-linejoin="round"/>
</svg>
