<svg width="118" height="102" viewBox="0 0 118 102" fill="none" xmlns="http://www.w3.org/2000/svg">
<rect width="118" height="102" rx="12" fill="white"/>
<rect x="0.5" y="0.5" width="117" height="101" rx="11.5" stroke="#0D0C22" stroke-opacity="0.1"/>
<path d="M67.5954 21.3176V28.3176C67.5954 28.6358 67.4045 28.8903 67.0863 28.9539L60.0863 30.6721H59.8317L52.8317 28.9539C52.5772 28.8903 52.3227 28.6358 52.3227 28.3176V21.3176C52.3227 21.1267 52.3863 20.9358 52.5772 20.8085C52.7045 20.6812 52.8954 20.6812 53.0863 20.6812L59.959 22.3994L66.8317 20.6812C67.0227 20.6176 67.2136 20.6812 67.4045 20.8085C67.5317 20.9358 67.5954 21.1267 67.5954 21.3176ZM48.3772 41.9994C48.3772 42.8903 47.5499 43.6539 46.5317 43.6539C45.5136 43.6539 44.6863 42.8903 44.6863 41.9994C44.6863 41.0449 45.5136 40.3449 46.5317 40.3449C46.7227 40.3449 46.9136 40.4085 47.1045 40.4085V37.3539L43.4136 38.4994V43.3994C43.4136 44.2903 42.5863 45.0539 41.5681 45.0539C40.5499 45.0539 39.7227 44.2903 39.7227 43.3994C39.7227 42.4449 40.5499 41.7449 41.5681 41.7449C41.759 41.7449 41.9499 41.8085 42.1408 41.8085V37.9903C42.1408 37.7358 42.3317 37.4812 42.5863 37.4176L47.5499 35.8267C47.7408 35.763 47.9317 35.8267 48.1227 35.9539C48.3136 36.0812 48.3772 36.2721 48.3772 36.463V41.6812V41.9994ZM77.6499 36.5903H70.7772C70.3954 36.5903 70.1408 36.8449 70.1408 37.2267V43.8449C70.1408 44.163 70.3954 44.4812 70.7772 44.4812H77.6499C78.0317 44.4812 78.2863 44.163 78.2863 43.8449V37.2267C78.2863 36.8449 77.9681 36.5903 77.6499 36.5903ZM75.9954 41.0449L73.3227 42.4449C73.259 42.5085 73.1317 42.5085 73.0045 42.5085C72.8772 42.5085 72.7499 42.5085 72.6863 42.3812C72.4954 42.2539 72.3681 42.063 72.3681 41.8721V39.1358C72.3681 38.8812 72.4954 38.6903 72.6863 38.563C72.8772 38.4358 73.1317 38.4358 73.3227 38.563L75.9954 39.963C76.1863 40.0903 76.3136 40.2812 76.3136 40.5358C76.3772 40.7267 76.2499 40.9812 75.9954 41.0449ZM44.0499 35.5085H44.2408C44.4954 35.5085 44.7499 35.3176 44.8772 35.063C45.7681 31.8812 47.8045 29.0812 50.4772 27.1721C50.7317 26.9812 50.859 26.5994 50.6045 26.2812C50.4136 25.963 50.0317 25.8994 49.7136 26.1539C46.7863 28.2539 44.6227 31.3085 43.6045 34.7449C43.5408 35.063 43.7317 35.4449 44.0499 35.5085Z" fill="#FD7E14"/>
<path d="M73.259 46.4532C73.3863 46.135 73.3227 45.7532 73.0045 45.5623C72.6863 45.435 72.3045 45.5623 72.1136 45.8169C70.9681 48.0441 69.3136 49.9532 67.2772 51.3532C66.8318 51.1623 66.3863 50.9714 65.9408 50.8441H65.8136C65.0499 50.8441 64.3499 50.4623 63.9681 49.8896C63.7136 49.5078 63.5863 49.0623 63.5863 48.6169V46.835C64.9863 45.7532 65.9408 44.035 65.9408 42.0623L65.8772 40.026C65.8772 39.9623 65.9408 39.8987 65.9408 39.835C65.9408 36.5896 63.2681 33.9169 60.0227 33.9169C56.7772 33.9169 54.1045 36.5896 54.1045 39.835V42.0623C54.1045 43.9714 55.059 45.6896 56.459 46.7714V48.5532C56.459 48.9987 56.3318 49.4441 56.0772 49.826C55.6318 50.4623 54.9318 50.8441 54.2318 50.8441H54.1045C53.2772 51.0351 52.4499 51.4169 51.8136 51.9896C49.1408 50.4623 46.9772 48.1078 45.7045 45.3078C45.5772 44.9896 45.1954 44.8623 44.8772 44.9896C44.559 45.1169 44.4318 45.4987 44.559 45.8169C45.8954 48.7441 48.1227 51.226 50.859 52.8805C50.7954 52.9441 50.7318 53.0714 50.6045 53.135C49.7136 54.2805 49.2681 55.6805 49.2681 57.0805V57.9714C49.2681 59.8169 50.7954 61.3441 52.6408 61.3441H67.4681C69.3136 61.3441 70.8408 59.8169 70.8408 57.9714V57.0805C70.8408 55.6805 70.3318 54.2805 69.5045 53.135C69.1863 52.7532 68.8681 52.4351 68.4863 52.1169C70.459 50.6532 72.1136 48.7441 73.259 46.4532ZM60.9136 51.226C60.3408 51.6714 59.5136 51.6714 58.9408 51.226L57.2863 50.0805C57.4772 49.6351 57.6045 49.126 57.6045 48.6805V47.5987C58.3045 47.9169 59.0681 48.0441 59.8954 48.0441C60.7227 48.0441 61.4863 47.8532 62.1863 47.5987V48.6805C62.1863 49.1896 62.3136 49.6351 62.5045 50.0805L60.9136 51.226ZM59.959 46.7714C57.3499 46.7714 55.3136 44.6714 55.3136 42.126V40.9169C55.9499 41.1714 56.5863 41.235 57.159 41.235C58.7499 41.235 60.1499 40.5987 61.0408 40.1532C61.2954 40.026 61.6772 39.835 61.7408 39.835L64.5408 40.4078L64.6045 42.126C64.6045 44.6714 62.5045 46.7714 59.959 46.7714ZM73.0681 34.8078C73.1318 35.0623 73.3863 35.2532 73.7045 35.2532H73.8954C74.2136 35.126 74.4045 34.8078 74.3408 34.426C73.5772 32.0078 72.1772 29.7169 70.3954 27.935C70.1408 27.6805 69.759 27.6805 69.5045 27.935C69.2499 28.1896 69.2499 28.5714 69.5045 28.826C71.0954 30.4805 72.3681 32.5169 73.0681 34.8078Z" fill="#FD7E14"/>
<path d="M37.7305 69.4688V78H36.2598V69.4688H37.7305ZM40.8184 73.0137V78H39.4062V71.6602H40.7363L40.8184 73.0137ZM40.5664 74.5957L40.1094 74.5898C40.1133 74.1406 40.1758 73.7285 40.2969 73.3535C40.4219 72.9785 40.5938 72.6562 40.8125 72.3867C41.0352 72.1172 41.3008 71.9102 41.6094 71.7656C41.918 71.6172 42.2617 71.543 42.6406 71.543C42.9453 71.543 43.2207 71.5859 43.4668 71.6719C43.7168 71.7539 43.9297 71.8887 44.1055 72.0762C44.2852 72.2637 44.4219 72.5078 44.5156 72.8086C44.6094 73.1055 44.6562 73.4707 44.6562 73.9043V78H43.2383V73.8984C43.2383 73.5938 43.1934 73.3535 43.1035 73.1777C43.0176 72.998 42.8906 72.8711 42.7227 72.7969C42.5586 72.7188 42.3535 72.6797 42.1074 72.6797C41.8652 72.6797 41.6484 72.7305 41.457 72.832C41.2656 72.9336 41.1035 73.0723 40.9707 73.248C40.8418 73.4238 40.7422 73.627 40.6719 73.8574C40.6016 74.0879 40.5664 74.334 40.5664 74.5957ZM49.0039 71.6602V72.6914H45.4297V71.6602H49.0039ZM46.4609 70.1074H47.873V76.248C47.873 76.4434 47.9004 76.5938 47.9551 76.6992C48.0137 76.8008 48.0938 76.8691 48.1953 76.9043C48.2969 76.9395 48.416 76.957 48.5527 76.957C48.6504 76.957 48.7441 76.9512 48.834 76.9395C48.9238 76.9277 48.9961 76.916 49.0508 76.9043L49.0566 77.9824C48.9395 78.0176 48.8027 78.0488 48.6465 78.0762C48.4941 78.1035 48.3184 78.1172 48.1191 78.1172C47.7949 78.1172 47.5078 78.0605 47.2578 77.9473C47.0078 77.8301 46.8125 77.6406 46.6719 77.3789C46.5312 77.1172 46.4609 76.7695 46.4609 76.3359V70.1074ZM52.8887 78.1172C52.4199 78.1172 51.9961 78.041 51.6172 77.8887C51.2422 77.7324 50.9219 77.5156 50.6562 77.2383C50.3945 76.9609 50.1934 76.6348 50.0527 76.2598C49.9121 75.8848 49.8418 75.4805 49.8418 75.0469V74.8125C49.8418 74.3164 49.9141 73.8672 50.0586 73.4648C50.2031 73.0625 50.4043 72.7188 50.6621 72.4336C50.9199 72.1445 51.2246 71.9238 51.5762 71.7715C51.9277 71.6191 52.3086 71.543 52.7188 71.543C53.1719 71.543 53.5684 71.6191 53.9082 71.7715C54.248 71.9238 54.5293 72.1387 54.752 72.416C54.9785 72.6895 55.1465 73.0156 55.2559 73.3945C55.3691 73.7734 55.4258 74.1914 55.4258 74.6484V75.252H50.5273V74.2383H54.0312V74.127C54.0234 73.873 53.9727 73.6348 53.8789 73.4121C53.7891 73.1895 53.6504 73.0098 53.4629 72.873C53.2754 72.7363 53.0254 72.668 52.7129 72.668C52.4785 72.668 52.2695 72.7188 52.0859 72.8203C51.9062 72.918 51.7559 73.0605 51.6348 73.248C51.5137 73.4355 51.4199 73.6621 51.3535 73.9277C51.291 74.1895 51.2598 74.4844 51.2598 74.8125V75.0469C51.2598 75.3242 51.2969 75.582 51.3711 75.8203C51.4492 76.0547 51.5625 76.2598 51.7109 76.4355C51.8594 76.6113 52.0391 76.75 52.25 76.8516C52.4609 76.9492 52.7012 76.998 52.9707 76.998C53.3105 76.998 53.6133 76.9297 53.8789 76.793C54.1445 76.6562 54.375 76.4629 54.5703 76.2129L55.3145 76.9336C55.1777 77.1328 55 77.3242 54.7812 77.5078C54.5625 77.6875 54.2949 77.834 53.9785 77.9473C53.666 78.0605 53.3027 78.1172 52.8887 78.1172ZM57.9453 72.8672V78H56.5332V71.6602H57.8809L57.9453 72.8672ZM59.8848 71.6191L59.873 72.9316C59.7871 72.916 59.6934 72.9043 59.5918 72.8965C59.4941 72.8887 59.3965 72.8848 59.2988 72.8848C59.0566 72.8848 58.8438 72.9199 58.6602 72.9902C58.4766 73.0566 58.3223 73.1543 58.1973 73.2832C58.0762 73.4082 57.9824 73.5605 57.916 73.7402C57.8496 73.9199 57.8105 74.1211 57.7988 74.3438L57.4766 74.3672C57.4766 73.9688 57.5156 73.5996 57.5938 73.2598C57.6719 72.9199 57.7891 72.6211 57.9453 72.3633C58.1055 72.1055 58.3047 71.9043 58.543 71.7598C58.7852 71.6152 59.0645 71.543 59.3809 71.543C59.4668 71.543 59.5586 71.5508 59.6562 71.5664C59.7578 71.582 59.834 71.5996 59.8848 71.6191ZM63.4473 78.1172C62.9785 78.1172 62.5547 78.041 62.1758 77.8887C61.8008 77.7324 61.4805 77.5156 61.2148 77.2383C60.9531 76.9609 60.752 76.6348 60.6113 76.2598C60.4707 75.8848 60.4004 75.4805 60.4004 75.0469V74.8125C60.4004 74.3164 60.4727 73.8672 60.6172 73.4648C60.7617 73.0625 60.9629 72.7188 61.2207 72.4336C61.4785 72.1445 61.7832 71.9238 62.1348 71.7715C62.4863 71.6191 62.8672 71.543 63.2773 71.543C63.7305 71.543 64.127 71.6191 64.4668 71.7715C64.8066 71.9238 65.0879 72.1387 65.3105 72.416C65.5371 72.6895 65.7051 73.0156 65.8145 73.3945C65.9277 73.7734 65.9844 74.1914 65.9844 74.6484V75.252H61.0859V74.2383H64.5898V74.127C64.582 73.873 64.5312 73.6348 64.4375 73.4121C64.3477 73.1895 64.209 73.0098 64.0215 72.873C63.834 72.7363 63.584 72.668 63.2715 72.668C63.0371 72.668 62.8281 72.7188 62.6445 72.8203C62.4648 72.918 62.3145 73.0605 62.1934 73.248C62.0723 73.4355 61.9785 73.6621 61.9121 73.9277C61.8496 74.1895 61.8184 74.4844 61.8184 74.8125V75.0469C61.8184 75.3242 61.8555 75.582 61.9297 75.8203C62.0078 76.0547 62.1211 76.2598 62.2695 76.4355C62.418 76.6113 62.5977 76.75 62.8086 76.8516C63.0195 76.9492 63.2598 76.998 63.5293 76.998C63.8691 76.998 64.1719 76.9297 64.4375 76.793C64.7031 76.6562 64.9336 76.4629 65.1289 76.2129L65.873 76.9336C65.7363 77.1328 65.5586 77.3242 65.3398 77.5078C65.1211 77.6875 64.8535 77.834 64.5371 77.9473C64.2246 78.0605 63.8613 78.1172 63.4473 78.1172ZM70.6426 76.2832C70.6426 76.1426 70.6074 76.0156 70.5371 75.9023C70.4668 75.7852 70.332 75.6797 70.1328 75.5859C69.9375 75.4922 69.6484 75.4062 69.2656 75.3281C68.9297 75.2539 68.6211 75.166 68.3398 75.0645C68.0625 74.959 67.8242 74.832 67.625 74.6836C67.4258 74.5352 67.2715 74.3594 67.1621 74.1562C67.0527 73.9531 66.998 73.7188 66.998 73.4531C66.998 73.1953 67.0547 72.9512 67.168 72.7207C67.2812 72.4902 67.4434 72.2871 67.6543 72.1113C67.8652 71.9355 68.1211 71.7969 68.4219 71.6953C68.7266 71.5938 69.0664 71.543 69.4414 71.543C69.9727 71.543 70.4277 71.6328 70.8066 71.8125C71.1895 71.9883 71.4824 72.2285 71.6855 72.5332C71.8887 72.834 71.9902 73.1738 71.9902 73.5527H70.5781C70.5781 73.3848 70.5352 73.2285 70.4492 73.084C70.3672 72.9355 70.2422 72.8164 70.0742 72.7266C69.9062 72.6328 69.6953 72.5859 69.4414 72.5859C69.1992 72.5859 68.998 72.625 68.8379 72.7031C68.6816 72.7773 68.5645 72.875 68.4863 72.9961C68.4121 73.1172 68.375 73.25 68.375 73.3945C68.375 73.5 68.3945 73.5957 68.4336 73.6816C68.4766 73.7637 68.5469 73.8398 68.6445 73.9102C68.7422 73.9766 68.875 74.0391 69.043 74.0977C69.2148 74.1562 69.4297 74.2129 69.6875 74.2676C70.1719 74.3691 70.5879 74.5 70.9355 74.6602C71.2871 74.8164 71.5566 75.0195 71.7441 75.2695C71.9316 75.5156 72.0254 75.8281 72.0254 76.207C72.0254 76.4883 71.9648 76.7461 71.8438 76.9805C71.7266 77.2109 71.5547 77.4121 71.3281 77.584C71.1016 77.752 70.8301 77.8828 70.5137 77.9766C70.2012 78.0703 69.8496 78.1172 69.459 78.1172C68.8848 78.1172 68.3984 78.0156 68 77.8125C67.6016 77.6055 67.2988 77.3418 67.0918 77.0215C66.8887 76.6973 66.7871 76.3613 66.7871 76.0137H68.1523C68.168 76.2754 68.2402 76.4844 68.3691 76.6406C68.502 76.793 68.666 76.9043 68.8613 76.9746C69.0605 77.041 69.2656 77.0742 69.4766 77.0742C69.7305 77.0742 69.9434 77.041 70.1152 76.9746C70.2871 76.9043 70.418 76.8105 70.5078 76.6934C70.5977 76.5723 70.6426 76.4355 70.6426 76.2832ZM76.168 71.6602V72.6914H72.5938V71.6602H76.168ZM73.625 70.1074H75.0371V76.248C75.0371 76.4434 75.0645 76.5938 75.1191 76.6992C75.1777 76.8008 75.2578 76.8691 75.3594 76.9043C75.4609 76.9395 75.5801 76.957 75.7168 76.957C75.8145 76.957 75.9082 76.9512 75.998 76.9395C76.0879 76.9277 76.1602 76.916 76.2148 76.9043L76.2207 77.9824C76.1035 78.0176 75.9668 78.0488 75.8105 78.0762C75.6582 78.1035 75.4824 78.1172 75.2832 78.1172C74.959 78.1172 74.6719 78.0605 74.4219 77.9473C74.1719 77.8301 73.9766 77.6406 73.8359 77.3789C73.6953 77.1172 73.625 76.7695 73.625 76.3359V70.1074ZM80.8145 76.2832C80.8145 76.1426 80.7793 76.0156 80.709 75.9023C80.6387 75.7852 80.5039 75.6797 80.3047 75.5859C80.1094 75.4922 79.8203 75.4062 79.4375 75.3281C79.1016 75.2539 78.793 75.166 78.5117 75.0645C78.2344 74.959 77.9961 74.832 77.7969 74.6836C77.5977 74.5352 77.4434 74.3594 77.334 74.1562C77.2246 73.9531 77.1699 73.7188 77.1699 73.4531C77.1699 73.1953 77.2266 72.9512 77.3398 72.7207C77.4531 72.4902 77.6152 72.2871 77.8262 72.1113C78.0371 71.9355 78.293 71.7969 78.5938 71.6953C78.8984 71.5938 79.2383 71.543 79.6133 71.543C80.1445 71.543 80.5996 71.6328 80.9785 71.8125C81.3613 71.9883 81.6543 72.2285 81.8574 72.5332C82.0605 72.834 82.1621 73.1738 82.1621 73.5527H80.75C80.75 73.3848 80.707 73.2285 80.6211 73.084C80.5391 72.9355 80.4141 72.8164 80.2461 72.7266C80.0781 72.6328 79.8672 72.5859 79.6133 72.5859C79.3711 72.5859 79.1699 72.625 79.0098 72.7031C78.8535 72.7773 78.7363 72.875 78.6582 72.9961C78.584 73.1172 78.5469 73.25 78.5469 73.3945C78.5469 73.5 78.5664 73.5957 78.6055 73.6816C78.6484 73.7637 78.7188 73.8398 78.8164 73.9102C78.9141 73.9766 79.0469 74.0391 79.2148 74.0977C79.3867 74.1562 79.6016 74.2129 79.8594 74.2676C80.3438 74.3691 80.7598 74.5 81.1074 74.6602C81.459 74.8164 81.7285 75.0195 81.916 75.2695C82.1035 75.5156 82.1973 75.8281 82.1973 76.207C82.1973 76.4883 82.1367 76.7461 82.0156 76.9805C81.8984 77.2109 81.7266 77.4121 81.5 77.584C81.2734 77.752 81.002 77.8828 80.6855 77.9766C80.373 78.0703 80.0215 78.1172 79.6309 78.1172C79.0566 78.1172 78.5703 78.0156 78.1719 77.8125C77.7734 77.6055 77.4707 77.3418 77.2637 77.0215C77.0605 76.6973 76.959 76.3613 76.959 76.0137H78.3242C78.3398 76.2754 78.4121 76.4844 78.541 76.6406C78.6738 76.793 78.8379 76.9043 79.0332 76.9746C79.2324 77.041 79.4375 77.0742 79.6484 77.0742C79.9023 77.0742 80.1152 77.041 80.2871 76.9746C80.459 76.9043 80.5898 76.8105 80.6797 76.6934C80.7695 76.5723 80.8145 76.4355 80.8145 76.2832Z" fill="#1F1F1F"/>
</svg>
