<svg width="24" height="24" viewBox="0 0 24 24" fill="none" xmlns="http://www.w3.org/2000/svg">
<path d="M21.6667 6.28325H14.3333C14.2317 6.28325 14.1342 6.32364 14.0623 6.39553C13.9904 6.46742 13.95 6.56492 13.95 6.66659V14.6166H12.3833V14.3833H12.6667C12.7683 14.3833 12.8658 14.3429 12.9377 14.271C13.0096 14.1991 13.05 14.1016 13.05 13.9999C13.05 13.8983 13.0096 13.8008 12.9377 13.7289C12.8658 13.657 12.7683 13.6166 12.6667 13.6166H9.33333C9.23167 13.6166 9.13416 13.657 9.06228 13.7289C8.99039 13.8008 8.95 13.8983 8.95 13.9999C8.95 14.1016 8.99039 14.1991 9.06228 14.271C9.13416 14.3429 9.23167 14.3833 9.33333 14.3833H9.61667V14.6166H6.38333V14.3833H6.66667C6.76833 14.3833 6.86584 14.3429 6.93772 14.271C7.00961 14.1991 7.05 14.1016 7.05 13.9999C7.05 13.8983 7.00961 13.8008 6.93772 13.7289C6.86584 13.657 6.76833 13.6166 6.66667 13.6166H3.33333C3.23167 13.6166 3.13416 13.657 3.06228 13.7289C2.99039 13.8008 2.95 13.8983 2.95 13.9999C2.95 14.1016 2.99039 14.1991 3.06228 14.271C3.13416 14.3429 3.23167 14.3833 3.33333 14.3833H3.61667V14.6166H2.33333C2.23167 14.6166 2.13416 14.657 2.06228 14.7289C1.99039 14.8008 1.95 14.8983 1.95 14.9999V21.6666C1.95 21.7683 1.99039 21.8658 2.06228 21.9376C2.13416 22.0095 2.23167 22.0499 2.33333 22.0499H21.6667C21.7683 22.0499 21.8658 22.0095 21.9377 21.9376C22.0096 21.8658 22.05 21.7683 22.05 21.6666V6.66659C22.05 6.56492 22.0096 6.46742 21.9377 6.39553C21.8658 6.32364 21.7683 6.28325 21.6667 6.28325ZM10.3833 14.3833H11.6167V14.6166H10.3833V14.3833ZM4.38333 14.3833H5.61667V14.6166H4.38333V14.3833ZM7.28333 21.2833H2.71667V17.3833H7.28333V21.2833ZM7.28333 16.6166H2.71667V15.3833H7.28333V16.6166ZM13.95 21.2833H8.05V15.3833H13.95V21.2833ZM21.2833 21.2833H14.7167V12.3833H21.2833V21.2833ZM21.2833 11.6166H14.7167V7.04992H21.2833V11.6166Z" fill="#FD7E14" stroke="#FD7E14" stroke-width="0.1"/>
<path d="M6.33323 3.28333C6.27702 3.28326 6.22147 3.29555 6.17053 3.31933C6.11959 3.34311 6.07451 3.3778 6.03846 3.42094L6.03842 3.42099L2.70512 7.42095L6.33317 3.33333M6.33323 3.28333L6.33317 3.33333M6.33323 3.28333H6.33317V3.33333M6.33323 3.28333H6.6165M6.33317 3.33333H6.6165V3.28333M6.6165 3.28333H6.6665L9.80799 3.36464C9.76369 3.34396 9.71539 3.33327 9.6665 3.33333V3.28333H9.66644H9.38317V2.33333C9.38317 2.23167 9.34278 2.13416 9.27089 2.06228C9.199 1.99039 9.1015 1.95 8.99984 1.95H6.99983C6.89817 1.95 6.80067 1.99039 6.72878 2.06228C6.65689 2.13416 6.6165 2.23167 6.6165 2.33333V3.28333ZM12.9998 8.05C13.0727 8.05009 13.1442 8.02937 13.2057 7.99028C13.2673 7.95119 13.3164 7.89534 13.3474 7.8293C13.3783 7.76327 13.3898 7.68977 13.3804 7.61744C13.3711 7.54512 13.3413 7.47698 13.2946 7.42099L2.99984 8V8.05H2.9999H12.9998ZM12.9998 8.05L12.9998 8V8.05H12.9998ZM2.75362 7.96088L2.75362 7.96088L2.70509 7.42099C2.63995 7.49901 2.60846 7.59972 2.61755 7.70096C2.62665 7.80221 2.67559 7.89571 2.75362 7.96088ZM8.99984 20.7167H12.9998C13.1015 20.7167 13.199 20.6763 13.2709 20.6044C13.3428 20.5325 13.3832 20.435 13.3832 20.3333V16.3333C13.3832 16.2317 13.3428 16.1342 13.2709 16.0623C13.199 15.9904 13.1015 15.95 12.9998 15.95H8.99984C8.89817 15.95 8.80067 15.9904 8.72878 16.0623C8.65689 16.1342 8.6165 16.2317 8.6165 16.3333V20.3333C8.6165 20.435 8.65689 20.5325 8.72878 20.6044C8.80067 20.6763 8.89817 20.7167 8.99984 20.7167ZM9.38317 16.7167H12.6165V19.95H9.38317V16.7167ZM15.3332 11.3833C15.4348 11.3833 15.5323 11.3429 15.6042 11.2711C15.6761 11.1992 15.7165 11.1017 15.7165 11V9.66667C15.7165 9.565 15.6761 9.4675 15.6042 9.39561C15.5323 9.32372 15.4348 9.28333 15.3332 9.28333C15.2315 9.28333 15.134 9.32372 15.0621 9.39561C14.9902 9.4675 14.9498 9.565 14.9498 9.66667V11C14.9498 11.1017 14.9902 11.1992 15.0621 11.2711C15.134 11.3429 15.2315 11.3833 15.3332 11.3833ZM15.3332 14.7167C15.4348 14.7167 15.5323 14.6763 15.6042 14.6044C15.6761 14.5325 15.7165 14.435 15.7165 14.3333V13C15.7165 12.8983 15.6761 12.8008 15.6042 12.7289C15.5323 12.6571 15.4348 12.6167 15.3332 12.6167C15.2315 12.6167 15.134 12.6571 15.0621 12.7289C14.9902 12.8008 14.9498 12.8983 14.9498 13V14.3333C14.9498 14.435 14.9902 14.5325 15.0621 14.6044C15.134 14.6763 15.2315 14.7167 15.3332 14.7167ZM7.38317 2.71667H8.6165V3.28333H7.38317V2.71667ZM6.51292 4.05H9.48675L12.1814 7.28333H3.81826L6.51292 4.05Z" fill="#FD7E14" stroke="#FD7E14" stroke-width="0.1"/>
</svg>
