<svg width="61" height="62" viewBox="0 0 61 62" fill="none" xmlns="http://www.w3.org/2000/svg">
<path d="M14.5274 5.98831H18.5371V9.16384C17.38 9.57422 16.5488 10.6793 16.5488 11.9753C16.5488 13.6198 17.8867 14.9578 19.5313 14.9578C21.1759 14.9578 22.5137 13.6198 22.5137 11.9753C22.5137 10.6793 21.6826 9.57422 20.5254 9.16384V5.98831H26.4906V9.16384C25.3335 9.57422 24.5023 10.6793 24.5023 11.9753C24.5023 13.6198 25.8402 14.9578 27.4848 14.9578C29.1294 14.9578 30.4672 13.6198 30.4672 11.9753C30.4672 10.6793 29.636 9.57422 28.4789 9.16384V5.98831H32.4886C33.0376 5.98831 33.4828 5.54319 33.4828 4.99415C33.4828 4.44512 33.0376 4 32.4886 4H14.5274C13.9783 4 13.5332 4.44512 13.5332 4.99415C13.5332 5.54319 13.9783 5.98831 14.5274 5.98831ZM32.4884 13.4771C32.4884 14.0261 32.9335 14.4712 33.4826 14.4712H33.8141V12.4829H33.4826C32.9335 12.4829 32.4884 12.928 32.4884 13.4771ZM45.4789 14.4712C46.0279 14.4712 46.473 14.0261 46.473 13.4771C46.473 12.928 46.0279 12.4829 45.4789 12.4829H45.1474V14.4712H45.4789ZM45.1474 11.4886C45.1474 9.8441 43.8094 8.50617 42.1649 8.50617H40.4748V8.17472C40.4748 7.62568 40.0297 7.18056 39.4807 7.18056C38.9316 7.18056 38.4865 7.62568 38.4865 8.17472V8.50617H36.7965C35.1519 8.50617 33.814 9.8441 33.814 11.4886V12.4829H45.1474V11.4886ZM46.4728 20.7015H14.5274C13.9783 20.7015 13.5332 21.1466 13.5332 21.6957V24.6783H47.467V21.6957C47.467 21.1466 47.0218 20.7015 46.4728 20.7015ZM23.5079 38H31.4944V26.6667H23.5079V38ZM25.4965 31.6706C25.4965 31.1215 25.9416 30.6764 26.4906 30.6764C27.0396 30.6764 27.4848 31.1215 27.4848 31.6706V32.9962C27.4848 33.5452 27.0396 33.9903 26.4906 33.9903C25.9416 33.9903 25.4965 33.5452 25.4965 32.9962V31.6706ZM13.5332 37.0059C13.5332 37.5549 13.9783 38 14.5274 38H21.5197V26.6667H13.5332V37.0059ZM17.5424 31.6706C17.5424 31.1215 17.9875 30.6764 18.5366 30.6764C19.0856 30.6764 19.5307 31.1215 19.5307 31.6706V32.9962C19.5307 33.5452 19.0856 33.9903 18.5366 33.9903C17.9875 33.9903 17.5424 33.5452 17.5424 32.9962V31.6706ZM38.4535 30.6433H42.4962V34.0235H38.4535V30.6433Z" fill="#FD7E14"/>
<path d="M33.4844 38.0005H46.4745C47.0235 38.0005 47.4687 37.5553 47.4687 37.0063V26.6671H33.4844V38.0005ZM36.4668 29.6496C36.4668 29.1005 36.912 28.6554 37.461 28.6554H43.4921C44.041 28.6554 44.4862 29.1005 44.4862 29.6496V35.0181C44.4862 35.5671 44.041 36.0122 43.4921 36.0122H37.4611C36.912 36.0122 36.4669 35.5671 36.4669 35.0181L36.4668 29.6496ZM33.8157 16.7252C33.8157 17.4886 34.1043 18.1856 34.5776 18.7137H44.3871C44.8605 18.1856 45.1491 17.4886 45.1491 16.7252V14.4717H33.8157V16.7252Z" fill="#FD7E14"/>
<path d="M12.3379 49.4688V58H10.8672V49.4688H12.3379ZM17.4648 49.4688L14.0078 53.5762L12.0391 55.6621L11.7812 54.2031L13.1875 52.4688L15.6719 49.4688H17.4648ZM15.8828 58L13.0762 53.957L14.0898 52.9551L17.6289 58H15.8828ZM19.8203 51.6602V58H18.4023V51.6602H19.8203ZM18.3086 49.9961C18.3086 49.7812 18.3789 49.6035 18.5195 49.4629C18.6641 49.3184 18.8633 49.2461 19.1172 49.2461C19.3672 49.2461 19.5645 49.3184 19.709 49.4629C19.8535 49.6035 19.9258 49.7812 19.9258 49.9961C19.9258 50.207 19.8535 50.3828 19.709 50.5234C19.5645 50.6641 19.3672 50.7344 19.1172 50.7344C18.8633 50.7344 18.6641 50.6641 18.5195 50.5234C18.3789 50.3828 18.3086 50.207 18.3086 49.9961ZM24.2734 51.6602V52.6914H20.6992V51.6602H24.2734ZM21.7305 50.1074H23.1426V56.248C23.1426 56.4434 23.1699 56.5938 23.2246 56.6992C23.2832 56.8008 23.3633 56.8691 23.4648 56.9043C23.5664 56.9395 23.6855 56.957 23.8223 56.957C23.9199 56.957 24.0137 56.9512 24.1035 56.9395C24.1934 56.9277 24.2656 56.916 24.3203 56.9043L24.3262 57.9824C24.209 58.0176 24.0723 58.0488 23.916 58.0762C23.7637 58.1035 23.5879 58.1172 23.3887 58.1172C23.0645 58.1172 22.7773 58.0605 22.5273 57.9473C22.2773 57.8301 22.082 57.6406 21.9414 57.3789C21.8008 57.1172 21.7305 56.7695 21.7305 56.3359V50.1074ZM27.9531 56.9922C28.1836 56.9922 28.3906 56.9473 28.5742 56.8574C28.7617 56.7637 28.9121 56.6348 29.0254 56.4707C29.1426 56.3066 29.207 56.1172 29.2188 55.9023H30.5488C30.541 56.3125 30.4199 56.6855 30.1855 57.0215C29.9512 57.3574 29.6406 57.625 29.2539 57.8242C28.8672 58.0195 28.4395 58.1172 27.9707 58.1172C27.4863 58.1172 27.0645 58.0352 26.7051 57.8711C26.3457 57.7031 26.0469 57.4727 25.8086 57.1797C25.5703 56.8867 25.3906 56.5488 25.2695 56.166C25.1523 55.7832 25.0938 55.373 25.0938 54.9355V54.7305C25.0938 54.293 25.1523 53.8828 25.2695 53.5C25.3906 53.1133 25.5703 52.7734 25.8086 52.4805C26.0469 52.1875 26.3457 51.959 26.7051 51.7949C27.0645 51.627 27.4844 51.543 27.9648 51.543C28.4727 51.543 28.918 51.6445 29.3008 51.8477C29.6836 52.0469 29.9844 52.3262 30.2031 52.6855C30.4258 53.041 30.541 53.4551 30.5488 53.9277H29.2188C29.207 53.6934 29.1484 53.4824 29.043 53.2949C28.9414 53.1035 28.7969 52.9512 28.6094 52.8379C28.4258 52.7246 28.2051 52.668 27.9473 52.668C27.6621 52.668 27.4258 52.7266 27.2383 52.8438C27.0508 52.957 26.9043 53.1133 26.7988 53.3125C26.6934 53.5078 26.6172 53.7285 26.5703 53.9746C26.5273 54.2168 26.5059 54.4688 26.5059 54.7305V54.9355C26.5059 55.1973 26.5273 55.4512 26.5703 55.6973C26.6133 55.9434 26.6875 56.1641 26.793 56.3594C26.9023 56.5508 27.0508 56.7051 27.2383 56.8223C27.4258 56.9355 27.6641 56.9922 27.9531 56.9922ZM33.0273 49V58H31.6211V49H33.0273ZM32.7812 54.5957L32.3242 54.5898C32.3281 54.1523 32.3887 53.748 32.5059 53.377C32.627 53.0059 32.7949 52.6836 33.0098 52.4102C33.2285 52.1328 33.4902 51.9199 33.7949 51.7715C34.0996 51.6191 34.4375 51.543 34.8086 51.543C35.1211 51.543 35.4023 51.5859 35.6523 51.6719C35.9062 51.7578 36.125 51.8965 36.3086 52.0879C36.4922 52.2754 36.6309 52.5215 36.7246 52.8262C36.8223 53.127 36.8711 53.4941 36.8711 53.9277V58H35.4531V53.916C35.4531 53.6113 35.4082 53.3691 35.3184 53.1895C35.2324 53.0098 35.1055 52.8809 34.9375 52.8027C34.7695 52.7207 34.5645 52.6797 34.3223 52.6797C34.0684 52.6797 33.8438 52.7305 33.6484 52.832C33.457 52.9336 33.2969 53.0723 33.168 53.248C33.0391 53.4238 32.9414 53.627 32.875 53.8574C32.8125 54.0879 32.7812 54.334 32.7812 54.5957ZM41.0957 58.1172C40.627 58.1172 40.2031 58.041 39.8242 57.8887C39.4492 57.7324 39.1289 57.5156 38.8633 57.2383C38.6016 56.9609 38.4004 56.6348 38.2598 56.2598C38.1191 55.8848 38.0488 55.4805 38.0488 55.0469V54.8125C38.0488 54.3164 38.1211 53.8672 38.2656 53.4648C38.4102 53.0625 38.6113 52.7188 38.8691 52.4336C39.127 52.1445 39.4316 51.9238 39.7832 51.7715C40.1348 51.6191 40.5156 51.543 40.9258 51.543C41.3789 51.543 41.7754 51.6191 42.1152 51.7715C42.4551 51.9238 42.7363 52.1387 42.959 52.416C43.1855 52.6895 43.3535 53.0156 43.4629 53.3945C43.5762 53.7734 43.6328 54.1914 43.6328 54.6484V55.252H38.7344V54.2383H42.2383V54.127C42.2305 53.873 42.1797 53.6348 42.0859 53.4121C41.9961 53.1895 41.8574 53.0098 41.6699 52.873C41.4824 52.7363 41.2324 52.668 40.9199 52.668C40.6855 52.668 40.4766 52.7188 40.293 52.8203C40.1133 52.918 39.9629 53.0605 39.8418 53.248C39.7207 53.4355 39.627 53.6621 39.5605 53.9277C39.498 54.1895 39.4668 54.4844 39.4668 54.8125V55.0469C39.4668 55.3242 39.5039 55.582 39.5781 55.8203C39.6562 56.0547 39.7695 56.2598 39.918 56.4355C40.0664 56.6113 40.2461 56.75 40.457 56.8516C40.668 56.9492 40.9082 56.998 41.1777 56.998C41.5176 56.998 41.8203 56.9297 42.0859 56.793C42.3516 56.6562 42.582 56.4629 42.7773 56.2129L43.5215 56.9336C43.3848 57.1328 43.207 57.3242 42.9883 57.5078C42.7695 57.6875 42.502 57.834 42.1855 57.9473C41.873 58.0605 41.5098 58.1172 41.0957 58.1172ZM46.1348 53.0137V58H44.7227V51.6602H46.0527L46.1348 53.0137ZM45.8828 54.5957L45.4258 54.5898C45.4297 54.1406 45.4922 53.7285 45.6133 53.3535C45.7383 52.9785 45.9102 52.6562 46.1289 52.3867C46.3516 52.1172 46.6172 51.9102 46.9258 51.7656C47.2344 51.6172 47.5781 51.543 47.957 51.543C48.2617 51.543 48.5371 51.5859 48.7832 51.6719C49.0332 51.7539 49.2461 51.8887 49.4219 52.0762C49.6016 52.2637 49.7383 52.5078 49.832 52.8086C49.9258 53.1055 49.9727 53.4707 49.9727 53.9043V58H48.5547V53.8984C48.5547 53.5938 48.5098 53.3535 48.4199 53.1777C48.334 52.998 48.207 52.8711 48.0391 52.7969C47.875 52.7188 47.6699 52.6797 47.4238 52.6797C47.1816 52.6797 46.9648 52.7305 46.7734 52.832C46.582 52.9336 46.4199 53.0723 46.2871 53.248C46.1582 53.4238 46.0586 53.627 45.9883 53.8574C45.918 54.0879 45.8828 54.334 45.8828 54.5957Z" fill="#1F1F1F"/>
</svg>
