<svg width="13" height="14" viewBox="0 0 13 14" fill="none" xmlns="http://www.w3.org/2000/svg">
<path d="M10.4125 4.914V4.08333C10.4125 3.00037 9.96078 1.96175 9.15672 1.19598C8.35266 0.430207 7.26212 0 6.125 0C4.98788 0 3.89734 0.430207 3.09328 1.19598C2.28922 1.96175 1.8375 3.00037 1.8375 4.08333V4.914C1.29198 5.14074 0.827667 5.51397 0.501331 5.98804C0.174995 6.46211 0.000783005 7.01647 0 7.58333V11.0833C0.000972563 11.8566 0.32394 12.5979 0.89806 13.1447C1.47218 13.6915 2.25057 13.9991 3.0625 14H9.1875C9.99943 13.9991 10.7778 13.6915 11.3519 13.1447C11.9261 12.5979 12.249 11.8566 12.25 11.0833V7.58333C12.2492 7.01647 12.075 6.46211 11.7487 5.98804C11.4223 5.51397 10.958 5.14074 10.4125 4.914ZM3.0625 4.08333C3.0625 3.30979 3.38516 2.56792 3.95949 2.02094C4.53382 1.47396 5.31277 1.16667 6.125 1.16667C6.93723 1.16667 7.71618 1.47396 8.29051 2.02094C8.86485 2.56792 9.1875 3.30979 9.1875 4.08333V4.66667H3.0625V4.08333ZM11.025 11.0833C11.025 11.5475 10.8314 11.9926 10.4868 12.3208C10.1422 12.649 9.67484 12.8333 9.1875 12.8333H3.0625C2.57516 12.8333 2.10779 12.649 1.76319 12.3208C1.41859 11.9926 1.225 11.5475 1.225 11.0833V7.58333C1.225 7.1192 1.41859 6.67408 1.76319 6.3459C2.10779 6.01771 2.57516 5.83333 3.0625 5.83333H9.1875C9.67484 5.83333 10.1422 6.01771 10.4868 6.3459C10.8314 6.67408 11.025 7.1192 11.025 7.58333V11.0833Z" fill="#1C5298"/>
<path d="M6.12559 8.3999C5.9451 8.3999 5.772 8.45521 5.64437 8.55367C5.51674 8.65213 5.44504 8.78566 5.44504 8.9249V9.9749C5.44504 10.1141 5.51674 10.2477 5.64437 10.3461C5.772 10.4446 5.9451 10.4999 6.12559 10.4999C6.30609 10.4999 6.47919 10.4446 6.60682 10.3461C6.73445 10.2477 6.80615 10.1141 6.80615 9.9749V8.9249C6.80615 8.78566 6.73445 8.65213 6.60682 8.55367C6.47919 8.45521 6.30609 8.3999 6.12559 8.3999Z" fill="#1C5298"/>
</svg>
