<svg width="22" height="22" viewBox="0 0 22 22" fill="none" xmlns="http://www.w3.org/2000/svg">
<path d="M2.1001 7.13148V16.0506C2.1001 17.7923 3.3376 18.5073 4.84093 17.6456L6.9951 16.4173C7.4626 16.1515 8.24176 16.124 8.7276 16.3715L13.5401 18.7823C14.0259 19.0206 14.8051 19.0023 15.2726 18.7365L19.2418 16.4631C19.7459 16.1698 20.1676 15.4548 20.1676 14.8681V5.94898C20.1676 4.20731 18.9301 3.49231 17.4268 4.35398L15.2726 5.58232C14.8051 5.84815 14.0259 5.87565 13.5401 5.62815L8.7276 3.22648C8.24176 2.98815 7.4626 3.00648 6.9951 3.27231L3.02593 5.54565C2.5126 5.83898 2.1001 6.55398 2.1001 7.13148Z" stroke="#FD7E14" stroke-width="1.3" stroke-linecap="round" stroke-linejoin="round"/>
<path d="M7.84717 3.6665V15.5832" stroke="#FD7E14" stroke-width="1.3" stroke-linecap="round" stroke-linejoin="round"/>
<path d="M14.4196 6.06836V18.3334" stroke="#FD7E14" stroke-width="1.3" stroke-linecap="round" stroke-linejoin="round"/>
</svg>
