<svg width="20" height="20" viewBox="0 0 20 20" fill="none" xmlns="http://www.w3.org/2000/svg">
<path d="M14.168 1.6665H5.83463C3.53464 1.6665 1.66797 3.52484 1.66797 5.8165V10.7998V11.6332C1.66797 13.9248 3.53464 15.7832 5.83463 15.7832H7.08463C7.30963 15.7832 7.60963 15.9332 7.7513 16.1165L9.0013 17.7748C9.5513 18.5082 10.4513 18.5082 11.0013 17.7748L12.2513 16.1165C12.4096 15.9082 12.6596 15.7832 12.918 15.7832H14.168C16.468 15.7832 18.3346 13.9248 18.3346 11.6332V5.8165C18.3346 3.52484 16.468 1.6665 14.168 1.6665ZM6.66797 9.99984C6.2013 9.99984 5.83463 9.62484 5.83463 9.1665C5.83463 8.70817 6.20963 8.33317 6.66797 8.33317C7.1263 8.33317 7.5013 8.70817 7.5013 9.1665C7.5013 9.62484 7.13463 9.99984 6.66797 9.99984ZM10.0013 9.99984C9.53463 9.99984 9.16797 9.62484 9.16797 9.1665C9.16797 8.70817 9.54297 8.33317 10.0013 8.33317C10.4596 8.33317 10.8346 8.70817 10.8346 9.1665C10.8346 9.62484 10.468 9.99984 10.0013 9.99984ZM13.3346 9.99984C12.868 9.99984 12.5013 9.62484 12.5013 9.1665C12.5013 8.70817 12.8763 8.33317 13.3346 8.33317C13.793 8.33317 14.168 8.70817 14.168 9.1665C14.168 9.62484 13.8013 9.99984 13.3346 9.99984Z" fill="white"/>
</svg>
