<svg width="42" height="62" viewBox="0 0 42 62" fill="none" xmlns="http://www.w3.org/2000/svg">
<path d="M16.1241 40.6875H11.8125C9.1875 40.6875 6.5625 40.0312 6.5625 36.0938C6.5625 32.1562 6.5625 30.1875 8.53125 27.5625C9.31875 26.5191 10.2047 25.9941 11.2416 25.4034C11.2547 25.4428 11.2744 25.4822 11.2941 25.5216C11.6091 26.1581 12.2194 26.5387 12.9281 26.5387C13.5319 26.5387 14.0897 26.2697 14.6278 26.0072C14.9953 25.8366 15.4875 25.5938 15.75 25.5938C15.9272 25.5938 16.4062 25.5938 16.4062 26.88C16.3538 27.2934 15.5137 28.5403 14.9625 29.3672C13.7353 31.185 12.4688 33.0619 12.4688 34.7812C12.4688 36.8419 14.3128 39.2569 16.1241 40.6875ZM34.7812 7.67812C34.7812 7.8225 34.755 7.97344 34.7025 8.11125C34.4531 8.75437 33.5212 10.5 30.8438 10.5C30.8438 10.5 28.875 10.5 28.875 11.8125C28.875 12.39 29.3803 13.4663 29.9513 14.8837C28.8684 15.2447 27.7791 15.8944 27.0966 17.0428C26.3091 18.3553 26.2894 19.8909 26.2763 21.2494C26.2566 22.9031 26.2106 23.9466 25.4297 24.57C25.1213 24.8128 24.5306 25.1475 23.9072 25.4953C23.0737 25.9612 22.0238 26.5519 20.9672 27.3263C20.9934 27.1884 21 27.0441 21 26.9062C21 23.52 18.5391 21.4791 16.485 21.0787C16.6753 20.8491 16.8656 20.5997 17.0625 20.3438C19.0268 17.7165 20.4662 14.7353 21.3019 11.5631C21.5119 11.7534 21.8006 11.8125 22.3125 11.8125C23.625 11.8125 27.5625 11.8125 25.5938 6.5625C26.25 10.5 24.2812 11.1562 22.9688 11.1562C22.1878 11.1562 21.8728 10.6903 21.6037 10.1784C21.4266 9.82406 21.2625 9.45 21 9.1875C20.3438 8.53125 19.6875 9.1875 19.6875 7.21875C19.6875 5.25 22.3125 1.96875 26.25 1.96875C30.1875 1.96875 30.8438 5.25 30.8438 5.25C31.6247 6.03094 32.8716 6.34594 33.7509 6.47719C34.3416 6.5625 34.7812 7.07437 34.7812 7.67812Z" fill="#FD7E14"/>
<path d="M5.24993 27.5627C4.3443 30.2861 5.31555 31.7495 6.00461 32.3992C5.90618 33.4755 5.90618 34.6699 5.90618 36.0939C5.90618 36.3892 5.9193 36.6714 5.95211 36.9339C1.91618 33.6461 1.4043 28.7242 3.28118 25.5939C5.24993 22.3127 9.84368 21.6564 10.4999 22.3127C10.4999 22.3127 6.56243 23.6252 5.24993 27.5627ZM26.9062 36.0939C26.9062 36.0939 28.2187 37.9183 28.2187 40.6877H32.1562C32.1562 40.6877 32.1562 38.7189 30.1874 38.7189C30.1874 38.7189 29.2621 37.0914 30.1874 34.7814C31.1127 32.4714 33.4687 32.5699 33.4687 28.8752C33.4687 25.1805 32.1562 23.5989 32.1562 23.5989C32.1562 23.5989 32.1562 23.1395 32.6156 23.1395C33.0749 23.1395 36.0871 23.238 36.0871 22.3127C36.0871 21.3874 34.7746 20.613 34.7746 19.6877C34.7746 18.7624 34.7746 17.7189 32.8059 17.7189C33.2652 17.2595 33.4621 15.7502 33.4621 15.7502C33.4621 15.7502 29.5968 15.4089 28.2121 17.7189C26.8274 20.0289 28.5534 23.7499 26.2434 25.5939C23.9334 27.438 14.4046 30.063 19.0246 40.6877H26.8996C26.8996 40.6877 26.7749 38.7189 24.9309 38.7189C24.9309 38.7189 26.8996 37.3605 26.8996 34.1252V36.0939H26.9062Z" fill="#FD7E14"/>
<path d="M17.292 37.2947C17.4561 38.2725 17.7645 39.3291 18.237 40.4775C16.4651 39.7097 13.7811 36.8353 13.7811 34.7812C13.7811 32.3859 17.7186 28.5009 17.7186 26.9062C17.7186 25.3116 17.0623 24.2812 15.7498 24.2812C14.4373 24.2812 12.928 25.8628 12.4686 24.9375C11.727 23.4478 14.4373 22.3125 15.7498 22.3125C17.0623 22.3125 19.6873 23.7169 19.6873 26.9062C19.6873 29.2162 15.7498 32.3859 15.7498 34.7812C15.7498 36.4547 16.7145 37.0716 17.292 37.2947Z" fill="#FD7E14"/>
<path d="M13.0137 54.8184H10.793V53.6523H13.0137C13.4004 53.6523 13.7129 53.5898 13.9512 53.4648C14.1895 53.3398 14.3633 53.168 14.4727 52.9492C14.5859 52.7266 14.6426 52.4727 14.6426 52.1875C14.6426 51.918 14.5859 51.666 14.4727 51.4316C14.3633 51.1934 14.1895 51.002 13.9512 50.8574C13.7129 50.7129 13.4004 50.6406 13.0137 50.6406H11.2441V58H9.77344V49.4688H13.0137C13.6738 49.4688 14.2344 49.5859 14.6953 49.8203C15.1602 50.0508 15.5137 50.3711 15.7559 50.7812C15.998 51.1875 16.1191 51.6523 16.1191 52.1758C16.1191 52.7266 15.998 53.1992 15.7559 53.5938C15.5137 53.9883 15.1602 54.291 14.6953 54.502C14.2344 54.7129 13.6738 54.8184 13.0137 54.8184ZM20.0098 58.1172C19.541 58.1172 19.1172 58.041 18.7383 57.8887C18.3633 57.7324 18.043 57.5156 17.7773 57.2383C17.5156 56.9609 17.3145 56.6348 17.1738 56.2598C17.0332 55.8848 16.9629 55.4805 16.9629 55.0469V54.8125C16.9629 54.3164 17.0352 53.8672 17.1797 53.4648C17.3242 53.0625 17.5254 52.7188 17.7832 52.4336C18.041 52.1445 18.3457 51.9238 18.6973 51.7715C19.0488 51.6191 19.4297 51.543 19.8398 51.543C20.293 51.543 20.6895 51.6191 21.0293 51.7715C21.3691 51.9238 21.6504 52.1387 21.873 52.416C22.0996 52.6895 22.2676 53.0156 22.377 53.3945C22.4902 53.7734 22.5469 54.1914 22.5469 54.6484V55.252H17.6484V54.2383H21.1523V54.127C21.1445 53.873 21.0938 53.6348 21 53.4121C20.9102 53.1895 20.7715 53.0098 20.584 52.873C20.3965 52.7363 20.1465 52.668 19.834 52.668C19.5996 52.668 19.3906 52.7188 19.207 52.8203C19.0273 52.918 18.877 53.0605 18.7559 53.248C18.6348 53.4355 18.541 53.6621 18.4746 53.9277C18.4121 54.1895 18.3809 54.4844 18.3809 54.8125V55.0469C18.3809 55.3242 18.418 55.582 18.4922 55.8203C18.5703 56.0547 18.6836 56.2598 18.832 56.4355C18.9805 56.6113 19.1602 56.75 19.3711 56.8516C19.582 56.9492 19.8223 56.998 20.0918 56.998C20.4316 56.998 20.7344 56.9297 21 56.793C21.2656 56.6562 21.4961 56.4629 21.6914 56.2129L22.4355 56.9336C22.2988 57.1328 22.1211 57.3242 21.9023 57.5078C21.6836 57.6875 21.416 57.834 21.0996 57.9473C20.7871 58.0605 20.4238 58.1172 20.0098 58.1172ZM26.5547 51.6602V52.6914H22.9805V51.6602H26.5547ZM24.0117 50.1074H25.4238V56.248C25.4238 56.4434 25.4512 56.5938 25.5059 56.6992C25.5645 56.8008 25.6445 56.8691 25.7461 56.9043C25.8477 56.9395 25.9668 56.957 26.1035 56.957C26.2012 56.957 26.2949 56.9512 26.3848 56.9395C26.4746 56.9277 26.5469 56.916 26.6016 56.9043L26.6074 57.9824C26.4902 58.0176 26.3535 58.0488 26.1973 58.0762C26.0449 58.1035 25.8691 58.1172 25.6699 58.1172C25.3457 58.1172 25.0586 58.0605 24.8086 57.9473C24.5586 57.8301 24.3633 57.6406 24.2227 57.3789C24.082 57.1172 24.0117 56.7695 24.0117 56.3359V50.1074ZM31.2012 56.2832C31.2012 56.1426 31.166 56.0156 31.0957 55.9023C31.0254 55.7852 30.8906 55.6797 30.6914 55.5859C30.4961 55.4922 30.207 55.4062 29.8242 55.3281C29.4883 55.2539 29.1797 55.166 28.8984 55.0645C28.6211 54.959 28.3828 54.832 28.1836 54.6836C27.9844 54.5352 27.8301 54.3594 27.7207 54.1562C27.6113 53.9531 27.5566 53.7188 27.5566 53.4531C27.5566 53.1953 27.6133 52.9512 27.7266 52.7207C27.8398 52.4902 28.002 52.2871 28.2129 52.1113C28.4238 51.9355 28.6797 51.7969 28.9805 51.6953C29.2852 51.5938 29.625 51.543 30 51.543C30.5312 51.543 30.9863 51.6328 31.3652 51.8125C31.748 51.9883 32.041 52.2285 32.2441 52.5332C32.4473 52.834 32.5488 53.1738 32.5488 53.5527H31.1367C31.1367 53.3848 31.0938 53.2285 31.0078 53.084C30.9258 52.9355 30.8008 52.8164 30.6328 52.7266C30.4648 52.6328 30.2539 52.5859 30 52.5859C29.7578 52.5859 29.5566 52.625 29.3965 52.7031C29.2402 52.7773 29.123 52.875 29.0449 52.9961C28.9707 53.1172 28.9336 53.25 28.9336 53.3945C28.9336 53.5 28.9531 53.5957 28.9922 53.6816C29.0352 53.7637 29.1055 53.8398 29.2031 53.9102C29.3008 53.9766 29.4336 54.0391 29.6016 54.0977C29.7734 54.1562 29.9883 54.2129 30.2461 54.2676C30.7305 54.3691 31.1465 54.5 31.4941 54.6602C31.8457 54.8164 32.1152 55.0195 32.3027 55.2695C32.4902 55.5156 32.584 55.8281 32.584 56.207C32.584 56.4883 32.5234 56.7461 32.4023 56.9805C32.2852 57.2109 32.1133 57.4121 31.8867 57.584C31.6602 57.752 31.3887 57.8828 31.0723 57.9766C30.7598 58.0703 30.4082 58.1172 30.0176 58.1172C29.4434 58.1172 28.957 58.0156 28.5586 57.8125C28.1602 57.6055 27.8574 57.3418 27.6504 57.0215C27.4473 56.6973 27.3457 56.3613 27.3457 56.0137H28.7109C28.7266 56.2754 28.7988 56.4844 28.9277 56.6406C29.0605 56.793 29.2246 56.9043 29.4199 56.9746C29.6191 57.041 29.8242 57.0742 30.0352 57.0742C30.2891 57.0742 30.502 57.041 30.6738 56.9746C30.8457 56.9043 30.9766 56.8105 31.0664 56.6934C31.1562 56.5723 31.2012 56.4355 31.2012 56.2832Z" fill="#1F1F1F"/>
</svg>
