<svg width="22" height="22" viewBox="0 0 22 22" fill="none" xmlns="http://www.w3.org/2000/svg">
<path d="M20.1673 10.1673C19.7061 10.1673 19.3347 10.5388 19.3347 11C19.3347 15.5959 15.5959 19.3347 11 19.3347C6.40408 19.3347 2.66531 15.5959 2.66531 11C2.66531 6.40408 6.40408 2.66531 11 2.66531C13.5102 2.66531 15.8367 3.77143 17.4122 5.67347H14.5347C14.0735 5.67347 13.702 6.0449 13.702 6.50612C13.702 6.96735 14.0735 7.33878 14.5347 7.33878H19.2122C19.6735 7.33878 20.0449 6.96735 20.0449 6.50612V1.83265C20.0449 1.37143 19.6735 1 19.2122 1C18.751 1 18.3796 1.37143 18.3796 1.83265V4.24082C16.498 2.18776 13.849 1 11 1C5.48571 1 1 5.48571 1 11C1 16.5143 5.48571 21 11 21C16.5143 21 21 16.5143 21 11C21 10.5388 20.6286 10.1673 20.1673 10.1673Z" fill="#FD7E14"/>
</svg>
