<svg width="16" height="16" viewBox="0 0 16 16" fill="none" xmlns="http://www.w3.org/2000/svg">
<path d="M3.73691 10.4417C2.24683 10.9082 1.32942 12.2646 1.44495 14.0607C1.46182 14.3245 1.66978 14.5375 1.93363 14.555C3.10678 14.6324 4.09538 14.2718 4.76985 13.5973C5.1302 13.237 5.39749 12.7845 5.55986 12.2643L3.73691 10.4417Z" fill="#FCB800"/>
<path d="M5.27139 12.9326L4.57288 12.2341C4.21264 11.8742 3.72501 11.6709 3.21581 11.6683C2.576 11.6652 1.9518 11.9743 1.61176 12.5801C1.93026 11.5325 2.69341 10.769 3.73822 10.4412L5.56179 12.2647C5.48722 12.4964 5.38995 12.7201 5.27139 12.9326Z" fill="#E6A300"/>
<path d="M4.17945 10.8838C3.41099 11.1242 2.93792 11.8237 2.99725 12.7501C3.00111 12.8161 3.02886 12.8783 3.07529 12.9253C3.12173 12.9722 3.18367 13.0007 3.24955 13.0053C3.85439 13.0449 4.3643 12.8591 4.71216 12.5113C4.90189 12.3186 5.04177 12.0826 5.11965 11.8237L4.17945 10.8838Z" fill="#F9F401"/>
<path d="M4.77765 12.438L4.57343 12.2341C4.2132 11.8742 3.72557 11.6709 3.21637 11.6683C3.42058 11.2914 3.75751 11.016 4.18093 10.8833L5.12082 11.8232C5.05144 12.0504 4.93434 12.2601 4.77734 12.4383L4.77765 12.438Z" fill="#F7E839"/>
<path d="M3.56236 7.79835C3.40779 7.79211 3.2501 7.79523 3.09554 7.80772C2.50714 7.8469 1.93144 7.99692 1.39874 8.24988C1.16049 8.36416 0.885393 8.3117 0.696791 8.1231L0.693668 8.11998C0.597837 8.02613 0.534697 7.90397 0.513558 7.77152C0.492419 7.63906 0.5144 7.50332 0.57626 7.3843C0.861742 6.8021 1.24205 6.27141 1.70163 5.81397C2.66584 4.85246 3.92775 4.24655 5.28102 4.09532C5.49116 4.07658 5.69819 4.06128 5.90865 4.06128C4.90381 5.11545 4.10319 6.37978 3.56236 7.79835ZM8.62246 15.4305C8.50326 15.4917 8.36766 15.5133 8.23535 15.4921C8.10305 15.4709 7.98095 15.4081 7.88679 15.3128L7.88054 15.3065C7.78952 15.217 7.72846 15.1015 7.70576 14.9758C7.68306 14.8502 7.69983 14.7206 7.75377 14.6049C8.00685 14.0713 8.15585 13.4944 8.1928 12.905C8.20841 12.7473 8.21153 12.5896 8.20529 12.4288C9.60544 11.9005 10.8729 11.1089 11.9392 10.0922C11.9361 10.3055 11.9268 10.5187 11.899 10.7258C11.7909 11.7859 11.4012 12.8122 10.7336 13.6837C10.1588 14.4319 9.44775 15.0193 8.62246 15.4305Z" fill="#FF6356"/>
<path d="M5.90831 4.06128C4.90378 5.11545 4.10347 6.37978 3.56233 7.79836C3.45005 7.79321 3.33757 7.79425 3.22541 7.80148C3.182 7.80148 3.13579 7.8046 3.09551 7.80772C3.23354 7.4262 3.39113 7.05204 3.56764 6.68673C3.93017 5.93637 3.17201 5.15261 2.41854 5.50796C2.03165 5.69032 1.67849 5.89297 1.43243 6.10749C1.51612 6.0057 1.60886 5.90671 1.7016 5.81397C2.66581 4.85246 3.92772 4.24655 5.28098 4.09532C5.49113 4.07658 5.69785 4.06128 5.90831 4.06128ZM9.89581 14.5771C9.98574 14.4753 10.0722 14.3701 10.1587 14.2586C10.3071 14.065 10.4476 13.8074 10.5765 13.5232C10.9163 12.7738 10.1294 12.0288 9.3912 12.3926C9.00117 12.5846 8.60112 12.7555 8.19277 12.9047C8.19901 12.8616 8.20214 12.8154 8.20214 12.772C8.2115 12.6577 8.20838 12.5434 8.20526 12.4288C9.60541 11.9005 10.8729 11.1089 11.9392 10.0922C11.9361 10.3055 11.9267 10.5187 11.8989 10.7258C11.7909 11.7859 11.4012 12.8122 10.7336 13.6837C10.4836 14.0077 10.203 14.3068 9.89581 14.5771Z" fill="#F05543"/>
<path d="M12.1554 9.88797C10.6531 11.3902 8.72434 12.4413 6.57915 12.9234C6.23879 12.9977 5.87439 12.8866 5.62365 12.6361L3.36167 10.3732C3.10811 10.1197 2.99976 9.75182 3.0772 9.41459C4.27938 4.08282 8.85143 0.5 14.4524 0.5C15.0303 0.503123 15.4972 0.969945 15.494 1.54168C15.5003 4.76885 14.3103 7.7334 12.1557 9.88765L12.1554 9.88797Z" fill="#E4E3FF"/>
<path opacity="0.6" d="M4.22126 8.28119C4.42617 7.60064 4.70468 6.94446 5.05186 6.32429C5.07281 6.28646 5.10104 6.25315 5.13492 6.22629C5.1688 6.19942 5.20767 6.17951 5.24927 6.16772C5.29087 6.15594 5.3344 6.15249 5.37734 6.1576C5.42028 6.1627 5.46179 6.17624 5.49947 6.19745C5.53715 6.21866 5.57027 6.24712 5.59691 6.28118C5.62355 6.31524 5.64319 6.35423 5.6547 6.39592C5.66621 6.4376 5.66935 6.48115 5.66396 6.52405C5.65857 6.56696 5.64475 6.60837 5.62328 6.64591C5.29947 7.22417 5.0398 7.83607 4.84889 8.47073C4.82256 8.55252 4.76518 8.62071 4.68908 8.66062C4.61299 8.70053 4.52426 8.70898 4.44201 8.68414C4.35975 8.6593 4.29053 8.60316 4.24925 8.5278C4.20796 8.45244 4.19791 8.36389 4.22126 8.28119ZM5.97239 5.44341C5.9151 5.38595 5.88116 5.30929 5.87713 5.22826C5.87309 5.14722 5.89924 5.06757 5.95053 5.00469C6.07855 4.84763 6.21189 4.69462 6.34928 4.54693C6.40852 4.48338 6.49057 4.44594 6.57739 4.44284C6.66422 4.43973 6.74872 4.47122 6.81235 4.53038C6.94725 4.64466 6.95256 4.86137 6.82953 4.99345C6.7015 5.13116 6.57754 5.27292 6.45857 5.41906C6.42957 5.45461 6.39343 5.48369 6.35249 5.5044C6.31155 5.52511 6.26671 5.537 6.22089 5.5393C6.17507 5.54159 6.12927 5.53424 6.08646 5.51773C6.04366 5.50121 6.00479 5.47589 5.97239 5.44341Z" fill="white"/>
<path d="M12.1553 9.88803C10.653 11.3903 8.72424 12.4413 6.57904 12.9235C6.23868 12.9978 5.87428 12.8866 5.62354 12.6362L4.97467 11.9867C5.2251 12.2374 5.58981 12.3486 5.92986 12.2743C8.07506 11.7922 10.0039 10.7411 11.5061 9.23916C13.6607 7.0846 14.8504 4.12004 14.8444 0.893196C14.8444 0.775475 14.8257 0.664312 14.7889 0.559082C15.2029 0.701471 15.4967 1.08773 15.4936 1.54206C15.4999 4.76922 14.3099 7.73378 12.1553 9.88803Z" fill="#CFCFFF"/>
<path d="M3.27064 8.69946C3.20194 8.93584 3.13231 9.17159 3.07704 9.41515C2.99991 9.75208 3.10827 10.1199 3.36182 10.3735L5.62442 12.6361C5.87485 12.8865 6.23957 12.9977 6.57961 12.9233C6.82332 12.8679 7.06523 12.8048 7.30498 12.7341L3.27064 8.69946Z" fill="#FF6356"/>
<path d="M7.30584 12.7347C7.06477 12.8028 6.82683 12.8677 6.57953 12.9233C6.23917 12.9976 5.87477 12.8865 5.62403 12.6361L4.95361 11.9653C5.20373 12.2154 5.56876 12.3269 5.90849 12.2526C6.15235 12.1963 6.39465 12.1334 6.63511 12.064L7.30584 12.7347Z" fill="#E24B40"/>
<path d="M14.9684 5.15754C15.3213 3.98494 15.4983 2.76647 15.4936 1.54193C15.4967 0.970501 15.0299 0.503367 14.4519 0.500244C13.1873 0.500244 11.9795 0.691969 10.8469 1.03607L14.9684 5.15754Z" fill="#FF6356"/>
<path d="M14.9677 5.15864L14.337 4.5282C14.6903 3.35548 14.8675 2.13676 14.8625 0.911965C14.8625 0.788312 14.841 0.674027 14.8007 0.565674C15.0036 0.635797 15.1794 0.767648 15.3036 0.942749C15.4278 1.11785 15.4941 1.32742 15.4933 1.5421C15.4964 2.80049 15.314 4.01485 14.9677 5.15864Z" fill="#E24B40"/>
<path d="M12.0842 7.65597C11.0544 8.68579 9.38381 8.68579 8.35055 7.65254C7.85604 7.15781 7.57825 6.48694 7.57825 5.78744C7.57825 5.08794 7.85604 4.41707 8.35055 3.92233C9.38412 2.88877 11.0547 2.88877 12.0842 3.9189C12.3299 4.16412 12.5248 4.45538 12.6577 4.776C12.7907 5.09663 12.8592 5.44033 12.8592 5.78744C12.8592 6.13454 12.7907 6.47825 12.6577 6.79887C12.5248 7.1195 12.3299 7.41075 12.0842 7.65597Z" fill="#474646"/>
<path opacity="0.3" d="M8.9204 4.16439C8.90917 4.15319 8.90052 4.13968 8.89504 4.1248C8.88956 4.10992 8.88738 4.09403 8.88866 4.07822C8.88994 4.06242 8.89464 4.04708 8.90244 4.03328C8.91024 4.01947 8.92095 4.00753 8.93383 3.99827C9.20121 3.80481 9.50864 3.67389 9.83341 3.6152C10.1582 3.5565 10.492 3.57153 10.8102 3.65916C10.824 3.66294 10.837 3.6694 10.8483 3.67818C10.8597 3.68696 10.8692 3.69789 10.8763 3.71034C10.8834 3.7228 10.888 3.73653 10.8898 3.75076C10.8916 3.76499 10.8906 3.77944 10.8868 3.79328C10.8831 3.80712 10.8766 3.82008 10.8678 3.83142C10.859 3.84276 10.8481 3.85226 10.8356 3.85938C10.8232 3.8665 10.8095 3.8711 10.7952 3.87291C10.781 3.87472 10.7666 3.87371 10.7527 3.86994C10.4659 3.79103 10.165 3.77753 9.87221 3.83044C9.57945 3.88335 9.30231 4.00131 9.06123 4.17563C9.04022 4.19073 9.01454 4.19789 8.98875 4.19583C8.96297 4.19377 8.93875 4.18263 8.9204 4.16439ZM11.3282 4.13098C11.3085 4.11178 11.2967 4.08583 11.2953 4.05834C11.2939 4.03084 11.3029 4.00382 11.3205 3.98268C11.3381 3.96154 11.3631 3.94783 11.3904 3.94429C11.4177 3.94076 11.4453 3.94766 11.4678 3.96361C11.5799 4.04074 11.6848 4.12848 11.78 4.22372C11.8228 4.26619 11.8238 4.33676 11.7813 4.37923C11.7695 4.39033 11.7554 4.39875 11.74 4.40388C11.7246 4.40902 11.7083 4.41076 11.6922 4.40898C11.6761 4.4072 11.6605 4.40194 11.6466 4.39357C11.6327 4.3852 11.6208 4.37391 11.6117 4.36049C11.528 4.28146 11.4384 4.20901 11.3435 4.14378C11.338 4.14001 11.3329 4.13572 11.3282 4.13098Z" fill="white"/>
<path d="M12.0812 7.65659C11.052 8.68578 9.38269 8.68578 8.35037 7.65347C8.08054 7.38437 7.87271 7.05961 7.74138 6.70187C7.61005 6.34413 7.5584 5.96204 7.59003 5.58228C7.60344 6.2548 7.87843 6.89561 8.35661 7.36869C8.60155 7.61471 8.89261 7.80998 9.21314 7.94332C9.53366 8.07666 9.87735 8.14545 10.2245 8.14574C10.5717 8.14603 10.9155 8.07782 11.2362 7.94501C11.557 7.81221 11.8483 7.61742 12.0937 7.37181C12.5275 6.93913 12.7965 6.36841 12.854 5.75839C12.86 6.11052 12.7946 6.46021 12.6618 6.78639C12.5289 7.11256 12.3314 7.40878 12.0812 7.65659Z" fill="#2D2C2C"/>
<path d="M11.2997 6.86798C11.1578 7.01037 10.9892 7.12335 10.8035 7.20044C10.6178 7.27753 10.4188 7.31721 10.2177 7.31721C10.0167 7.31721 9.81765 7.27753 9.63198 7.20044C9.44631 7.12335 9.27769 7.01037 9.13577 6.86798C8.9972 6.73056 8.88781 6.56658 8.81415 6.38586C8.75566 6.25877 8.71812 6.12306 8.70299 5.98398C8.68144 5.83847 8.68738 5.69046 8.71236 5.54808C8.76169 5.23894 8.90408 4.9423 9.1389 4.70717C9.73531 4.11076 10.7033 4.10764 11.2997 4.70405C11.3647 4.769 11.4234 4.84019 11.4727 4.91451C11.5592 5.03192 11.6241 5.16463 11.6675 5.30077C11.7138 5.43379 11.7415 5.57274 11.7447 5.7117C11.7583 5.96227 11.7084 6.21223 11.5995 6.43832C11.5283 6.59601 11.4265 6.7412 11.2997 6.86798Z" fill="#A2A2F9"/>
<path opacity="0.3" d="M11.6675 5.30088L8.70299 5.98409C8.68144 5.83858 8.68738 5.69057 8.71236 5.54819L11.4727 4.91431C11.5592 5.03203 11.6241 5.16474 11.6675 5.30088ZM11.5995 6.43843L9.25631 6.97613C9.21469 6.94176 9.17448 6.90571 9.13577 6.86809C8.9972 6.73067 8.88781 6.56669 8.81415 6.38597L11.7447 5.71181C11.7583 5.96238 11.7084 6.21234 11.5995 6.43843Z" fill="white"/>
<path d="M11.7013 6.14448C11.7011 5.94662 11.6616 5.75077 11.5852 5.56826C11.5087 5.38576 11.3968 5.22022 11.256 5.08125C10.6596 4.48485 9.69191 4.48797 9.09519 5.08438C8.89652 5.28328 8.75743 5.53377 8.69363 5.80756C8.69027 5.60368 8.72792 5.40121 8.80436 5.21218C8.8808 5.02315 8.99446 4.85141 9.13859 4.70717C9.735 4.11076 10.703 4.10764 11.2994 4.70405C11.4858 4.88854 11.6208 5.1184 11.6913 5.37099C11.7618 5.62358 11.7652 5.89017 11.7013 6.14448Z" fill="#5E5EEF"/>
</svg>
