<svg width="22" height="22" viewBox="0 0 22 22" fill="none" xmlns="http://www.w3.org/2000/svg">
<g clip-path="url(#clip0_2975_8665)">
<path d="M13.4236 1.4853L13.4237 1.48536L21.2474 7.60778L21.2477 7.60801C21.3635 7.69848 21.384 7.86605 21.2932 7.98187L21.2927 7.98255C21.2404 8.04946 21.1631 8.08488 21.0824 8.08488C21.0239 8.08488 20.9671 8.06627 20.9203 8.02944L20.9192 8.02865L13.0957 1.90637C13.0956 1.90633 13.0956 1.90628 13.0955 1.90624C11.8629 0.941113 10.1381 0.941096 8.90549 1.90618C8.90541 1.90625 8.90533 1.90631 8.90525 1.90637L1.08162 8.02706C1.08153 8.02713 1.08143 8.02721 1.08134 8.02728C0.964777 8.11793 0.797555 8.09724 0.706623 7.98164C0.616461 7.86636 0.635971 7.69938 0.752784 7.60762C0.75286 7.60756 0.752936 7.6075 0.753013 7.60744L8.57624 1.48543C8.57627 1.48541 8.5763 1.48538 8.57633 1.48536C10.0041 0.368583 11.9963 0.368022 13.4236 1.4853ZM3.82949 17.2045C3.89547 17.2552 3.93425 17.334 3.93425 17.4166V21.0833C3.93425 21.2312 3.81551 21.35 3.66758 21.35H0.916667C0.768735 21.35 0.65 21.2312 0.65 21.0833C0.65 19.2738 1.90042 17.6229 3.59484 17.1596C3.67761 17.1379 3.76559 17.156 3.82949 17.2045ZM21.3509 21.0833C21.3509 21.2312 21.2322 21.35 21.0842 21.35H18.3342C18.1863 21.35 18.0676 21.2312 18.0676 21.0833V17.4166C18.0676 17.3357 18.105 17.2575 18.1718 17.2049C18.2395 17.1549 18.3281 17.1389 18.4055 17.1595C20.1002 17.6225 21.3509 19.2736 21.3509 21.0833ZM2.48333 12.375C2.48333 11.468 3.21807 10.7333 4.125 10.7333C5.03193 10.7333 5.76667 11.468 5.76667 12.375C5.76667 13.2819 5.03193 14.0166 4.125 14.0166C3.21807 14.0166 2.48333 13.2819 2.48333 12.375ZM17.875 10.7333C18.7819 10.7333 19.5167 11.468 19.5167 12.375C19.5167 13.2819 18.7819 14.0166 17.875 14.0166C16.9681 14.0166 16.2333 13.2819 16.2333 12.375C16.2333 11.468 16.9681 10.7333 17.875 10.7333ZM9.35833 9.62496C9.35833 8.71803 10.0931 7.9833 11 7.9833C11.9069 7.9833 12.6417 8.71803 12.6417 9.62496C12.6417 10.5319 11.9069 11.2666 11 11.2666C10.0931 11.2666 9.35833 10.5319 9.35833 9.62496ZM14.9333 18.3333V21.0833C14.9333 21.2312 14.8146 21.35 14.6667 21.35H7.33333C7.1854 21.35 7.06667 21.2312 7.06667 21.0833V18.3333C7.06667 16.165 8.83173 14.4 11 14.4C13.1683 14.4 14.9333 16.165 14.9333 18.3333Z" stroke="#FD7E14" stroke-width="1.3"/>
</g>
<defs>
<clipPath id="clip0_2975_8665">
<rect width="22" height="22" fill="white"/>
</clipPath>
</defs>
</svg>
