<svg width="15" height="15" viewBox="0 0 15 15" fill="none" xmlns="http://www.w3.org/2000/svg">
<path d="M13.0854 12.6966C13.0119 12.3828 12.6974 12.1868 12.3848 12.2614C12.3807 12.2626 12.3025 12.2801 12.1625 12.3087C12.306 11.4418 12.5178 9.84934 12.5178 8.01184C12.5178 5.26609 12.0523 3.24776 12.0324 3.16317C11.9875 2.97184 11.8504 2.81609 11.6655 2.74901C11.6375 2.73851 11.06 2.52851 10.1897 2.34942V1.79817C10.1909 1.51467 9.98669 1.27201 9.70786 1.22301C9.19452 1.13259 8.53477 1.08301 7.85111 1.08301C5.81994 1.08301 4.09327 1.76667 4.02036 1.79584C3.84011 1.86876 3.70769 2.02626 3.66744 2.21642C3.64819 2.30976 3.18502 4.53109 3.18502 7.49967C3.18502 9.61017 3.41486 11.4045 3.55719 12.3122C3.40611 12.2818 3.32152 12.262 3.31686 12.2608C3.00419 12.1885 2.68977 12.3828 2.61686 12.6966C2.54394 13.0104 2.73877 13.3237 3.05202 13.3972C3.14302 13.4188 5.30544 13.9163 7.85169 13.9163C10.3979 13.9163 12.5604 13.4182 12.6514 13.3972C12.9652 13.3237 13.16 13.0098 13.0865 12.6966H13.0854ZM9.01136 12.7147C8.63802 12.7368 8.24894 12.7497 7.85111 12.7497C6.68852 12.7497 5.59536 12.6365 4.77402 12.5193C4.66611 11.9015 4.35111 9.89426 4.35111 7.49967C4.35111 5.29001 4.62527 3.47934 4.74952 2.77467C5.29086 2.59559 6.51119 2.24967 7.85111 2.24967C8.26644 2.24967 8.66777 2.26951 9.02302 2.30626L9.01194 12.7147H9.01136ZM10.9404 12.5181C10.7071 12.5513 10.451 12.5846 10.178 12.6149L10.1879 3.54292C10.5094 3.61584 10.7748 3.68934 10.9614 3.74592C11.0869 4.40159 11.3505 6.01276 11.3505 8.01126C11.3505 10.0973 11.0565 11.8898 10.9404 12.5175V12.5181Z" fill="#FD7E14"/>
<path d="M7.85063 8.08211C8.17183 8.08211 8.43221 7.82173 8.43221 7.50053C8.43221 7.17933 8.17183 6.91895 7.85063 6.91895C7.52943 6.91895 7.26904 7.17933 7.26904 7.50053C7.26904 7.82173 7.52943 8.08211 7.85063 8.08211Z" fill="#FD7E14"/>
</svg>
