<svg width="24" height="24" viewBox="0 0 24 24" fill="none" xmlns="http://www.w3.org/2000/svg">
<path d="M9.62782 12L9.67782 12C9.67802 11.5609 9.59852 11.1256 9.44331 10.715L15.3015 7.0866C15.9684 7.80285 16.9193 8.25184 17.9732 8.25184C19.9864 8.25184 21.6242 6.61408 21.6242 4.60083C21.6242 2.58758 19.9864 0.95 17.9732 0.95C15.96 0.95 14.3222 2.58776 14.3222 4.601C14.3221 5.04008 14.4016 5.47542 14.5567 5.88595L8.69869 9.51425C8.03176 8.798 7.08088 8.34902 6.02703 8.34902C4.01378 8.34902 2.37603 9.98695 2.37603 12C2.37603 14.0132 4.01378 15.651 6.02703 15.651C7.08083 15.651 8.0318 15.2022 8.6987 14.4858L14.5568 18.1141C14.4016 18.5247 14.3221 18.9601 14.3222 19.3992C14.3222 21.4123 15.9599 23.05 17.9732 23.05C19.9864 23.05 21.6242 21.4123 21.6242 19.3993C21.6242 17.386 19.9864 15.7483 17.9732 15.7483C16.9193 15.7483 15.9684 16.197 15.3015 16.9133L9.44331 13.285C9.59849 12.8745 9.67799 12.4391 9.67782 12L9.62782 12ZM9.62782 12C9.62799 12.4468 9.54454 12.8897 9.38178 13.3057V10.6943C9.54457 11.1104 9.62802 11.5533 9.62782 12ZM17.9732 17.1611C16.7393 17.1611 15.7353 18.1651 15.7353 19.399L17.9732 17.1611ZM17.9732 17.1611C19.2071 17.1611 20.2111 18.1651 20.2111 19.399M17.9732 17.1611L20.2111 19.399M20.2111 19.399C20.2111 20.633 19.2071 21.637 17.9732 21.637M20.2111 19.399L17.9732 21.637M17.9732 21.637C16.7392 21.637 15.7353 20.633 15.7353 19.3991L17.9732 21.637ZM15.7353 4.601C15.7353 3.36705 16.7393 2.36308 17.9732 2.36308C19.2071 2.36308 20.2111 3.36705 20.2111 4.601C20.2111 5.83496 19.2071 6.83892 17.9732 6.83892C16.7392 6.83892 15.7353 5.83491 15.7353 4.601ZM6.02703 14.2379C4.7929 14.2379 3.78894 13.2339 3.78894 12C3.78894 10.7661 4.7929 9.7621 6.02703 9.7621C7.26097 9.7621 8.26478 10.7661 8.26478 12C8.26478 13.2339 7.26093 14.2379 6.02703 14.2379Z" fill="#FD7E14" stroke="#FD7E14" stroke-width="0.1"/>
</svg>
