<svg width="22" height="22" viewBox="0 0 22 22" fill="none" xmlns="http://www.w3.org/2000/svg">
<g clip-path="url(#clip0_2831_8489)">
<path d="M21.5153 9.50844C21.4279 8.96999 21.1695 8.47398 20.7783 8.09379C20.3871 7.7136 19.8839 7.46942 19.3432 7.39738C19.2394 7.38722 19.1351 7.38243 19.0308 7.38302V6.30235C19.0291 4.87459 18.4612 3.5058 17.4516 2.49622C16.442 1.48664 15.0732 0.918702 13.6455 0.916992H7.9011C6.47334 0.918702 5.10454 1.48664 4.09496 2.49622C3.08538 3.5058 2.51745 4.87459 2.51574 6.30235V7.38302C2.41144 7.38243 2.30719 7.38722 2.20339 7.39738C1.66267 7.46942 1.1595 7.7136 0.768313 8.09379C0.377131 8.47398 0.118713 8.96999 0.0312904 9.50844C-0.0646815 10.1088 0.0618411 10.7235 0.387094 11.2372C0.712347 11.7509 1.21395 12.1281 1.79769 12.2981V17.0731C1.79854 17.3585 1.91229 17.6319 2.1141 17.8337C2.3159 18.0355 2.58937 18.1493 2.87476 18.1502V20.3043C2.87476 20.3995 2.91259 20.4908 2.97992 20.5582C3.04725 20.6255 3.13857 20.6633 3.23379 20.6633H4.31086C4.389 20.6631 4.46494 20.6374 4.52715 20.5901C4.58935 20.5428 4.63442 20.4765 4.65552 20.4012L5.29817 18.1502H16.2484L16.8911 20.4012C16.9122 20.4765 16.9572 20.5428 17.0194 20.5901C17.0816 20.6374 17.1576 20.6631 17.2357 20.6633H18.3128C18.408 20.6633 18.4993 20.6255 18.5667 20.5582C18.634 20.4908 18.6718 20.3995 18.6718 20.3043V18.1502C18.9572 18.1493 19.2307 18.0355 19.4325 17.8337C19.6343 17.6319 19.748 17.3585 19.7489 17.0731V12.2981C20.3326 12.1281 20.8342 11.7509 21.1595 11.2372C21.4847 10.7235 21.6113 10.1088 21.5153 9.50844ZM3.23379 6.30235C3.23493 5.06486 3.72703 3.87837 4.60207 3.00332C5.47711 2.12828 6.6636 1.63618 7.9011 1.63504H13.6455C14.883 1.63618 16.0695 2.12828 16.9445 3.00332C17.8196 3.87837 18.3117 5.06486 18.3128 6.30235V7.48713C17.7939 7.64039 17.3386 7.95756 17.015 8.39118C16.6914 8.82479 16.5169 9.35154 16.5177 9.8926V11.0343C16.4025 10.9925 16.2811 10.9706 16.1587 10.9697H5.38793C5.26545 10.9706 5.14404 10.9925 5.02891 11.0343V9.8926C5.02966 9.35154 4.85518 8.82479 4.53159 8.39118C4.20799 7.95756 3.75268 7.64039 3.23379 7.48713V6.30235ZM16.5177 12.0467V13.8419H5.02891V12.0467C5.02891 11.9515 5.06673 11.8602 5.13406 11.7929C5.20139 11.7255 5.29271 11.6877 5.38793 11.6877H16.1587C16.2539 11.6877 16.3452 11.7255 16.4125 11.7929C16.4799 11.8602 16.5177 11.9515 16.5177 12.0467ZM4.04159 19.9453H3.59281V18.1502H4.5514L4.04159 19.9453ZM17.9538 19.9453H17.505L16.9952 18.1502H17.9538V19.9453ZM19.3288 11.659C19.2454 11.674 19.1699 11.7177 19.1154 11.7827C19.061 11.8477 19.031 11.9297 19.0308 12.0144V17.0731C19.0308 17.1683 18.993 17.2596 18.9257 17.3269C18.8584 17.3943 18.767 17.4321 18.6718 17.4321H2.87476C2.77954 17.4321 2.68822 17.3943 2.62089 17.3269C2.55356 17.2596 2.51574 17.1683 2.51574 17.0731V12.0144C2.51556 11.9297 2.48563 11.8477 2.43117 11.7827C2.37671 11.7177 2.30118 11.674 2.21775 11.659C1.79328 11.5879 1.40856 11.3664 1.13385 11.0351C0.859143 10.7038 0.71278 10.2847 0.72149 9.8544C0.730201 9.4241 0.893404 9.01129 1.18129 8.69136C1.46918 8.37143 1.86255 8.16573 2.28955 8.11184C2.36451 8.10169 2.4401 8.09689 2.51574 8.09748H2.51933C2.95659 8.09668 3.37865 8.25783 3.70411 8.54985C3.89436 8.7181 4.0468 8.92475 4.15138 9.1562C4.25596 9.38764 4.31032 9.63862 4.31086 9.8926V14.2009C4.31086 14.2961 4.34868 14.3874 4.41601 14.4548C4.48334 14.5221 4.57466 14.5599 4.66988 14.5599H16.8767C16.9719 14.5599 17.0632 14.5221 17.1306 14.4548C17.1979 14.3874 17.2357 14.2961 17.2357 14.2009V9.8926C17.2363 9.63862 17.2906 9.38764 17.3952 9.1562C17.4998 8.92475 17.6522 8.7181 17.8425 8.54985C18.0327 8.37906 18.2576 8.25148 18.5018 8.17587C18.7459 8.10026 19.0036 8.07842 19.257 8.11184C19.6423 8.16172 20.0011 8.33479 20.2799 8.60524C20.5588 8.87568 20.7428 9.22902 20.8044 9.61256V9.61615C20.8786 10.0826 20.765 10.5594 20.4884 10.9422C20.2119 11.3251 19.7949 11.5828 19.3288 11.659Z" fill="#FD7E14" stroke="#FD7E14" stroke-width="0.4"/>
</g>
<defs>
<clipPath id="clip0_2831_8489">
<rect width="22" height="22" fill="white"/>
</clipPath>
</defs>
</svg>
