<svg width="14" height="14" viewBox="0 0 14 14" fill="none" xmlns="http://www.w3.org/2000/svg">
<path d="M10.5535 9.22192H7.71094V7.04349C7.71094 6.64244 8.02912 6.31735 8.42159 6.31735H9.84289C10.2354 6.31735 10.5535 6.64244 10.5535 7.04349V9.22192Z" stroke="#FD7E14" stroke-miterlimit="10"/>
<path d="M6.49983 4.01831C6.77598 4.01831 7.00818 3.78815 6.91666 3.52762C6.71974 2.967 6.19498 2.56602 5.57853 2.56602C4.96209 2.56602 4.43732 2.967 4.2404 3.52762C4.14888 3.78815 4.38108 4.01831 4.65723 4.01831H6.49983Z" stroke="#FD7E14" stroke-miterlimit="10"/>
<path d="M5.57865 2.56557C5.57865 1.7635 4.94231 1.11328 4.15735 1.11328H3.44669C2.66173 1.11328 2.02539 1.7635 2.02539 2.56557V7.04346" stroke="#FD7E14" stroke-miterlimit="10"/>
<path d="M2.02539 8.49599V9.94828C2.02539 11.1514 2.97989 12.1267 4.15735 12.1267H9.84256C11.02 12.1267 11.9745 11.1514 11.9745 9.94828V8.49599" stroke="#FD7E14" stroke-miterlimit="10"/>
<path d="M11.6213 12.5372C11.8144 12.7346 11.811 13.0512 11.6136 13.2443C11.4163 13.4375 11.0997 13.434 10.9066 13.2367L11.6213 12.5372ZM10.8193 11.7178L11.6213 12.5372L10.9066 13.2367L10.1046 12.4172L10.8193 11.7178Z" fill="#FD7E14"/>
<path d="M3.09367 13.2367C2.90053 13.434 2.58396 13.4375 2.38661 13.2443C2.18925 13.0512 2.18584 12.7346 2.37898 12.5372L3.09367 13.2367ZM3.89567 12.4172L3.09367 13.2367L2.37898 12.5372L3.18098 11.7178L3.89567 12.4172Z" fill="#FD7E14"/>
<path d="M10.5527 7.04356H11.9977C12.3902 7.04356 12.7084 7.36866 12.7084 7.76971C12.7084 8.17076 12.3902 8.49585 11.9977 8.49585H10.5527" stroke="#FD7E14" stroke-miterlimit="10"/>
<path d="M7.71057 8.49585H2.00167C1.6092 8.49585 1.29102 8.17076 1.29102 7.76971C1.29102 7.36866 1.6092 7.04356 2.00167 7.04356H7.71059" stroke="#FD7E14" stroke-miterlimit="10"/>
</svg>
