<svg width="20" height="20" viewBox="0 0 20 20" fill="none" xmlns="http://www.w3.org/2000/svg">
<path d="M18.3077 15.2753C18.3077 15.5753 18.241 15.8837 18.0993 16.1837C17.9577 16.4837 17.7744 16.767 17.5327 17.0337C17.1244 17.4837 16.6743 17.8087 16.166 18.017C15.666 18.2253 15.1244 18.3337 14.541 18.3337C13.691 18.3337 12.7827 18.1337 11.8243 17.7253C10.866 17.317 9.90768 16.767 8.95768 16.0753C7.99935 15.3753 7.09102 14.6003 6.22435 13.742C5.36602 12.8753 4.59102 11.967 3.89935 11.017C3.21602 10.067 2.66602 9.11699 2.26602 8.17533C1.86602 7.22533 1.66602 6.31699 1.66602 5.45033C1.66602 4.88366 1.76602 4.34199 1.96602 3.84199C2.16602 3.33366 2.48268 2.86699 2.92435 2.45033C3.45768 1.92533 4.04102 1.66699 4.65768 1.66699C4.89102 1.66699 5.12435 1.71699 5.33268 1.81699C5.54935 1.91699 5.74102 2.06699 5.89102 2.28366L7.82435 5.00866C7.97435 5.21699 8.08268 5.40866 8.15768 5.59199C8.23268 5.76699 8.27435 5.94199 8.27435 6.10033C8.27435 6.30033 8.21602 6.50033 8.09935 6.69199C7.99102 6.88366 7.83268 7.08366 7.63268 7.28366L6.99935 7.94199C6.90768 8.03366 6.86602 8.14199 6.86602 8.27533C6.86602 8.34199 6.87435 8.40033 6.89102 8.46699C6.91602 8.53366 6.94102 8.58366 6.95768 8.63366C7.10768 8.90866 7.36602 9.26699 7.73268 9.70033C8.10768 10.1337 8.50768 10.5753 8.94102 11.017C9.39102 11.4587 9.82435 11.867 10.266 12.242C10.6993 12.6087 11.0577 12.8587 11.341 13.0087C11.3827 13.0253 11.4327 13.0503 11.491 13.0753C11.5577 13.1003 11.6243 13.1087 11.6993 13.1087C11.841 13.1087 11.9493 13.0587 12.041 12.967L12.6743 12.342C12.8827 12.1337 13.0827 11.9753 13.2744 11.8753C13.466 11.7587 13.6577 11.7003 13.866 11.7003C14.0243 11.7003 14.191 11.7337 14.3743 11.8087C14.5577 11.8837 14.7494 11.992 14.9577 12.1337L17.716 14.092C17.9327 14.242 18.0827 14.417 18.1743 14.6253C18.2577 14.8337 18.3077 15.042 18.3077 15.2753Z" fill="white"/>
</svg>
