<svg width="24" height="24" viewBox="0 0 24 24" fill="none" xmlns="http://www.w3.org/2000/svg">
<path d="M21.4839 10.0269C16.4499 5.25592 8.69791 5.00492 3.37791 9.27392C3.08291 9.51092 2.79491 9.76192 2.51591 10.0269C2.44441 10.0947 2.36026 10.1477 2.26826 10.1829C2.17627 10.2182 2.07824 10.235 1.97976 10.2323C1.88128 10.2297 1.78429 10.2076 1.69433 10.1675C1.60436 10.1274 1.52318 10.0699 1.45541 9.99842C1.38765 9.92692 1.33464 9.84277 1.2994 9.75077C1.26416 9.65878 1.24738 9.56075 1.25003 9.46227C1.25537 9.26339 1.3395 9.07477 1.48391 8.93792C1.79391 8.64492 2.11191 8.36792 2.43891 8.10492C8.33891 3.36892 16.9329 3.64692 22.5159 8.93792C22.5874 9.00568 22.6449 9.08687 22.685 9.17683C22.7251 9.2668 22.7472 9.36379 22.7498 9.46227C22.7524 9.56075 22.7357 9.65878 22.7004 9.75077C22.6652 9.84277 22.6122 9.92692 22.5444 9.99842C22.4767 10.0699 22.3955 10.1274 22.3055 10.1675C22.2155 10.2076 22.1185 10.2297 22.0201 10.2323C21.9216 10.235 21.8236 10.2182 21.7316 10.1829C21.6396 10.1477 21.5554 10.0947 21.4839 10.0269Z" fill="#FD7E14"/>
<path d="M4.46991 12.37C8.62891 8.21 15.3709 8.21 19.5299 12.37C19.6624 12.5122 19.7345 12.7002 19.7311 12.8945C19.7277 13.0888 19.6489 13.2742 19.5115 13.4116C19.3741 13.549 19.1887 13.6277 18.9944 13.6312C18.8001 13.6346 18.6121 13.5625 18.4699 13.43C16.754 11.7141 14.4266 10.7501 11.9999 10.7501C9.57319 10.7501 7.24587 11.7141 5.52991 13.43C5.46125 13.5037 5.37845 13.5628 5.28645 13.6038C5.19445 13.6448 5.09513 13.6668 4.99443 13.6686C4.89373 13.6704 4.7937 13.6518 4.70031 13.6141C4.60692 13.5764 4.52209 13.5203 4.45087 13.449C4.37965 13.3778 4.32351 13.293 4.28579 13.1996C4.24807 13.1062 4.22954 13.0062 4.23132 12.9055C4.23309 12.8048 4.25514 12.7055 4.29613 12.6135C4.33712 12.5215 4.39622 12.4387 4.46991 12.37Z" fill="#FD7E14"/>
<path d="M7.46991 15.6269C8.67142 14.4256 10.3009 13.7507 11.9999 13.7507C13.6989 13.7507 15.3284 14.4256 16.5299 15.6269C16.6624 15.769 16.7345 15.9571 16.7311 16.1514C16.7277 16.3457 16.6489 16.5311 16.5115 16.6685C16.3741 16.8059 16.1887 16.8846 15.9944 16.888C15.8001 16.8915 15.6121 16.8193 15.4699 16.6869C15.0142 16.2311 14.4733 15.8696 13.8779 15.623C13.2825 15.3764 12.6444 15.2494 11.9999 15.2494C11.3555 15.2494 10.7173 15.3764 10.1219 15.623C9.52655 15.8696 8.98557 16.2311 8.52991 16.6869C8.46125 16.7606 8.37845 16.8197 8.28645 16.8606C8.19445 16.9016 8.09513 16.9237 7.99443 16.9255C7.89373 16.9272 7.7937 16.9087 7.70031 16.871C7.60692 16.8333 7.52209 16.7771 7.45087 16.7059C7.37965 16.6347 7.32351 16.5499 7.28579 16.4565C7.24807 16.3631 7.22954 16.263 7.23132 16.1623C7.23309 16.0616 7.25514 15.9623 7.29613 15.8703C7.33712 15.7783 7.39622 15.6955 7.46991 15.6269ZM11.9999 19.9999C12.3314 19.9999 12.6494 19.8682 12.8838 19.6338C13.1182 19.3993 13.2499 19.0814 13.2499 18.7499C13.2499 18.4183 13.1182 18.1004 12.8838 17.866C12.6494 17.6316 12.3314 17.4999 11.9999 17.4999C11.6684 17.4999 11.3504 17.6316 11.116 17.866C10.8816 18.1004 10.7499 18.4183 10.7499 18.7499C10.7499 19.0814 10.8816 19.3993 11.116 19.6338C11.3504 19.8682 11.6684 19.9999 11.9999 19.9999Z" fill="#FD7E14"/>
</svg>
