<svg width="22" height="22" viewBox="0 0 22 22" fill="none" xmlns="http://www.w3.org/2000/svg">
<g clip-path="url(#clip0_2616_6892)">
<path d="M6.12287 19.8201C7.6165 20.6494 9.29698 21.0839 11.0054 21.0827C16.5728 21.0827 21.0837 16.5617 21.0837 10.9943C21.0837 5.42687 16.5728 0.916016 11.0054 0.916016C5.43793 0.916016 0.916992 5.42687 0.916992 10.9943C0.916992 12.7848 1.38659 14.4486 2.19902 15.9063L0.916992 21.0827L6.12287 19.8201ZM6.68034 6.54252C6.79777 6.43262 6.94016 6.35291 7.09524 6.31026C7.25031 6.2676 7.41343 6.26327 7.57055 6.29763L7.89394 6.36606C8.21661 6.43448 8.48093 6.64983 8.60769 6.94369L9.24366 8.35247C9.32083 8.52192 9.34713 8.71012 9.31939 8.89423C9.29164 9.07834 9.21104 9.25043 9.08737 9.38962L8.69628 9.84985C8.63262 9.92461 8.59294 10.0168 8.58241 10.1144C8.57188 10.2121 8.59098 10.3106 8.63722 10.3972C9.79177 12.4715 11.3086 13.1471 11.9834 13.3524C12.0807 13.3838 12.1857 13.3816 12.2815 13.3462C12.3774 13.3108 12.4586 13.2443 12.5121 13.1572L12.7959 12.7164C13.0696 12.2958 13.6083 12.1488 14.2047 12.4427L15.3787 13.0297C15.8295 13.2451 16.0341 13.773 15.8684 14.2433C15.2713 15.9748 13.7452 15.7594 13.7452 15.7594C10.36 15.6715 7.7074 12.55 6.56294 10.9453C6.03428 10.192 5.71162 9.28158 5.80957 8.35247C5.90752 7.43273 6.3375 6.8551 6.68034 6.54252Z" fill="white"/>
</g>
<defs>
<clipPath id="clip0_2616_6892">
<rect width="22" height="22" fill="white"/>
</clipPath>
</defs>
</svg>
