<svg width="50" height="62" viewBox="0 0 50 62" fill="none" xmlns="http://www.w3.org/2000/svg">
<path d="M42.499 21.002C42.499 11.3595 34.6415 3.50195 24.999 3.50195C15.3565 3.50195 7.49902 11.3595 7.49902 21.002C7.49902 26.077 9.68652 30.6444 13.1515 33.8469C13.1515 33.8644 13.1515 33.8645 13.134 33.882C13.309 34.0569 13.519 34.1969 13.694 34.3544C13.799 34.4419 13.8865 34.5294 13.9915 34.5994C14.3065 34.8619 14.6565 35.107 14.989 35.3519C15.1115 35.4394 15.2165 35.5094 15.339 35.597C15.6715 35.8244 16.0215 36.0345 16.389 36.227C16.5115 36.297 16.6515 36.3844 16.774 36.4544C17.124 36.6469 17.4915 36.8219 17.8765 36.9794C18.0165 37.0494 18.1565 37.1194 18.2965 37.1719C18.6815 37.3294 19.0665 37.4694 19.4515 37.5919C19.5915 37.6444 19.7315 37.6969 19.8715 37.7319C20.2915 37.8544 20.7115 37.9594 21.1315 38.0644C21.254 38.0994 21.3765 38.1344 21.5165 38.1519C22.0065 38.2569 22.4965 38.327 23.004 38.3794C23.074 38.3794 23.144 38.3969 23.214 38.4145C23.809 38.4669 24.404 38.5019 24.999 38.5019C25.594 38.5019 26.189 38.4669 26.7665 38.4145C26.8365 38.4145 26.9065 38.3969 26.9765 38.3794C27.484 38.327 27.974 38.2569 28.464 38.1519C28.5865 38.1344 28.709 38.0819 28.849 38.0644C29.269 37.9594 29.7065 37.8719 30.109 37.7319C30.249 37.6794 30.389 37.6269 30.529 37.5919C30.914 37.4519 31.3165 37.3294 31.684 37.1719C31.824 37.1194 31.964 37.0494 32.104 36.9794C32.4715 36.8219 32.839 36.6469 33.2065 36.4544C33.3465 36.3844 33.469 36.297 33.5915 36.227C33.9415 36.0169 34.2915 35.8244 34.6415 35.597C34.764 35.527 34.869 35.4394 34.9915 35.3519C35.3415 35.107 35.674 34.8619 35.989 34.5994C36.094 34.5119 36.1815 34.4244 36.2865 34.3544C36.479 34.1969 36.6715 34.0394 36.8465 33.882C36.8465 33.8645 36.8465 33.8644 36.829 33.8469C40.3115 30.6444 42.499 26.077 42.499 21.002ZM33.644 29.6994C28.9015 26.5144 21.1315 26.5144 16.354 29.6994C15.584 30.2069 14.954 30.8019 14.429 31.4494C11.769 28.7544 10.124 25.062 10.124 21.002C10.124 12.7945 16.7915 6.12695 24.999 6.12695C33.2065 6.12695 39.874 12.7945 39.874 21.002C39.874 25.062 38.229 28.7544 35.569 31.4494C35.0615 30.8019 34.414 30.2069 33.644 29.6994Z" fill="#FD7E14"/>
<path d="M25 12.125C21.3775 12.125 18.4375 15.065 18.4375 18.6875C18.4375 22.24 21.22 25.1275 24.9125 25.2325C24.965 25.2325 25.035 25.2325 25.07 25.2325C25.105 25.2325 25.1575 25.2325 25.1925 25.2325C25.21 25.2325 25.2275 25.2325 25.2275 25.2325C28.7625 25.11 31.545 22.24 31.5625 18.6875C31.5625 15.065 28.6225 12.125 25 12.125Z" fill="#FD7E14"/>
<path d="M16.4629 49.4688L18.4434 53.541L20.4238 49.4688H22.0527L19.1816 54.8594V58H17.6992V54.8594L14.8281 49.4688H16.4629ZM22.1875 54.9004V54.7656C22.1875 54.3086 22.2539 53.8848 22.3867 53.4941C22.5195 53.0996 22.7109 52.7578 22.9609 52.4688C23.2148 52.1758 23.5234 51.9492 23.8867 51.7891C24.2539 51.625 24.668 51.543 25.1289 51.543C25.5938 51.543 26.0078 51.625 26.3711 51.7891C26.7383 51.9492 27.0488 52.1758 27.3027 52.4688C27.5566 52.7578 27.75 53.0996 27.8828 53.4941C28.0156 53.8848 28.082 54.3086 28.082 54.7656V54.9004C28.082 55.3574 28.0156 55.7812 27.8828 56.1719C27.75 56.5625 27.5566 56.9043 27.3027 57.1973C27.0488 57.4863 26.7402 57.7129 26.377 57.877C26.0137 58.0371 25.6016 58.1172 25.1406 58.1172C24.6758 58.1172 24.2598 58.0371 23.8926 57.877C23.5293 57.7129 23.2207 57.4863 22.9668 57.1973C22.7129 56.9043 22.5195 56.5625 22.3867 56.1719C22.2539 55.7812 22.1875 55.3574 22.1875 54.9004ZM23.5996 54.7656V54.9004C23.5996 55.1855 23.6289 55.4551 23.6875 55.709C23.7461 55.9629 23.8379 56.1855 23.9629 56.377C24.0879 56.5684 24.248 56.7188 24.4434 56.8281C24.6387 56.9375 24.8711 56.9922 25.1406 56.9922C25.4023 56.9922 25.6289 56.9375 25.8203 56.8281C26.0156 56.7188 26.1758 56.5684 26.3008 56.377C26.4258 56.1855 26.5176 55.9629 26.5762 55.709C26.6387 55.4551 26.6699 55.1855 26.6699 54.9004V54.7656C26.6699 54.4844 26.6387 54.2188 26.5762 53.9688C26.5176 53.7148 26.4238 53.4902 26.2949 53.2949C26.1699 53.0996 26.0098 52.9473 25.8145 52.8379C25.623 52.7246 25.3945 52.668 25.1289 52.668C24.8633 52.668 24.6328 52.7246 24.4375 52.8379C24.2461 52.9473 24.0879 53.0996 23.9629 53.2949C23.8379 53.4902 23.7461 53.7148 23.6875 53.9688C23.6289 54.2188 23.5996 54.4844 23.5996 54.7656ZM33.0801 56.5059V51.6602H34.498V58H33.1621L33.0801 56.5059ZM33.2793 55.1875L33.7539 55.1758C33.7539 55.6016 33.707 55.9941 33.6133 56.3535C33.5195 56.709 33.375 57.0195 33.1797 57.2852C32.9844 57.5469 32.7344 57.752 32.4297 57.9004C32.125 58.0449 31.7598 58.1172 31.334 58.1172C31.0254 58.1172 30.7422 58.0723 30.4844 57.9824C30.2266 57.8926 30.0039 57.7539 29.8164 57.5664C29.6328 57.3789 29.4902 57.1348 29.3887 56.834C29.2871 56.5332 29.2363 56.1738 29.2363 55.7559V51.6602H30.6484V55.7676C30.6484 55.998 30.6758 56.1914 30.7305 56.3477C30.7852 56.5 30.8594 56.623 30.9531 56.7168C31.0469 56.8105 31.1562 56.877 31.2812 56.916C31.4062 56.9551 31.5391 56.9746 31.6797 56.9746C32.082 56.9746 32.3984 56.8965 32.6289 56.7402C32.8633 56.5801 33.0293 56.3652 33.127 56.0957C33.2285 55.8262 33.2793 55.5234 33.2793 55.1875Z" fill="#1F1F1F"/>
</svg>
